SplineFontDB: 3.0
FontName: SquareAntiqua-Book
FullName: Square Antiqua Book
FamilyName: Square Antiqua
Weight: Book
Copyright: Copyright (c) 2020-2024 by Wojciech Kalinowski "wmk69" with Reserved Font Name "SquareAntiqua-Book".\nThis Font Software is licensed under the SIL Open Font License, Version 1.1.
Version: 2.1.1; 2021-05-15
ItalicAngle: 0
UnderlinePosition: -80
UnderlineWidth: 200
Ascent: 1638
Descent: 410
InvalidEm: 0
LayerCount: 2
Layer: 0 1 "Warstwa t+AUIA-a" 1
Layer: 1 1 "Plan pierwszy" 0
XUID: [1021 783 23647091 10727182]
StyleMap: 0x0040
FSType: 0
OS2Version: 3
OS2_WeightWidthSlopeOnly: 0
OS2_UseTypoMetrics: 1
CreationTime: 1260698820
ModificationTime: 1621086379
PfmFamily: 17
TTFWeight: 400
TTFWidth: 5
LineGap: 300
VLineGap: 0
Panose: 2 14 5 2 5 5 3 6 2 4
OS2TypoAscent: 1990
OS2TypoAOffset: 0
OS2TypoDescent: -490
OS2TypoDOffset: 0
OS2TypoLinegap: 300
OS2WinAscent: 1990
OS2WinAOffset: 0
OS2WinDescent: 490
OS2WinDOffset: 0
HheadAscent: 1990
HheadAOffset: 0
HheadDescent: -490
HheadDOffset: 0
OS2SubXSize: 1434
OS2SubYSize: 1331
OS2SubXOff: 0
OS2SubYOff: 287
OS2SupXSize: 1434
OS2SupYSize: 1331
OS2SupXOff: 0
OS2SupYOff: 977
OS2StrikeYSize: 102
OS2StrikeYPos: 512
OS2CapHeight: 1510
OS2XHeight: 1100
OS2Vendor: '    '
OS2CodePages: 20000093.00000000
OS2UnicodeRanges: 8000002f.4000204b.00000000.00000000
Lookup: 258 0 0 "'kern' Horizontal Kerning lookup 0" { "'kern' Horizontal Kerning lookup 0-1 subtable" [307,0,6] } ['kern' ('DFLT' <'dflt' > 'grek' <'dflt' > 'latn' <'dflt' > ) ]
MarkAttachClasses: 1
DEI: 91125
KernClass2: 56 48 "'kern' Horizontal Kerning lookup 0-1 subtable"
 147 H I M N Igrave Iacute Icircumflex Idieresis Ntilde Hcircumflex Hbar Itilde Imacron Ibreve Iogonek Idotaccent Nacute Ncommaaccent Ncaron Eng uni1E40
 73 A Agrave Aacute Acircumflex Atilde Adieresis Aring Amacron Abreve Aogonek
 142 J U W Ugrave Uacute Ucircumflex Udieresis IJ Jcircumflex Utilde Umacron Ubreve Uring Uhungarumlaut Uogonek Wcircumflex Wgrave Wacute Wdieresis

StartChar: .notdef
Encoding: 65536 -1 0
Width: 894
Flags: W
HStem: 0 118<268 626> 1393 118<268 626>
VStem: 150 118<118 1393> 626 118<118 1393>
LayerCount: 2
Fore
SplineSet
150 0 m 1,0,-1
 150 1511 l 1,1,-1
 744 1511 l 1,2,-1
 744 0 l 1,3,-1
 150 0 l 1,0,-1
268 1393 m 1,4,-1
 268 118 l 1,5,-1
 626 118 l 1,6,-1
 626 1393 l 1,7,-1
 268 1393 l 1,4,-1
EndSplineSet
Validated: 19457
EndChar

StartChar: exclam
Encoding: 33 33 4
Width: 742
GlyphClass: 2
Flags: W
HStem: -20 255<265.795 476.205> 1491 20G<251 491>
VStem: 245 252<1.04248 213.958> 311 120<353 629.685>
LayerCount: 2
Fore
SplineSet
371 -20 m 152,-1,1
 245 -20 245 -20 245 107.5 c 128,-1,2
 245 235 245 235 371 235 c 128,-1,3
 497 235 497 235 497 107.5 c 128,-1,0
 497 -20 497 -20 371 -20 c 152,-1,1
251 1511 m 1,4,-1
 491 1511 l 1,5,-1
 431 353 l 1,6,-1
 311 353 l 1,7,-1
 251 1511 l 1,4,-1
EndSplineSet
Validated: 1
EndChar

StartChar: quotedbl
Encoding: 34 34 5
Width: 554
GlyphClass: 2
Flags: W
HStem: 1120 410<80 210 344 474>
VStem: 80 130<1120 1315.93> 344 130<1120 1315.93>
LayerCount: 2
Fore
SplineSet
314 1530 m 1,0,-1
 504 1530 l 1,1,-1
 474 1120 l 1,2,-1
 344 1120 l 1,3,-1
 314 1530 l 1,0,-1
50 1530 m 1,4,-1
 240 1530 l 1,5,-1
 210 1120 l 1,6,-1
 80 1120 l 1,7,-1
 50 1530 l 1,4,-1
EndSplineSet
Validated: 1
EndChar

StartChar: numbersign
Encoding: 35 35 6
Width: 1483
GlyphClass: 2
Flags: W
HStem: 516 150<150 490 640 844 994 1333> 870 150<150 490 640 844 994 1333>
VStem: 490 150<176 516 666 870 1020 1360> 844 150<176 516 666 870 1020 1360>
LayerCount: 2
Fore
SplineSet
490 176 m 1,0,-1
 490 516 l 1,1,-1
 150 516 l 1,2,-1
 150 666 l 1,3,-1
 490 666 l 1,4,-1
 490 870 l 1,5,-1
 150 870 l 1,6,-1
 150 1020 l 1,7,-1
 490 1020 l 1,8,-1
 490 1360 l 1,9,-1
 640 1360 l 1,10,-1
 640 1020 l 1,11,-1
 844 1020 l 1,12,-1
 844 1360 l 1,13,-1
 994 1360 l 1,14,-1
 994 1020 l 1,15,-1
 1333 1020 l 1,16,-1
 1333 870 l 1,17,-1
 994 870 l 1,18,-1
 994 666 l 1,19,-1
 1333 666 l 1,20,-1
 1333 516 l 1,21,-1
 994 516 l 1,22,-1
 994 176 l 1,23,-1
 844 176 l 1,24,-1
 844 516 l 1,25,-1
 640 516 l 1,26,-1
 640 176 l 1,27,-1
 490 176 l 1,0,-1
640 666 m 1,28,-1
 844 666 l 1,29,-1
 844 870 l 1,30,-1
 640 870 l 1,31,-1
 640 666 l 1,28,-1
EndSplineSet
Validated: 19457
EndChar

StartChar: dollar
Encoding: 36 36 7
Width: 1388
GlyphClass: 2
Flags: W
HStem: -20 125<488.202 644 744 870.554> 746 154<504.491 644 744 917.062> 1404 126<505.082 644 744 871.804>
VStem: 160 200<234.16 365> 200 200<989.04 1278.66> 644 100<-186 -19 107 744 900 1403 1529 1695> 988 200<1145 1285.52> 1028 200<292.842 644.984>
LayerCount: 2
Fore
SplineSet
585 -20 m 0,0,1
 160 -20 160 -20 160 365 c 1,2,-1
 360 420 l 1,3,4
 360 126 360 126 644 105 c 1,5,-1
 644 746 l 1,6,7
 200 763 200 763 200 1058 c 2,8,-1
 200 1061 l 2,9,10
 200 1463 200 1463 644 1521 c 1,11,-1
 644 1695 l 1,12,-1
 744 1695 l 1,13,-1
 744 1529 l 1,14,15
 773 1530 773 1530 803 1530 c 0,16,17
 1188 1530 1188 1530 1188 1145 c 1,18,-1
 988 1090 l 1,19,20
 988 1381 988 1381 744 1404 c 1,21,-1
 744 896 l 1,22,23
 1228 889 1228 889 1228 546 c 2,24,-1
 1228 544 l 2,25,26
 1228 55 1228 55 744 -10 c 1,27,-1
 744 -186 l 1,28,-1
 644 -186 l 1,29,-1
 644 -19 l 1,30,31
 615 -20 615 -20 585 -20 c 0,0,1
644 900 m 1,32,-1
 644 1403 l 1,33,34
 400 1378 400 1378 400 1130 c 2,35,-1
 400 1127 l 2,36,37
 400 927 400 927 644 900 c 1,32,-1
744 744 m 1,38,-1
 744 107 l 1,39,40
 1028 139 1028 139 1028 505 c 2,41,-1
 1028 507 l 2,42,43
 1028 729 1028 729 744 744 c 1,38,-1
EndSplineSet
Validated: 1
EndChar

StartChar: percent
Encoding: 37 37 8
Width: 1640
GlyphClass: 2
Flags: W
HStem: -20 110<1015.47 1269.61> 0 21G<378 563.272> 493 111<1048.45 1305.58> 906 110<338.47 592.606> 1419 111<371.451 628.578> 1490 20G<1066.75 1254>
VStem: 150 155<1051.37 1344.61> 658 155<1091.39 1385.21> 827 155<125.373 418.606> 1335 155<165.394 459.213>
DStem2: 378 0 554 0 0.420582 0.907255<74.0224 1663.52>
LayerCount: 2
Fore
SplineSet
1096 -20 m 0,0,1
 827 -20 827 -20 827 228 c 2,2,-1
 827 229 l 2,3,4
 827 604 827 604 1221 604 c 0,5,6
 1490 604 1490 604 1490 357 c 2,7,-1
 1490 355 l 2,8,9
 1490 -20 1490 -20 1096 -20 c 0,0,1
1153 90 m 0,10,11
 1335 90 1335 90 1335 361 c 2,12,-1
 1335 362 l 2,13,14
 1335 493 1335 493 1170 493 c 0,15,16
 982 493 982 493 982 224 c 2,17,-1
 982 223 l 2,18,19
 982 90 982 90 1153 90 c 0,10,11
544 1530 m 0,20,21
 813 1530 813 1530 813 1283 c 2,22,-1
 813 1281 l 2,23,24
 813 906 813 906 419 906 c 0,25,26
 150 906 150 906 150 1154 c 2,27,-1
 150 1155 l 2,28,29
 150 1530 150 1530 544 1530 c 0,20,21
493 1419 m 0,30,31
 305 1419 305 1419 305 1150 c 2,32,-1
 305 1149 l 2,33,34
 305 1016 305 1016 476 1016 c 0,35,36
 658 1016 658 1016 658 1287 c 2,37,-1
 658 1288 l 2,38,39
 658 1419 658 1419 493 1419 c 0,30,31
378 0 m 17,40,-1
 1076 1510 l 1,41,-1
 1254 1510 l 1,42,-1
 554 0 l 9,43,-1
 378 0 l 17,40,-1
EndSplineSet
Validated: 1
EndChar

StartChar: ampersand
Encoding: 38 38 9
Width: 1560
GlyphClass: 2
Flags: W
HStem: -20 124<492.425 893.164> 0 21G<1226.94 1460> 1394 136<538.034 863.665>
VStem: 160 200<234.16 574.771> 260 187<974.148 1285.41> 942 186<1231 1317.14> 1198 184<547.82 906>
DStem2: 780 898 665 763 0.603687 -0.797222<14.2572 580.404 802.008 994.808>
LayerCount: 2
Fore
SplineSet
1460 0 m 1,0,-1
 1242 0 l 1,1,-1
 1126 154 l 1,2,3
 928 -20 928 -20 585 -20 c 0,4,5
 160 -20 160 -20 160 365 c 2,6,-1
 160 372 l 2,7,8
 160 651 160 651 428 805 c 1,9,10
 260 905 260 905 260 1061 c 2,11,-1
 260 1063 l 2,12,13
 260 1530 260 1530 824 1530 c 0,14,15
 1127 1530 1127 1530 1128 1231 c 1,16,-1
 942 1178 l 1,17,18
 942 1394 942 1394 690 1394 c 0,19,20
 447 1394 447 1394 447 1116 c 2,21,-1
 447 1114 l 2,22,23
 447 898 447 898 702 898 c 2,24,-1
 780 898 l 1,25,-1
 1130 435 l 1,26,27
 1198 639 1198 639 1198 906 c 1,28,-1
 1382 942 l 1,29,30
 1382 532 1382 532 1235 297 c 1,31,-1
 1460 0 l 1,0,-1
1048 255 m 1,32,-1
 665 763 l 1,33,34
 360 745 360 745 360 427 c 2,35,-1
 360 420 l 2,36,37
 360 104 360 104 687 104 c 0,38,39
 933 104 933 104 1048 255 c 1,32,-1
EndSplineSet
Validated: 1
EndChar

StartChar: quotesingle
Encoding: 39 39 10
Width: 290
GlyphClass: 2
Flags: W
HStem: 1120 410<80 210>
VStem: 80 130<1120 1315.93>
LayerCount: 2
Fore
SplineSet
50 1530 m 1,0,-1
 240 1530 l 1,1,-1
 210 1120 l 1,2,-1
 80 1120 l 1,3,-1
 50 1530 l 1,0,-1
EndSplineSet
Validated: 1
EndChar

StartChar: parenleft
Encoding: 40 40 11
Width: 846
GlyphClass: 2
Flags: W
VStem: 250 200<418.974 1109.56>
LayerCount: 2
Fore
SplineSet
610 1797 m 1,0,-1
 746 1797 l 1,1,2
 612 1584 612 1584 539 1352 c 0,3,4
 450 1071 450 1071 450 765 c 128,-1,5
 450 459 450 459 539 178 c 0,6,7
 612 -54 612 -54 746 -267 c 1,8,-1
 610 -267 l 1,9,10
 499 -123 499 -123 380 160 c 0,11,12
 250 469 250 469 250 765 c 0,13,14
 250 1055 250 1055 380 1370 c 0,15,16
 495 1649 495 1649 610 1797 c 1,0,-1
EndSplineSet
Validated: 19457
EndChar

StartChar: parenright
Encoding: 41 41 12
Width: 846
GlyphClass: 2
Flags: W
VStem: 396 200<418.974 1109.56>
LayerCount: 2
Fore
SplineSet
236 1797 m 1,0,1
 351 1649 351 1649 466 1370 c 0,2,3
 596 1055 596 1055 596 765 c 0,4,5
 596 469 596 469 466 160 c 0,6,7
 347 -123 347 -123 236 -267 c 1,8,-1
 100 -267 l 1,9,10
 234 -54 234 -54 307 178 c 0,11,12
 396 459 396 459 396 765 c 128,-1,13
 396 1071 396 1071 307 1352 c 0,14,15
 234 1584 234 1584 100 1797 c 1,16,-1
 236 1797 l 1,0,1
EndSplineSet
Validated: 19457
EndChar

StartChar: asterisk
Encoding: 42 42 13
Width: 1139
GlyphClass: 2
Flags: W
HStem: 1491 20G<495 645>
VStem: 495 150<678 990 1235 1511>
DStem2: 225 1373 150 1257 0.881617 -0.471965<0 303.168 551.042 861.823> 150 964 225 834 0.881617 0.471965<4.76581 316.429>
LayerCount: 2
Fore
SplineSet
495 678 m 1,0,-1
 495 990 l 1,1,-1
 225 834 l 1,2,-1
 150 964 l 1,3,-1
 432 1114 l 1,4,-1
 150 1257 l 1,5,-1
 225 1373 l 1,6,-1
 495 1235 l 1,7,-1
 495 1511 l 1,8,-1
 645 1511 l 1,9,-1
 645 1235 l 1,10,-1
 914 1373 l 1,11,-1
 989 1257 l 1,12,-1
 706 1114 l 1,13,-1
 989 964 l 1,14,-1
 914 834 l 1,15,-1
 645 990 l 1,16,-1
 645 678 l 1,17,-1
 495 678 l 1,0,-1
EndSplineSet
Validated: 1
EndChar

StartChar: plus
Encoding: 43 43 14
Width: 1183
GlyphClass: 2
Flags: W
HStem: 693 150<150 516 666 1033>
VStem: 516 150<326 693 843 1185>
LayerCount: 2
Fore
SplineSet
516 326 m 1,0,-1
 516 693 l 1,1,-1
 150 693 l 1,2,-1
 150 843 l 1,3,-1
 516 843 l 1,4,-1
 516 1185 l 1,5,-1
 666 1185 l 1,6,-1
 666 843 l 1,7,-1
 1033 843 l 1,8,-1
 1033 693 l 1,9,-1
 666 693 l 1,10,-1
 666 326 l 1,11,-1
 516 326 l 1,0,-1
EndSplineSet
Validated: 19457
EndChar

StartChar: comma
Encoding: 44 44 15
Width: 380
GlyphClass: 2
Flags: W
HStem: -266 556
VStem: 175 155<-101.553 101.14>
LayerCount: 2
Fore
SplineSet
184 290 m 17,0,1
 330 186 330 186 330 24.5 c 128,-1,2
 330 -137 330 -137 113 -266 c 9,3,-1
 50 -165 l 17,4,5
 175 -90 175 -90 175 -1 c 0,6,7
 175 90 175 90 58 156 c 1,8,-1
 184 290 l 17,0,1
EndSplineSet
Validated: 1
EndChar

StartChar: hyphen
Encoding: 45 45 16
Width: 1183
GlyphClass: 2
Flags: W
HStem: 693 150<150 1033>
LayerCount: 2
Fore
SplineSet
1033 693 m 1,0,-1
 150 693 l 1,1,-1
 150 843 l 1,2,-1
 1033 843 l 1,3,-1
 1033 693 l 1,0,-1
EndSplineSet
Validated: 19457
EndChar

StartChar: period
Encoding: 46 46 17
Width: 352
GlyphClass: 2
Flags: W
HStem: -20 255<70.7949 281.205>
VStem: 50 252<1.04248 213.958>
LayerCount: 2
Fore
SplineSet
176 -20 m 152,-1,1
 50 -20 50 -20 50 107.5 c 128,-1,2
 50 235 50 235 176 235 c 128,-1,3
 302 235 302 235 302 107.5 c 128,-1,0
 302 -20 302 -20 176 -20 c 152,-1,1
EndSplineSet
Validated: 1
EndChar

StartChar: slash
Encoding: 47 47 18
Width: 1016
GlyphClass: 2
Flags: W
DStem2: 10 -132 155 -200 0.420342 0.907366<0 2023.79>
LayerCount: 2
Fore
SplineSet
860 1705 m 1,0,-1
 1006 1637 l 1,1,-1
 155 -200 l 1,2,-1
 10 -132 l 1,3,-1
 860 1705 l 1,0,-1
EndSplineSet
Validated: 1
EndChar

StartChar: zero
Encoding: 48 48 19
Width: 1388
GlyphClass: 2
Flags: W
HStem: -20 124<483.573 852.722> 1406 124<535.278 904.427>
VStem: 160 210<205.953 1187.44> 1018 210<322.562 1304.05>
LayerCount: 2
Fore
SplineSet
370 921 m 2,0,-1
 370 365 l 2,1,2
 370 104 370 104 687 104 c 0,3,4
 1018 104 1018 104 1018 589 c 2,5,-1
 1018 1145 l 2,6,7
 1018 1406 1018 1406 701 1406 c 0,8,9
 370 1406 370 1406 370 921 c 2,0,-1
160 921 m 18,10,11
 160 1530 160 1530 803 1530 c 0,12,13
 1228 1530 1228 1530 1228 1145 c 10,14,-1
 1228 589 l 2,15,16
 1228 -20 1228 -20 585 -20 c 0,17,18
 160 -20 160 -20 160 365 c 2,19,-1
 160 921 l 18,10,11
EndSplineSet
Validated: 1
EndChar

StartChar: one
Encoding: 49 49 20
Width: 755
GlyphClass: 2
Flags: W
HStem: 0 21G<305 505> 1378 132<113.711 292.602>
VStem: 305 200<0 1375.56>
LayerCount: 2
Fore
SplineSet
305 0 m 1,0,-1
 305 1210 l 2,1,2
 305 1300 305 1300 281 1378 c 1,3,4
 192 1378 192 1378 70 1313 c 1,5,-1
 70 1460 l 1,6,7
 208 1510 208 1510 370 1510 c 2,8,9
 455 1510 l 1,10,11
 505 1411 505 1411 505 1210 c 2,12,-1
 505 0 l 1,13,-1
 305 0 l 1,0,-1
EndSplineSet
Validated: 1
EndChar

StartChar: two
Encoding: 50 50 21
Width: 1188
GlyphClass: 2
Flags: W
HStem: 0 127<293 991.095> 654 128<444.319 709.195> 1403 127<293.585 766.86>
VStem: 858 210<926.703 1316.64>
LayerCount: 2
Fore
SplineSet
80 0 m 5,0,1
 80 782 80 782 506 782 c 0,2,3
 858 782 858 782 858 1118 c 2,4,-1
 858 1185 l 2,5,6
 858 1403 858 1403 563 1403 c 2,7,-1
 532 1403 l 2,8,9
 380 1403 380 1403 232 1333 c 1,10,-1
 232 1480 l 1,11,12
 384 1530 384 1530 532 1530 c 2,13,-1
 645 1530 l 2,14,15
 1068 1530 1068 1530 1068 1194 c 2,16,-1
 1068 1175 l 2,17,18
 1068 654 1068 654 564 654 c 0,19,20
 321 654 321 654 293 127 c 1,21,-1
 751 127 l 2,22,23
 907 127 907 127 1051 197 c 9,24,-1
 1051 50 l 17,25,26
 930 0 930 0 751 0 c 2,27,-1
 80 0 l 5,0,1
EndSplineSet
Validated: 1
EndChar

StartChar: three
Encoding: 51 51 22
Width: 1288
GlyphClass: 2
Flags: W
HStem: -20 124<415.472 787.447> 765 127<353 655.859> 1403 127<348.29 791.821>
VStem: 80 210<234.16 365> 850 199<1046.61 1349.78> 938 210<297.25 672.139>
LayerCount: 2
Fore
SplineSet
505 -20 m 0,0,1
 80 -20 80 -20 80 365 c 1,2,-1
 290 420 l 1,3,4
 290 104 290 104 607 104 c 0,5,6
 938 104 938 104 938 505 c 2,7,-1
 938 529 l 2,8,9
 938 765 938 765 621 765 c 2,10,-1
 353 765 l 1,11,-1
 353 892 l 1,12,13
 850 892 850 892 850 1191 c 2,14,-1
 850 1241 l 2,15,16
 850 1403 850 1403 619 1403 c 2,17,-1
 588 1403 l 2,18,19
 436 1403 436 1403 288 1333 c 1,20,-1
 288 1480 l 1,21,22
 447 1530 447 1530 588 1530 c 2,23,-1
 644 1530 l 2,24,25
 1049 1530 1049 1530 1049 1257 c 2,26,-1
 1049 1234 l 2,27,28
 1049 979 1049 979 805 880 c 1,29,30
 1148 829 1148 829 1148 568 c 2,31,-1
 1148 544 l 2,32,33
 1148 -20 1148 -20 505 -20 c 0,0,1
EndSplineSet
Validated: 1
EndChar

StartChar: four
Encoding: 52 52 23
Width: 1281
GlyphClass: 2
Flags: W
HStem: 0 21G<901 1101> 443 127<380 901> 1490 20G<180 380>
VStem: 180 200<570 1510> 901 200<0 443 570 1210>
LayerCount: 2
Fore
SplineSet
1101 0 m 25,0,-1
 901 0 l 25,1,-1
 901 443 l 1,2,-1
 180 443 l 1,3,-1
 180 1510 l 25,4,-1
 380 1510 l 25,5,-1
 380 570 l 1,6,-1
 901 570 l 1,7,-1
 901 1210 l 1,8,-1
 1101 1210 l 1,9,-1
 1101 0 l 25,0,-1
EndSplineSet
Validated: 1
EndChar

StartChar: five
Encoding: 53 53 24
Width: 1268
GlyphClass: 2
Flags: W
HStem: -20 124<415.472 787.447> 765 127<446 828.219> 1382 128<478 1040>
VStem: 80 210<234.16 365> 938 210<297.25 669.804>
DStem2: 250 765 446 892 0.0642962 0.997931<139.339 630.383>
LayerCount: 2
Fore
SplineSet
505 -20 m 0,0,1
 80 -20 80 -20 80 365 c 1,2,-1
 290 420 l 1,3,4
 290 104 290 104 607 104 c 0,5,6
 938 104 938 104 938 505 c 2,7,-1
 938 529 l 2,8,9
 938 765 938 765 621 765 c 2,10,-1
 250 765 l 1,11,-1
 298 1510 l 1,12,-1
 1040 1510 l 1,13,-1
 1040 1382 l 1,14,-1
 478 1382 l 1,15,-1
 446 892 l 1,16,-1
 715 892 l 2,17,18
 1148 892 1148 892 1148 568 c 2,19,-1
 1148 544 l 2,20,21
 1148 -20 1148 -20 505 -20 c 0,0,1
EndSplineSet
Validated: 1
EndChar

StartChar: six
Encoding: 54 54 25
Width: 1388
GlyphClass: 2
Flags: W
HStem: -20 124<492.425 867.447> 765 124<500.318 914.35> 1406 124<532.75 891.804>
VStem: 160 200<234.16 626.285 794 1187.44> 1018 210<297.25 668.861 1145 1275.84>
LayerCount: 2
Fore
SplineSet
585 -20 m 0,0,1
 160 -20 160 -20 160 365 c 2,2,-1
 160 921 l 2,3,4
 160 1530 160 1530 803 1530 c 0,5,6
 1221 1530 1221 1530 1221 1145 c 1,7,-1
 1018 1090 l 1,8,9
 1018 1406 1018 1406 701 1406 c 0,10,11
 360 1406 360 1406 360 921 c 2,12,-1
 360 794 l 1,13,14
 510 889 510 889 774 889 c 0,15,16
 1228 889 1228 889 1228 568 c 2,17,-1
 1228 544 l 2,18,19
 1228 -20 1228 -20 585 -20 c 0,0,1
687 104 m 0,20,21
 1018 104 1018 104 1018 505 c 2,22,-1
 1018 529 l 2,23,24
 1018 765 1018 765 701 765 c 0,25,26
 360 765 360 765 360 427 c 2,27,-1
 360 420 l 2,28,29
 360 104 360 104 687 104 c 0,20,21
EndSplineSet
Validated: 1
EndChar

StartChar: seven
Encoding: 55 55 26
Width: 1029
GlyphClass: 2
Flags: W
HStem: 0 21G<128 366.429> 1383 127<77.0527 798>
DStem2: 128 0 357 0 0.435986 0.899953<99.8408 1536.75>
LayerCount: 2
Fore
SplineSet
128 0 m 1,0,-1
 798 1383 l 1,1,-1
 320 1383 l 2,2,3
 152 1383 152 1383 20 1313 c 9,4,-1
 20 1460 l 17,5,6
 158 1510 158 1510 320 1510 c 2,7,-1
 1009 1510 l 1,8,-1
 1009 1383 l 1,9,-1
 357 0 l 1,10,-1
 128 0 l 1,0,-1
EndSplineSet
Validated: 1
EndChar

StartChar: eight
Encoding: 56 56 27
Width: 1388
GlyphClass: 2
Flags: W
HStem: -20 124<495.472 867.447> 765 133<533.641 839.688> 1394 136<547.443 854.326>
VStem: 160 210<234.16 590.389> 260 197<971.933 1285.41> 928 200<1016.43 1317.14> 1018 210<297.25 668.878>
LayerCount: 2
Fore
SplineSet
687 104 m 0,0,1
 1018 104 1018 104 1018 505 c 2,2,-1
 1018 529 l 2,3,4
 1018 765 1018 765 701 765 c 0,5,6
 370 765 370 765 370 427 c 2,7,-1
 370 420 l 2,8,9
 370 104 370 104 687 104 c 0,0,1
690 1394 m 0,10,11
 457 1394 457 1394 457 1116 c 2,12,-1
 457 1114 l 2,13,14
 457 898 457 898 698 898 c 0,15,16
 928 898 928 898 928 1173 c 2,17,-1
 928 1175 l 2,18,19
 928 1394 928 1394 690 1394 c 0,10,11
585 -20 m 0,20,21
 160 -20 160 -20 160 365 c 2,22,-1
 160 372 l 2,23,24
 160 687 160 687 428 805 c 1,25,26
 260 879 260 879 260 1061 c 2,27,-1
 260 1063 l 2,28,29
 260 1530 260 1530 824 1530 c 0,30,31
 1128 1530 1128 1530 1128 1231 c 2,32,-1
 1128 1229 l 2,33,34
 1128 952 1128 952 924 869 c 1,35,36
 1228 821 1228 821 1228 568 c 2,37,-1
 1228 544 l 2,38,39
 1228 -20 1228 -20 585 -20 c 0,20,21
EndSplineSet
Validated: 1
EndChar

StartChar: nine
Encoding: 57 57 28
Width: 1388
GlyphClass: 2
Flags: W
HStem: -20 124<496.196 855.25> 621 124<473.65 887.682> 1406 124<520.553 895.575>
VStem: 160 210<234.16 365 841.139 1212.75> 1028 200<322.562 716 883.715 1275.84>
LayerCount: 2
Fore
SplineSet
585 -20 m 0,0,1
 167 -20 167 -20 167 365 c 1,2,-1
 370 420 l 1,3,4
 370 104 370 104 687 104 c 0,5,6
 1028 104 1028 104 1028 589 c 2,7,-1
 1028 716 l 1,8,9
 878 621 878 621 614 621 c 0,10,11
 160 621 160 621 160 942 c 2,12,-1
 160 966 l 2,13,14
 160 1530 160 1530 803 1530 c 0,15,16
 1228 1530 1228 1530 1228 1145 c 2,17,-1
 1228 589 l 2,18,19
 1228 -20 1228 -20 585 -20 c 0,0,1
687 745 m 0,20,21
 1028 745 1028 745 1028 1083 c 2,22,-1
 1028 1090 l 2,23,24
 1028 1406 1028 1406 701 1406 c 0,25,26
 370 1406 370 1406 370 1005 c 2,27,-1
 370 981 l 2,28,29
 370 745 370 745 687 745 c 0,20,21
EndSplineSet
Validated: 1
EndChar

StartChar: colon
Encoding: 58 58 29
Width: 352
GlyphClass: 2
Flags: W
HStem: -20 255<70.7949 281.205> 636 255<70.7949 281.205>
VStem: 50 252<1.04248 213.958 657.042 869.958>
LayerCount: 2
Fore
SplineSet
176 -20 m 152,-1,1
 50 -20 50 -20 50 107.5 c 128,-1,2
 50 235 50 235 176 235 c 128,-1,3
 302 235 302 235 302 107.5 c 128,-1,0
 302 -20 302 -20 176 -20 c 152,-1,1
176 636 m 152,-1,5
 50 636 50 636 50 763.5 c 128,-1,6
 50 891 50 891 176 891 c 128,-1,7
 302 891 302 891 302 763.5 c 128,-1,4
 302 636 302 636 176 636 c 152,-1,5
EndSplineSet
Validated: 1
EndChar

StartChar: semicolon
Encoding: 59 59 30
Width: 410
GlyphClass: 2
Flags: W
HStem: 636 255<103.795 314.205>
VStem: 83 252<657.042 869.958> 175 155<-101.553 101.14>
LayerCount: 2
Fore
SplineSet
184 290 m 17,0,1
 330 186 330 186 330 24.5 c 128,-1,2
 330 -137 330 -137 113 -266 c 9,3,-1
 50 -165 l 17,4,5
 175 -90 175 -90 175 -1 c 0,6,7
 175 90 175 90 58 156 c 1,8,-1
 184 290 l 17,0,1
209 636 m 152,-1,10
 83 636 83 636 83 763.5 c 128,-1,11
 83 891 83 891 209 891 c 128,-1,12
 335 891 335 891 335 763.5 c 128,-1,9
 335 636 335 636 209 636 c 152,-1,10
EndSplineSet
Validated: 1
EndChar

StartChar: less
Encoding: 60 60 31
Width: 1206
GlyphClass: 2
Flags: W
HStem: 149 220<786 1006> 1216 175<831 1006>
DStem2: 150 865 324 798 0.852 0.523542<113.171 913.075> 324 798 150 676 0.851556 -0.524264<0 805.67>
LayerCount: 2
Fore
SplineSet
150 676 m 1,0,-1
 150 865 l 1,1,-1
 1006 1391 l 1,2,-1
 1006 1216 l 1,3,-1
 324 798 l 1,4,-1
 1006 369 l 1,5,-1
 1006 149 l 1,6,-1
 150 676 l 1,0,-1
EndSplineSet
Validated: 19457
EndChar

StartChar: equal
Encoding: 61 61 32
Width: 1183
GlyphClass: 2
Flags: W
HStem: 531 150<150 1033> 859 150<150 1033>
LayerCount: 2
Fore
SplineSet
1033 859 m 1,0,-1
 150 859 l 1,1,-1
 150 1009 l 1,2,-1
 1033 1009 l 1,3,-1
 1033 859 l 1,0,-1
1033 531 m 1,4,-1
 150 531 l 1,5,-1
 150 681 l 1,6,-1
 1033 681 l 1,7,-1
 1033 531 l 1,4,-1
EndSplineSet
Validated: 1
EndChar

StartChar: greater
Encoding: 62 62 33
Width: 1206
GlyphClass: 2
Flags: W
HStem: 150 175<200 375> 1172 220<200 420>
DStem2: 200 1392 200 1172 0.851556 -0.524264<115.338 921.008> 200 325 200 150 0.852 0.523542<0 799.904>
LayerCount: 2
Fore
SplineSet
1056 865 m 1,0,-1
 1056 676 l 1,1,-1
 200 150 l 1,2,-1
 200 325 l 1,3,-1
 882 743 l 1,4,-1
 200 1172 l 1,5,-1
 200 1392 l 1,6,-1
 1056 865 l 1,0,-1
EndSplineSet
Validated: 19457
EndChar

StartChar: question
Encoding: 63 63 34
Width: 1388
GlyphClass: 2
Flags: W
HStem: -20 255<534.795 745.205> 574 128<773.742 907.697> 1406 124<524.068 913.423>
VStem: 160 210<976 1187.44> 514 252<1.04248 213.958> 544 200<345 551.637> 1028 200<854.811 1295.01>
LayerCount: 2
Fore
SplineSet
160 921 m 17,0,1
 160 1530 160 1530 803 1530 c 0,2,3
 1228 1530 1228 1530 1228 1145 c 10,4,-1
 1228 1142 l 2,5,6
 1228 574 1228 574 838 574 c 0,7,8
 744 574 744 574 744 345 c 9,9,-1
 544 276 l 17,10,11
 544 702 544 702 780 702 c 0,12,13
 1028 702 1028 702 1028 1142 c 2,14,-1
 1028 1145 l 2,15,16
 1028 1406 1028 1406 701 1406 c 0,17,18
 370 1406 370 1406 370 976 c 9,19,-1
 160 921 l 17,0,1
640 -20 m 152,-1,21
 514 -20 514 -20 514 107.5 c 128,-1,22
 514 235 514 235 640 235 c 128,-1,23
 766 235 766 235 766 107.5 c 128,-1,20
 766 -20 766 -20 640 -20 c 152,-1,21
EndSplineSet
Validated: 1
EndChar

StartChar: at
Encoding: 64 64 35
Width: 1458
GlyphClass: 2
Flags: W
HStem: -430 107<459.571 867.924> -20 130<679.566 879.668> 0 21G<1106 1322> 576 114<833.881 1068> 993 127<595.459 1005.05>
VStem: 180 179<-225.063 749.517> 481 180<128.535 431.547> 946 181<-257.076 -157> 1083 175<47.9692 294 690 910.697>
LayerCount: 2
Fore
SplineSet
1068 576 m 1,0,1
 661 576 661 576 661 256 c 2,2,-1
 661 241 l 2,3,4
 661 110 661 110 760 110 c 0,5,6
 911 110 911 110 1001 336 c 0,7,8
 1049 455 1049 455 1068 576 c 1,0,1
1322 0 m 1,9,-1
 1129 0 l 1,10,11
 1083 122 1083 122 1083 294 c 1,12,13
 1004 -20 1004 -20 708 -20 c 0,14,15
 481 -20 481 -20 481 205 c 2,16,-1
 481 213 l 2,17,18
 481 690 481 690 1083 690 c 1,19,-1
 1083 758 l 2,20,21
 1083 993 1083 993 837 993 c 0,22,23
 359 993 359 993 359 513 c 2,24,-1
 359 -51 l 2,25,26
 359 -323 359 -323 630 -323 c 0,27,28
 946 -323 946 -323 946 -157 c 1,29,-1
 1127 -135 l 1,30,31
 1127 -430 1127 -430 595 -430 c 0,32,33
 180 -430 180 -430 180 -50 c 2,34,-1
 180 513 l 2,35,36
 180 1120 180 1120 889 1120 c 0,37,38
 1258 1120 1258 1120 1258 826 c 2,39,-1
 1258 294 l 2,40,41
 1258 138 1258 138 1322 0 c 1,9,-1
EndSplineSet
Validated: 1
EndChar

StartChar: B
Encoding: 66 66 36
Width: 1336
GlyphClass: 2
Flags: W
HStem: 0 127<400 834.312> 765 127<401 703.859> 1383 127<386 839.821>
VStem: 200 200<127 765 892 1379.02> 898 199<1060.19 1329.78> 986 210<317.25 670.895>
LayerCount: 2
Fore
SplineSet
401 765 m 1,0,-1
 400 127 l 1,1,-1
 655 127 l 2,2,3
 986 127 986 127 986 525 c 2,4,-1
 986 527 l 2,5,6
 986 765 986 765 669 765 c 2,7,-1
 401 765 l 1,0,-1
200 0 m 1,8,-1
 200 1210 l 2,9,10
 200 1370 200 1370 130 1510 c 1,11,-1
 692 1510 l 2,12,13
 1097 1510 1097 1510 1097 1237 c 2,14,-1
 1097 1234 l 2,15,16
 1097 981 1097 981 803 880 c 1,17,18
 1196 850 1196 850 1196 566 c 2,19,-1
 1196 564 l 2,20,21
 1196 0 1196 0 553 0 c 2,22,-1
 200 0 l 1,8,-1
386 1383 m 1,23,24
 399 1370 399 1370 400 1210 c 2,25,-1
 401 892 l 1,26,27
 898 892 898 892 898 1191 c 2,28,-1
 898 1221 l 2,29,30
 898 1383 898 1383 667 1383 c 2,31,-1
 386 1383 l 1,23,24
EndSplineSet
Validated: 1
EndChar

StartChar: C
Encoding: 67 67 37
Width: 1388
GlyphClass: 2
Flags: W
HStem: -20 124<483.573 851.417> 1406 124<535.278 892.528>
VStem: 160 210<205.953 1187.44> 1013 212<308.3 472 1145 1285.52>
LayerCount: 2
Fore
SplineSet
585 -20 m 0,0,1
 160 -20 160 -20 160 365 c 2,2,-1
 160 921 l 2,3,4
 160 1530 160 1530 803 1530 c 0,5,6
 1228 1530 1228 1530 1228 1145 c 1,7,-1
 1018 1090 l 1,8,9
 1018 1406 1018 1406 701 1406 c 0,10,11
 370 1406 370 1406 370 921 c 2,12,-1
 370 365 l 2,13,14
 370 104 370 104 687 104 c 0,15,16
 975 104 975 104 1013 472 c 1,17,-1
 1225 497 l 1,18,19
 1178 -20 1178 -20 585 -20 c 0,0,1
EndSplineSet
Validated: 1
EndChar

StartChar: D
Encoding: 68 68 38
Width: 1388
GlyphClass: 2
Flags: W
HStem: 0 127<400 851.671> 1383 127<386 902.609>
VStem: 200 200<127 1379.02> 1018 210<342.562 1275.01>
LayerCount: 2
Fore
SplineSet
386 1383 m 1,0,1
 400 1314 400 1314 400 1210 c 2,2,-1
 400 127 l 1,3,-1
 688 127 l 2,4,5
 1018 127 1018 127 1018 609 c 2,6,-1
 1018 1125 l 2,7,8
 1018 1383 1018 1383 700 1383 c 2,9,-1
 386 1383 l 1,0,1
200 0 m 1,10,-1
 200 1210 l 2,11,12
 200 1370 200 1370 130 1510 c 1,13,-1
 803 1510 l 2,14,15
 1228 1510 1228 1510 1228 1125 c 10,16,-1
 1228 609 l 2,17,18
 1228 0 1228 0 586 0 c 2,19,-1
 200 0 l 1,10,-1
EndSplineSet
Validated: 1
EndChar

StartChar: E
Encoding: 69 69 39
Width: 1111
GlyphClass: 2
Flags: W
HStem: 0 127<400 979.451> 698 127<400 882> 1383 127<386 882>
VStem: 200 200<127 698 825 1379.02>
LayerCount: 2
Fore
SplineSet
200 0 m 5,0,-1
 200 1210 l 2,1,2
 200 1370 200 1370 130 1510 c 1,3,-1
 882 1510 l 17,4,-1
 882 1383 l 9,5,-1
 386 1383 l 1,6,7
 400 1305 400 1305 400 1210 c 2,8,-1
 400 825 l 1,9,-1
 882 825 l 25,10,-1
 882 698 l 25,11,-1
 400 698 l 1,12,-1
 400 127 l 1,13,-1
 731 127 l 2,14,15
 913 127 913 127 1031 197 c 1,16,-1
 1031 50 l 1,17,18
 910 0 910 0 731 0 c 2,19,-1
 200 0 l 5,0,-1
EndSplineSet
Validated: 1
EndChar

StartChar: F
Encoding: 70 70 40
Width: 1002
GlyphClass: 2
Flags: W
HStem: 0 21G<200 400> 698 127<400 882> 1383 127<386 882>
VStem: 200 200<0 698 825 1379.02>
LayerCount: 2
Fore
SplineSet
200 0 m 21,0,-1
 200 1210 l 2,1,2
 200 1370 200 1370 130 1510 c 1,3,-1
 882 1510 l 17,4,-1
 882 1383 l 9,5,-1
 386 1383 l 1,6,7
 400 1305 400 1305 400 1210 c 2,8,-1
 400 825 l 1,9,-1
 882 825 l 25,10,-1
 882 698 l 25,11,-1
 400 698 l 1,12,-1
 400 0 l 9,13,-1
 200 0 l 21,0,-1
EndSplineSet
Validated: 1
EndChar

StartChar: G
Encoding: 71 71 41
Width: 1388
GlyphClass: 2
Flags: W
HStem: -20 124<483.573 852.722> 635 127<727.549 1018> 1406 124<535.278 892.528>
VStem: 160 210<205.953 1187.44> 1018 210<322.562 635 1145 1275.84>
LayerCount: 2
Fore
SplineSet
585 -20 m 0,0,1
 160 -20 160 -20 160 365 c 2,2,-1
 160 921 l 2,3,4
 160 1530 160 1530 803 1530 c 0,5,6
 1228 1530 1228 1530 1228 1145 c 1,7,-1
 1018 1090 l 1,8,9
 1018 1406 1018 1406 701 1406 c 0,10,11
 370 1406 370 1406 370 921 c 2,12,-1
 370 365 l 2,13,14
 370 104 370 104 687 104 c 0,15,16
 1018 104 1018 104 1018 589 c 2,17,-1
 1018 635 l 1,18,-1
 976 635 l 2,19,20
 794 635 794 635 676 565 c 1,21,-1
 676 712 l 1,22,23
 797 762 797 762 976 762 c 2,24,-1
 1228 762 l 1,25,-1
 1228 589 l 2,26,27
 1228 -20 1228 -20 585 -20 c 0,0,1
EndSplineSet
Validated: 1
EndChar

StartChar: H
Encoding: 72 72 42
Width: 1406
GlyphClass: 2
Flags: W
HStem: 0 21G<200 400 1031 1276> 696 127<400 1006> 1490 20G<130 375 1006 1206>
VStem: 200 200<0 696 823 1457.99> 1006 200<52.0093 696 823 1510>
LayerCount: 2
Fore
SplineSet
200 0 m 1,0,-1
 200 1210 l 2,1,2
 200 1392 200 1392 130 1510 c 1,3,-1
 350 1510 l 1,4,5
 400 1411 400 1411 400 1210 c 2,6,-1
 400 823 l 1,7,-1
 1006 823 l 1,8,-1
 1006 1510 l 1,9,-1
 1206 1510 l 1,10,-1
 1206 300 l 2,11,12
 1206 118 1206 118 1276 0 c 1,13,-1
 1056 0 l 1,14,15
 1006 99 1006 99 1006 300 c 2,16,-1
 1006 696 l 1,17,-1
 400 696 l 1,18,-1
 400 0 l 1,19,-1
 200 0 l 1,0,-1
EndSplineSet
Validated: 1
EndChar

StartChar: I
Encoding: 73 73 43
Width: 600
GlyphClass: 2
Flags: W
HStem: 0 21G<200 400> 1490 20G<130 375>
VStem: 200 200<0 1457.99>
LayerCount: 2
Fore
SplineSet
200 0 m 25,0,-1
 200 1210 l 2,1,2
 200 1392 200 1392 130 1510 c 9,3,-1
 350 1510 l 17,4,5
 400 1411 400 1411 400 1210 c 2,6,-1
 400 0 l 25,7,8
 200 0 l 25,0,-1
EndSplineSet
Validated: 19457
EndChar

StartChar: J
Encoding: 74 74 44
Width: 1088
GlyphClass: 2
Flags: W
HStem: -20 124<294.092 572.958> 1383 127<299.585 688>
VStem: 20 210<169.868 279> 688 200<252.438 1383>
LayerCount: 2
Fore
SplineSet
324 -20 m 0,0,1
 20 -20 20 -20 20 279 c 1,2,-1
 230 334 l 1,3,4
 230 104 230 104 426 104 c 0,5,6
 688 104 688 104 688 484 c 2,7,-1
 688 1383 l 1,8,-1
 538 1383 l 2,9,10
 390 1383 390 1383 238 1313 c 1,11,-1
 238 1460 l 1,12,13
 351 1510 351 1510 538 1510 c 2,14,-1
 888 1510 l 1,15,-1
 888 501 l 2,16,17
 888 -20 888 -20 324 -20 c 0,0,1
EndSplineSet
Validated: 1
EndChar

StartChar: K
Encoding: 75 75 45
Width: 1317
GlyphClass: 2
Flags: W
HStem: 0 21G<200 400 932 1187> 696 127<400 781.746> 1490 20G<130 375 890 1100>
VStem: 200 200<0 696 823 1456.83> 890 210<1027.63 1510> 907 210<53.168 546.781>
LayerCount: 2
Fore
SplineSet
200 0 m 1,0,-1
 200 1210 l 2,1,2
 200 1392 200 1392 130 1510 c 9,3,-1
 350 1510 l 17,4,5
 400 1384 400 1384 400 1210 c 2,6,-1
 400 823 l 1,7,-1
 642 823 l 2,8,9
 890 823 890 823 890 1194 c 2,10,-1
 890 1510 l 25,11,-1
 1100 1510 l 25,12,-1
 1100 1305 l 2,13,14
 1100 910 1100 910 844 779 c 1,15,16
 1117 649 1117 649 1117 314 c 2,17,-1
 1117 300 l 2,18,19
 1117 126 1117 126 1187 0 c 1,20,-1
 957 0 l 1,21,22
 907 110 907 110 907 300 c 2,23,-1
 907 314 l 2,24,25
 907 696 907 696 642 696 c 2,26,-1
 400 696 l 1,27,-1
 400 0 l 1,28,-1
 200 0 l 1,0,-1
EndSplineSet
Validated: 1
EndChar

StartChar: L
Encoding: 76 76 46
Width: 1041
GlyphClass: 2
Flags: W
HStem: 0 127<400 979.451> 1490 20G<130 375>
VStem: 200 200<127 1457.99>
LayerCount: 2
Fore
SplineSet
200 0 m 1,0,-1
 200 1210 l 2,1,2
 200 1392 200 1392 130 1510 c 1,3,-1
 350 1510 l 1,4,5
 400 1411 400 1411 400 1210 c 2,6,-1
 400 127 l 1,7,-1
 731 127 l 2,8,9
 913 127 913 127 1031 197 c 1,10,-1
 1031 50 l 1,11,12
 910 0 910 0 731 0 c 2,13,-1
 200 0 l 1,0,-1
EndSplineSet
Validated: 1
EndChar

StartChar: O
Encoding: 79 79 47
Width: 1388
GlyphClass: 2
Flags: W
HStem: -20 124<483.573 852.722> 1406 124<535.278 904.427>
VStem: 160 210<205.953 1187.44> 1018 210<322.562 1304.05>
LayerCount: 2
Fore
SplineSet
687 104 m 0,0,1
 1018 104 1018 104 1018 589 c 2,2,-1
 1018 1145 l 2,3,4
 1018 1406 1018 1406 701 1406 c 0,5,6
 370 1406 370 1406 370 921 c 2,7,-1
 370 365 l 2,8,9
 370 104 370 104 687 104 c 0,0,1
585 -20 m 0,10,11
 160 -20 160 -20 160 365 c 2,12,-1
 160 921 l 18,13,14
 160 1530 160 1530 803 1530 c 0,15,16
 1228 1530 1228 1530 1228 1145 c 10,17,-1
 1228 589 l 2,18,19
 1228 -20 1228 -20 585 -20 c 0,10,11
EndSplineSet
Validated: 1
EndChar

StartChar: P
Encoding: 80 80 48
Width: 1274
GlyphClass: 2
Flags: W
HStem: 0 21G<200 400> 508 127<400 777.671> 1383 127<388 828.609>
VStem: 200 200<0 508 635 1379.85> 944 210<850.562 1275.01>
LayerCount: 2
Fore
SplineSet
200 0 m 1,0,-1
 200 1210 l 2,1,2
 200 1357 200 1357 130 1510 c 1,3,-1
 729 1510 l 2,4,5
 1154 1510 1154 1510 1154 1125 c 2,6,-1
 1154 1117 l 2,7,8
 1154 508 1154 508 512 508 c 2,9,-1
 400 508 l 1,10,-1
 400 0 l 1,11,-1
 200 0 l 1,0,-1
388 1383 m 1,12,13
 400 1282 400 1282 400 1212 c 10,14,-1
 400 635 l 17,15,-1
 614 635 l 2,16,17
 944 635 944 635 944 1117 c 2,18,-1
 944 1125 l 2,19,20
 944 1383 944 1383 626 1383 c 2,21,-1
 388 1383 l 1,12,13
EndSplineSet
Validated: 1
EndChar

StartChar: Q
Encoding: 81 81 49
Width: 1392
GlyphClass: 2
Flags: W
HStem: -20 124<483.573 862.274> 0 21G<1076.02 1312> 1406 124<535.278 904.427>
VStem: 160 210<205.953 1187.44> 620 214<314 528> 1018 210<348.742 1304.05>
DStem2: 834 528 620 528 0.671134 -0.741336<0 245.66 438.988 565.92>
LayerCount: 2
Fore
SplineSet
687 104 m 4,0,1
 835 104 835 104 919 195 c 1,2,-1
 620 528 l 1,3,-1
 834 528 l 1,4,-1
 999 346 l 1,5,6
 1018 412 1018 412 1018 589 c 2,7,-1
 1018 1145 l 2,8,9
 1018 1406 1018 1406 701 1406 c 0,10,11
 370 1406 370 1406 370 921 c 2,12,-1
 370 365 l 2,13,14
 370 104 370 104 687 104 c 4,0,1
585 -20 m 0,15,16
 160 -20 160 -20 160 365 c 2,17,-1
 160 921 l 2,18,19
 160 1530 160 1530 803 1530 c 0,20,21
 1228 1530 1228 1530 1228 1145 c 2,22,-1
 1228 589 l 2,23,24
 1228 349 1228 349 1128 203 c 1,25,-1
 1312 0 l 1,26,-1
 1094 0 l 1,27,-1
 1014 89 l 1,28,29
 857 -20 857 -20 585 -20 c 0,15,16
EndSplineSet
Validated: 1
EndChar

StartChar: R
Encoding: 82 82 50
Width: 1340
GlyphClass: 2
Flags: W
HStem: 0 21G<200 400 925 1180> 508 127<400 780.853> 1383 127<388 828.609>
VStem: 200 200<0 508 635 1379.85> 900 210<59.9048 442.954> 944 210<862.82 1275.01>
LayerCount: 2
Fore
SplineSet
400 635 m 1,0,-1
 614 635 l 2,1,2
 944 635 944 635 944 1117 c 2,3,-1
 944 1125 l 2,4,5
 944 1383 944 1383 626 1383 c 2,6,-1
 388 1383 l 1,7,8
 400 1282 400 1282 400 1212 c 2,9,-1
 400 635 l 1,0,-1
200 0 m 1,10,-1
 200 1210 l 2,11,12
 200 1357 200 1357 130 1510 c 1,13,-1
 729 1510 l 2,14,15
 1154 1510 1154 1510 1154 1125 c 2,16,-1
 1154 1117 l 2,17,18
 1154 725 1154 725 848 591 c 1,19,20
 1110 533 1110 533 1110 308 c 2,21,-1
 1110 300 l 2,22,23
 1110 140 1110 140 1180 0 c 1,24,-1
 950 0 l 1,25,26
 900 121 900 121 900 300 c 2,27,-1
 900 308 l 2,28,29
 900 508 900 508 670 508 c 2,30,-1
 400 508 l 1,31,-1
 400 0 l 1,32,-1
 200 0 l 1,10,-1
EndSplineSet
Validated: 1
EndChar

StartChar: S
Encoding: 83 83 51
Width: 1368
GlyphClass: 2
Flags: W
HStem: -20 124<489.553 852.516> 745 151<511.79 894.305> 1406 124<517.077 851.504>
VStem: 160 210<227.438 365> 200 210<986.234 1277.07> 958 210<1145 1294.6> 998 210<285.018 646.83>
LayerCount: 2
Fore
SplineSet
575 -20 m 0,0,1
 160 -20 160 -20 160 365 c 9,2,-1
 370 420 l 17,3,4
 370 104 370 104 677 104 c 0,5,6
 998 104 998 104 998 505 c 2,7,-1
 998 507 l 2,8,9
 998 745 998 745 691 745 c 0,10,11
 200 745 200 745 200 1058 c 10,12,-1
 200 1061 l 2,13,14
 200 1530 200 1530 793 1530 c 0,15,16
 1168 1530 1168 1530 1168 1145 c 9,17,-1
 958 1090 l 17,18,19
 958 1406 958 1406 691 1406 c 0,20,21
 410 1406 410 1406 410 1130 c 2,22,-1
 410 1127 l 2,23,24
 410 896 410 896 714 896 c 0,25,26
 1208 896 1208 896 1208 546 c 10,27,-1
 1208 544 l 2,28,29
 1208 -20 1208 -20 575 -20 c 0,0,1
EndSplineSet
Validated: 1
EndChar

StartChar: T
Encoding: 84 84 52
Width: 1040
GlyphClass: 2
Flags: W
HStem: 0 21G<420 620> 1383 127<62.1968 420 620 1030>
VStem: 420 200<0 1383>
LayerCount: 2
Fore
SplineSet
420 0 m 1,0,-1
 420 1383 l 1,1,-1
 310 1383 l 2,2,3
 133 1383 133 1383 10 1313 c 1,4,-1
 10 1460 l 1,5,6
 79 1510 79 1510 310 1510 c 2,7,-1
 1030 1510 l 25,8,-1
 1030 1383 l 25,9,-1
 620 1383 l 1,10,-1
 620 0 l 1,11,-1
 420 0 l 1,0,-1
EndSplineSet
Validated: 1
EndChar

StartChar: U
Encoding: 85 85 53
Width: 1426
GlyphClass: 2
Flags: W
HStem: -20 123<510.014 868.27> 1490 20G<130 375 1026 1226>
VStem: 200 200<205.68 1457.99> 1026 200<308.438 1510>
LayerCount: 2
Fore
SplineSet
635 -20 m 0,0,1
 200 -20 200 -20 200 365 c 2,2,-1
 200 1210 l 2,3,4
 200 1392 200 1392 130 1510 c 1,5,-1
 350 1510 l 1,6,7
 400 1411 400 1411 400 1210 c 2,8,-1
 400 365 l 2,9,10
 400 103 400 103 713 103 c 128,-1,11
 1026 103 1026 103 1026 589 c 2,12,-1
 1026 1510 l 25,13,-1
 1226 1510 l 25,14,-1
 1226 589 l 2,15,16
 1226 -20 1226 -20 635 -20 c 0,0,1
EndSplineSet
Validated: 1
EndChar

StartChar: V
Encoding: 86 86 54
Width: 1358
GlyphClass: 2
Flags: W
HStem: 0 21G<364 979> 1490 20G<80 335 1008 1218>
VStem: 150 210<784.18 1457.99> 1008 210<979.791 1510>
LayerCount: 2
Fore
SplineSet
578 0 m 1,0,1
 150 494 150 494 150 1210 c 0,2,3
 150 1392 150 1392 80 1510 c 1,4,-1
 310 1510 l 1,5,6
 360 1411 360 1411 360 1210 c 0,7,8
 360 513 360 513 659 98 c 1,9,10
 1008 568 1008 568 1008 1510 c 1,11,-1
 1218 1510 l 1,12,13
 1218 494 1218 494 740 0 c 1,14,-1
 578 0 l 1,0,1
EndSplineSet
Validated: 1
EndChar

StartChar: X
Encoding: 88 88 55
Width: 1298
GlyphClass: 2
Flags: W
HStem: 0 21G<140 350 923 1178> 1490 20G<120 375 948 1158>
VStem: 140 210<0 291.375> 190 210<1050.82 1457.99> 898 210<52.0093 494.155> 948 210<1236.67 1510>
LayerCount: 2
Fore
SplineSet
140 0 m 1,0,1
 140 510 140 510 523 768 c 1,2,3
 190 940 190 940 190 1210 c 0,4,5
 190 1392 190 1392 120 1510 c 1,6,-1
 350 1510 l 1,7,8
 400 1411 400 1411 400 1210 c 0,9,10
 400 1004 400 1004 649 853 c 1,11,12
 948 1124 948 1124 948 1510 c 1,13,-1
 1158 1510 l 1,14,15
 1158 1056 1158 1056 770 784 c 1,16,17
 1108 623 1108 623 1108 300 c 0,18,19
 1108 118 1108 118 1178 0 c 1,20,-1
 948 0 l 1,21,22
 898 99 898 99 898 300 c 0,23,24
 898 555 898 555 649 692 c 1,25,26
 350 414 350 414 350 0 c 1,27,-1
 140 0 l 1,0,1
EndSplineSet
Validated: 1
EndChar

StartChar: Y
Encoding: 89 89 56
Width: 1336
GlyphClass: 2
Flags: W
HStem: 507 123<477.767 558> 1490 20G<100 345 976 1176>
VStem: 170 200<731.953 1456.51> 558 200<0 507> 976 200<829.044 1510>
LayerCount: 2
Fore
SplineSet
558 0 m 1,0,-1
 558 507 l 1,1,2
 170 523 170 523 170 891 c 2,3,-1
 170 1210 l 2,4,5
 170 1385 170 1385 100 1510 c 1,6,-1
 320 1510 l 1,7,8
 370 1383 370 1383 370 1210 c 2,9,-1
 370 891 l 2,10,11
 370 630 370 630 672 630 c 0,12,13
 976 630 976 630 976 1115 c 2,14,-1
 976 1510 l 1,15,-1
 1176 1510 l 1,16,-1
 1176 1115 l 2,17,18
 1176 598 1176 598 758 520 c 1,19,-1
 758 0 l 1,20,-1
 558 0 l 1,0,-1
EndSplineSet
Validated: 1
EndChar

StartChar: Z
Encoding: 90 90 57
Width: 1273
GlyphClass: 2
Flags: W
HStem: 0 127<307 1133.1> 1383 127<233.053 938>
DStem2: 80 127 307 127 0.564071 0.825726<128.044 1521.09>
LayerCount: 2
Fore
SplineSet
80 0 m 1,0,-1
 80 127 l 1,1,-1
 938 1383 l 1,2,-1
 476 1383 l 2,3,4
 308 1383 308 1383 176 1313 c 9,5,-1
 176 1460 l 17,6,7
 314 1510 314 1510 476 1510 c 2,8,-1
 1165 1510 l 1,9,-1
 1165 1383 l 1,10,-1
 307 127 l 1,11,-1
 893 127 l 2,12,13
 1053 127 1053 127 1193 197 c 9,14,-1
 1193 50 l 17,15,16
 1072 0 1072 0 893 0 c 2,17,-1
 80 0 l 1,0,-1
EndSplineSet
Validated: 19457
EndChar

StartChar: bracketleft
Encoding: 91 91 58
Width: 853
GlyphClass: 2
Flags: W
HStem: -289 150<400 803> 1668 150<400 803>
VStem: 200 200<-139 1668>
LayerCount: 2
Fore
SplineSet
200 -289 m 1,0,-1
 200 1818 l 1,1,-1
 803 1818 l 1,2,-1
 803 1668 l 1,3,-1
 400 1668 l 1,4,-1
 400 -139 l 1,5,-1
 803 -139 l 1,6,-1
 803 -289 l 1,7,-1
 200 -289 l 1,0,-1
EndSplineSet
Validated: 19457
EndChar

StartChar: backslash
Encoding: 92 92 59
Width: 1016
GlyphClass: 2
Flags: W
DStem2: 156 1705 10 1637 0.420342 -0.907366<0.330939 2024.12>
LayerCount: 2
Fore
SplineSet
156 1705 m 1,0,-1
 1006 -132 l 1,1,-1
 861 -200 l 1,2,-1
 10 1637 l 1,3,-1
 156 1705 l 1,0,-1
EndSplineSet
Validated: 1
EndChar

StartChar: bracketright
Encoding: 93 93 60
Width: 853
GlyphClass: 2
Flags: W
HStem: -289 150<50 453> 1668 150<50 453>
VStem: 453 200<-139 1668>
LayerCount: 2
Fore
SplineSet
653 -289 m 1,0,-1
 50 -289 l 1,1,-1
 50 -139 l 1,2,-1
 453 -139 l 1,3,-1
 453 1668 l 1,4,-1
 50 1668 l 1,5,-1
 50 1818 l 1,6,-1
 653 1818 l 1,7,-1
 653 -289 l 1,0,-1
EndSplineSet
Validated: 19457
EndChar

StartChar: asciicircum
Encoding: 94 94 61
Width: 1176
GlyphClass: 2
Flags: W
HStem: 988 523
VStem: 100 205<988 1193> 812 264<988 1252>
DStem2: 100 988 305 988 0.60462 0.796514<123.947 550.725> 679 1511 559 1331 0.60462 -0.796514<70.8182 496.991>
LayerCount: 2
Fore
SplineSet
100 988 m 1,0,-1
 497 1511 l 1,1,-1
 679 1511 l 1,2,-1
 1076 988 l 1,3,-1
 812 988 l 1,4,-1
 559 1331 l 1,5,-1
 305 988 l 1,6,-1
 100 988 l 1,0,-1
EndSplineSet
Validated: 19457
EndChar

StartChar: underscore
Encoding: 95 95 62
Width: 1183
GlyphClass: 2
Flags: W
HStem: -410 150<150 1033>
LayerCount: 2
Fore
SplineSet
1033 -410 m 1,0,-1
 150 -410 l 1,1,-1
 150 -260 l 1,2,-1
 1033 -260 l 1,3,-1
 1033 -410 l 1,0,-1
EndSplineSet
Validated: 19457
EndChar

StartChar: grave
Encoding: 96 96 63
Width: 469
GlyphClass: 2
Flags: W
HStem: 1170 360
VStem: 50 369
LayerCount: 2
Fore
SplineSet
174 1530 m 1,0,-1
 419 1250 l 1,1,-1
 336 1170 l 1,2,-1
 50 1409 l 1,3,-1
 174 1530 l 1,0,-1
EndSplineSet
Validated: 1
EndChar

StartChar: a
Encoding: 97 97 64
Width: 1133
GlyphClass: 2
Flags: W
HStem: -20 130<301.036 553.719> 0 21G<781 997> 576 101<464.119 743> 1016 104<453.617 697.563>
VStem: 80 190<139.469 415.438> 758 175<47.9692 294 677 954.625>
LayerCount: 2
Fore
SplineSet
997 0 m 1,0,-1
 804 0 l 1,1,2
 758 122 758 122 758 294 c 1,3,4
 679 -20 679 -20 383 -20 c 0,5,6
 80 -20 80 -20 80 204 c 2,7,-1
 80 212 l 2,8,9
 80 677 80 677 758 677 c 1,10,-1
 758 758 l 2,11,12
 758 1016 758 1016 592 1016 c 0,13,14
 430 1016 430 1016 349 839 c 1,15,-1
 197 904 l 1,16,17
 329 1120 329 1120 644 1120 c 0,18,19
 933 1120 933 1120 933 826 c 2,20,-1
 933 294 l 2,21,22
 933 138 933 138 997 0 c 1,0,-1
743 576 m 1,23,24
 270 576 270 576 270 255 c 2,25,-1
 270 240 l 2,26,27
 270 110 270 110 429 110 c 0,28,29
 586 110 586 110 676 336 c 0,30,31
 724 455 724 455 743 576 c 1,23,24
EndSplineSet
Validated: 1
EndChar

StartChar: b
Encoding: 98 98 65
Width: 1203
GlyphClass: 2
Flags: W
HStem: -20 116<444.476 737.982> 990 130<572.416 811.328> 1490 20G<136 351.5>
VStem: 200 175<166.058 644.523 805 1462.32> 863 190<242.434 933.307>
LayerCount: 2
Fore
SplineSet
591 96 m 0,0,1
 863 96 863 96 863 488 c 2,2,-1
 863 770 l 2,3,4
 863 990 863 990 698 990 c 0,5,6
 538 990 538 990 457 763 c 0,7,8
 375 536 375 536 375 339 c 2,9,-1
 375 330 l 2,10,11
 375 96 375 96 591 96 c 0,0,1
489 -20 m 0,12,13
 200 -20 200 -20 200 273 c 2,14,-1
 200 1216 l 2,15,16
 200 1373 200 1373 136 1510 c 1,17,-1
 328 1510 l 1,18,19
 375 1391 375 1391 375 1218 c 2,20,-1
 375 805 l 1,21,22
 454 1120 454 1120 749 1120 c 0,23,24
 1053 1120 1053 1120 1053 826 c 2,25,-1
 1053 488 l 2,26,27
 1053 -20 1053 -20 489 -20 c 0,12,13
EndSplineSet
Validated: 1
EndChar

StartChar: c
Encoding: 99 99 66
Width: 1141
GlyphClass: 2
Flags: W
HStem: -20 104<418.798 716.537> 1016 104<456.906 758.967>
VStem: 150 190<159.536 857.566> 822 191<220.669 337 839.205 949.712>
LayerCount: 2
Fore
SplineSet
480 -20 m 0,0,1
 150 -20 150 -20 150 311 c 2,2,-1
 150 612 l 2,3,4
 150 1120 150 1120 698 1120 c 0,5,6
 996 1120 996 1120 1021 841 c 1,7,-1
 833 790 l 1,8,9
 833 1016 833 1016 596 1016 c 0,10,11
 340 1016 340 1016 340 612 c 2,12,-1
 340 310 l 2,13,14
 340 84 340 84 582 84 c 0,15,16
 780 84 780 84 822 337 c 1,17,-1
 1013 359 l 1,18,19
 949 -20 949 -20 480 -20 c 0,0,1
EndSplineSet
Validated: 1
EndChar

StartChar: d
Encoding: 100 100 67
Width: 1203
GlyphClass: 2
Flags: W
HStem: -20 130<391.672 630.584> 0 21G<851.5 1067> 1004 116<464.81 758.953> 1490 20G<764 979.5>
VStem: 150 190<166.693 857.566> 828 175<47.6846 295 455.477 934.017 1026 1462.72>
LayerCount: 2
Fore
SplineSet
612 1004 m 0,0,1
 340 1004 340 1004 340 612 c 2,2,-1
 340 330 l 2,3,4
 340 110 340 110 505 110 c 0,5,6
 665 110 665 110 746 337 c 0,7,8
 828 564 828 564 828 761 c 2,9,-1
 828 770 l 2,10,11
 828 1004 828 1004 612 1004 c 0,0,1
1067 0 m 1,12,13
 875 0 l 1,14,15
 828 120 828 120 828 295 c 1,16,17
 749 -20 749 -20 454 -20 c 0,18,19
 150 -20 150 -20 150 274 c 2,20,-1
 150 612 l 2,21,22
 150 1120 150 1120 612 1120 c 0,23,24
 744 1120 744 1120 828 1026 c 1,25,-1
 828 1220 l 2,26,27
 828 1374 828 1374 764 1510 c 1,28,-1
 956 1510 l 1,29,30
 1003 1390 1003 1390 1003 1216 c 2,31,-1
 1003 294 l 2,32,33
 1003 137 1003 137 1067 0 c 1,12,13
EndSplineSet
Validated: 1
EndChar

StartChar: e
Encoding: 101 101 68
Width: 1173
GlyphClass: 2
Flags: W
HStem: -20 104<418.798 716.537> 1016 104<456.906 757.046>
VStem: 150 190<159.536 377 521 857.566> 833 190<239.915 337 764 940.464>
DStem2: 340 521 340 377 0.900925 0.433974<0 549.612>
LayerCount: 2
Fore
SplineSet
480 -20 m 0,0,1
 150 -20 150 -20 150 311 c 2,2,-1
 150 612 l 2,3,4
 150 1120 150 1120 698 1120 c 0,5,6
 1023 1120 1023 1120 1023 789 c 2,7,-1
 1023 706 l 1,8,-1
 340 377 l 1,9,-1
 340 310 l 2,10,11
 340 84 340 84 582 84 c 0,12,13
 780 84 780 84 822 337 c 1,14,-1
 1013 359 l 1,15,16
 949 -20 949 -20 480 -20 c 0,0,1
340 521 m 1,17,-1
 833 764 l 1,18,-1
 833 790 l 2,19,20
 833 1016 833 1016 596 1016 c 0,21,22
 340 1016 340 1016 340 612 c 2,23,-1
 340 521 l 1,17,-1
EndSplineSet
Validated: 1
EndChar

StartChar: f
Encoding: 102 102 69
Width: 809
GlyphClass: 2
Flags: W
HStem: 0 21G<200 380> 715 108<94.8411 200 380 680> 1414 116<487.269 775.178>
VStem: 200 180<0 715 823 1269.12>
LayerCount: 2
Fore
SplineSet
200 0 m 1,0,-1
 200 715 l 1,1,2
 152 715 152 715 93 676 c 1,3,-1
 93 789 l 1,4,5
 149 823 149 823 200 823 c 1,6,-1
 200 1025 l 2,7,8
 200 1530 200 1530 754 1530 c 0,9,10
 778 1530 778 1530 799 1528 c 1,11,-1
 768 1383 l 1,12,13
 709 1414 709 1414 620 1414 c 0,14,15
 380 1414 380 1414 380 1025 c 2,16,-1
 380 823 l 1,17,-1
 680 823 l 1,18,-1
 680 715 l 1,19,-1
 380 715 l 1,20,-1
 380 0 l 1,21,-1
 200 0 l 1,0,-1
EndSplineSet
Validated: 1
EndChar

StartChar: g
Encoding: 103 103 70
Width: 1178
GlyphClass: 2
Flags: W
HStem: -430 107<389.656 647.844> -20 130<391.672 630.584> 1004 116<465.018 758.9>
VStem: 150 190<166.693 857.566> 828 180<-1.7373 295 455.477 932.672>
LayerCount: 2
Fore
SplineSet
612 1004 m 0,0,1
 340 1004 340 1004 340 612 c 2,2,-1
 340 330 l 2,3,4
 340 110 340 110 505 110 c 0,5,6
 665 110 665 110 746 337 c 0,7,8
 828 564 828 564 828 761 c 2,9,-1
 828 770 l 2,10,11
 828 1004 828 1004 612 1004 c 0,0,1
454 -20 m 0,12,13
 150 -20 150 -20 150 274 c 2,14,-1
 150 612 l 2,15,16
 150 1120 150 1120 714 1120 c 0,17,18
 1008 1120 1008 1120 1008 825 c 2,19,-1
 1008 399 l 2,20,21
 1008 -430 1008 -430 454 -430 c 0,22,23
 241 -430 241 -430 179 -294 c 1,24,-1
 364 -243 l 1,25,26
 405 -323 405 -323 505 -323 c 0,27,28
 827 -323 827 -323 828 295 c 1,29,30
 749 -20 749 -20 454 -20 c 0,12,13
EndSplineSet
Validated: 1
EndChar

StartChar: h
Encoding: 104 104 71
Width: 1243
GlyphClass: 2
Flags: W
HStem: 0 21G<200 375 886.5 1107> 990 130<571.927 811.724> 1490 20G<136 351.5>
VStem: 200 175<0 574.246 806 1462.32> 863 180<47.9988 933.307>
LayerCount: 2
Fore
SplineSet
200 0 m 1,0,-1
 200 1216 l 2,1,2
 200 1373 200 1373 136 1510 c 1,3,-1
 328 1510 l 1,4,5
 375 1391 375 1391 375 1218 c 2,6,-1
 375 806 l 1,7,8
 454 1120 454 1120 749 1120 c 0,9,10
 1043 1120 1043 1120 1043 826 c 2,11,-1
 1043 295 l 2,12,13
 1043 138 1043 138 1107 0 c 1,14,-1
 910 0 l 1,15,16
 863 121 863 121 863 296 c 2,17,-1
 863 771 l 2,18,19
 863 990 863 990 698 990 c 0,20,21
 375 990 375 990 375 69 c 2,22,-1
 375 0 l 1,23,-1
 200 0 l 1,0,-1
EndSplineSet
Validated: 1
EndChar

StartChar: i
Encoding: 105 105 72
Width: 580
GlyphClass: 2
Flags: W
HStem: 0 21G<223.5 444> 1080 20G<136 356.5> 1281 229<164.031 359.969>
VStem: 148 228<1297.17 1493.9> 200 180<48.5681 1051.43>
LayerCount: 2
Fore
SplineSet
262 1281 m 152,-1,1
 148 1281 148 1281 148 1396 c 0,2,3
 148 1510 148 1510 262 1510 c 128,-1,4
 376 1510 376 1510 376 1395.5 c 128,-1,0
 376 1281 376 1281 262 1281 c 152,-1,1
247 0 m 1,5,6
 200 122 200 122 200 295 c 2,7,-1
 200 805 l 2,8,9
 200 960 200 960 136 1100 c 1,10,-1
 333 1100 l 1,11,12
 380 979 380 979 380 805 c 2,13,-1
 380 295 l 2,14,15
 380 140 380 140 444 0 c 1,16,-1
 247 0 l 1,5,6
EndSplineSet
Validated: 1
EndChar

StartChar: j
Encoding: 106 106 73
Width: 580
GlyphClass: 2
Flags: W
HStem: -430 109<0 46.0156> 1080 20G<136 356.5> 1281 229<164.031 359.969>
VStem: 148 228<1297.17 1493.9> 200 180<-54.3398 1052.32>
LayerCount: 2
Fore
SplineSet
262 1281 m 152,-1,1
 148 1281 148 1281 148 1396 c 0,2,3
 148 1510 148 1510 262 1510 c 128,-1,4
 376 1510 376 1510 376 1395.5 c 128,-1,0
 376 1281 376 1281 262 1281 c 152,-1,1
0 -430 m 1,5,-1
 0 -321 l 1,6,7
 200 -190 200 -190 200 318 c 2,8,-1
 200 806 l 2,9,10
 200 963 200 963 136 1100 c 1,11,-1
 333 1100 l 1,12,13
 380 980 380 980 380 806 c 2,14,-1
 380 319 l 2,15,16
 380 -323 380 -323 0 -430 c 1,5,-1
EndSplineSet
Validated: 1
EndChar

StartChar: k
Encoding: 107 107 74
Width: 1203
GlyphClass: 2
Flags: W
HStem: 0 21G<200 383.362 804.5 1035> 503 108<568 704.957> 990 130<707.433 950> 1490 20G<136 351.5>
VStem: 200 175<0 44.5124 334 1462.32> 781 190<47.9988 436.489> 863 190<835 966.298>
DStem2: 519 835 568 611 0.298364 0.954452<-521.145 -300.167 -199.177 186.073>
LayerCount: 2
Fore
SplineSet
200 0 m 1,0,-1
 200 1216 l 2,1,2
 200 1373 200 1373 136 1510 c 1,3,-1
 328 1510 l 1,4,5
 375 1374 375 1374 375 1216 c 2,6,-1
 375 334 l 1,7,8
 436 586 436 586 519 835 c 0,9,10
 614 1120 614 1120 847 1120 c 0,11,12
 1053 1120 1053 1120 1053 835 c 1,13,-1
 863 783 l 1,14,15
 863 990 863 990 773 990 c 0,16,17
 678 990 678 990 568 611 c 1,18,19
 971 611 971 611 971 303 c 2,20,-1
 971 295 l 2,21,22
 971 138 971 138 1035 0 c 1,23,-1
 828 0 l 1,24,25
 781 121 781 121 781 296 c 2,26,-1
 781 304 l 2,27,28
 781 503 781 503 537 503 c 1,29,-1
 377 0 l 1,30,-1
 200 0 l 1,0,-1
EndSplineSet
Validated: 1
EndChar

StartChar: l
Encoding: 108 108 75
Width: 580
GlyphClass: 2
Flags: W
HStem: 0 21G<223.5 444> 1490 20G<136 356.5>
VStem: 200 180<47.6846 1462.32>
LayerCount: 2
Fore
SplineSet
247 0 m 1,0,1
 200 120 200 120 200 294 c 2,2,-1
 200 1216 l 2,3,4
 200 1373 200 1373 136 1510 c 1,5,-1
 333 1510 l 1,6,7
 380 1390 380 1390 380 1216 c 2,8,-1
 380 294 l 2,9,10
 380 137 380 137 444 0 c 1,11,-1
 247 0 l 1,0,1
EndSplineSet
Validated: 1
EndChar

StartChar: m
Encoding: 109 109 76
Width: 1906
GlyphClass: 2
Flags: W
HStem: 0 21G<200 375 863 1038 1549.5 1770> 990 130<571.927 811.207 1234.93 1474.72> 1080 20G<136 351.5>
VStem: 200 175<0 574.246 806 1052> 863 175<0 574.246 806 933.307> 1526 180<47.9988 933.307>
LayerCount: 2
Fore
SplineSet
200 0 m 1,0,-1
 200 805 l 2,1,2
 200 962 200 962 136 1100 c 1,3,-1
 328 1100 l 1,4,5
 375 980 375 980 375 806 c 1,6,7
 454 1120 454 1120 749 1120 c 0,8,9
 1038 1120 1038 1120 1038 826 c 2,10,-1
 1038 806 l 1,11,12
 1117 1120 1117 1120 1412 1120 c 0,13,14
 1706 1120 1706 1120 1706 826 c 2,15,-1
 1706 295 l 2,16,17
 1706 138 1706 138 1770 0 c 1,18,-1
 1573 0 l 1,19,20
 1526 121 1526 121 1526 296 c 2,21,-1
 1526 771 l 2,22,23
 1526 990 1526 990 1361 990 c 0,24,25
 1038 990 1038 990 1038 69 c 2,26,-1
 1038 0 l 1,27,-1
 863 0 l 1,28,-1
 863 771 l 2,29,30
 863 990 863 990 698 990 c 0,31,32
 375 990 375 990 375 69 c 2,33,-1
 375 0 l 1,34,-1
 200 0 l 1,0,-1
EndSplineSet
Validated: 1
EndChar

StartChar: n
Encoding: 110 110 77
Width: 1243
GlyphClass: 2
Flags: W
HStem: 0 21G<200 375 886.5 1107> 990 130<571.927 811.724> 1080 20G<136 351.5>
VStem: 200 175<0 574.246 806 1052> 863 180<47.9988 933.307>
LayerCount: 2
Fore
SplineSet
200 0 m 1,0,-1
 200 805 l 2,1,2
 200 962 200 962 136 1100 c 1,3,-1
 328 1100 l 1,4,5
 375 980 375 980 375 806 c 1,6,7
 454 1120 454 1120 749 1120 c 0,8,9
 1043 1120 1043 1120 1043 826 c 2,10,-1
 1043 295 l 2,11,12
 1043 138 1043 138 1107 0 c 1,13,-1
 910 0 l 1,14,15
 863 121 863 121 863 296 c 2,16,-1
 863 771 l 2,17,18
 863 990 863 990 698 990 c 0,19,20
 375 990 375 990 375 69 c 2,21,-1
 375 0 l 1,22,-1
 200 0 l 1,0,-1
EndSplineSet
Validated: 1
EndChar

StartChar: o
Encoding: 111 111 78
Width: 1188
GlyphClass: 2
Flags: W
HStem: -20 104<416.939 728.559> 1016 104<459.441 771.061>
VStem: 150 190<159.536 857.566> 848 190<242.434 940.464>
LayerCount: 2
Fore
SplineSet
601 1016 m 0,0,1
 340 1016 340 1016 340 612 c 2,2,-1
 340 310 l 2,3,4
 340 84 340 84 587 84 c 0,5,6
 848 84 848 84 848 488 c 2,7,-1
 848 790 l 2,8,9
 848 1016 848 1016 601 1016 c 0,0,1
485 -20 m 0,10,11
 150 -20 150 -20 150 311 c 2,12,-1
 150 612 l 2,13,14
 150 1120 150 1120 703 1120 c 0,15,16
 1038 1120 1038 1120 1038 789 c 2,17,-1
 1038 488 l 2,18,19
 1038 -20 1038 -20 485 -20 c 0,10,11
EndSplineSet
Validated: 1
EndChar

StartChar: p
Encoding: 112 112 79
Width: 1203
GlyphClass: 2
Flags: W
HStem: -410 21G<200 375> -20 116<443.812 738.19> 990 130<572.416 811.328> 1080 20G<136 351.5>
VStem: 200 175<-410 74 165.983 644.523 805 1052.32> 863 190<242.434 933.307>
LayerCount: 2
Fore
SplineSet
591 96 m 0,0,1
 863 96 863 96 863 488 c 2,2,-1
 863 770 l 2,3,4
 863 990 863 990 698 990 c 0,5,6
 538 990 538 990 457 763 c 0,7,8
 375 536 375 536 375 339 c 2,9,-1
 375 330 l 2,10,11
 375 96 375 96 591 96 c 0,0,1
591 -20 m 0,12,13
 458 -20 458 -20 375 74 c 1,14,-1
 375 -410 l 1,15,-1
 200 -410 l 9,16,-1
 200 806 l 2,17,18
 200 963 200 963 136 1100 c 1,19,-1
 328 1100 l 1,20,21
 375 980 375 980 375 805 c 1,22,23
 454 1120 454 1120 749 1120 c 0,24,25
 1053 1120 1053 1120 1053 826 c 2,26,-1
 1053 488 l 2,27,28
 1053 -20 1053 -20 591 -20 c 0,12,13
EndSplineSet
Validated: 1
EndChar

StartChar: q
Encoding: 113 113 80
Width: 1208
GlyphClass: 2
Flags: W
HStem: -410 21G<851.5 1072> -20 130<391.672 630.584> 1004 116<465.018 758.9>
VStem: 150 190<166.693 857.566> 828 180<-362.315 295 455.477 933.942>
LayerCount: 2
Fore
SplineSet
612 1004 m 0,0,1
 340 1004 340 1004 340 612 c 2,2,-1
 340 330 l 2,3,4
 340 110 340 110 505 110 c 0,5,6
 665 110 665 110 746 337 c 0,7,8
 828 564 828 564 828 761 c 2,9,-1
 828 770 l 2,10,11
 828 1004 828 1004 612 1004 c 0,0,1
454 -20 m 0,12,13
 150 -20 150 -20 150 274 c 2,14,-1
 150 612 l 2,15,16
 150 1120 150 1120 714 1120 c 0,17,18
 1008 1120 1008 1120 1008 827 c 2,19,-1
 1008 -116 l 2,20,21
 1008 -273 1008 -273 1072 -410 c 1,22,-1
 875 -410 l 1,23,24
 828 -291 828 -291 828 -118 c 2,25,-1
 828 295 l 1,26,27
 749 -20 749 -20 454 -20 c 0,12,13
EndSplineSet
Validated: 1
EndChar

StartChar: r
Encoding: 114 114 81
Width: 1083
GlyphClass: 2
Flags: W
HStem: 0 21G<200 375> 990 130<571.927 812.758> 1080 20G<136 351.5>
VStem: 200 175<0 574.246 806 1052> 863 190<826 933.307>
LayerCount: 2
Fore
SplineSet
200 0 m 1,0,-1
 200 805 l 2,1,2
 200 962 200 962 136 1100 c 1,3,-1
 328 1100 l 1,4,5
 375 980 375 980 375 806 c 1,6,7
 454 1120 454 1120 749 1120 c 0,8,9
 1053 1120 1053 1120 1053 826 c 9,10,-1
 863 771 l 17,11,12
 863 990 863 990 698 990 c 0,13,14
 375 990 375 990 375 69 c 2,15,-1
 375 0 l 1,16,-1
 200 0 l 1,0,-1
EndSplineSet
Validated: 1
EndChar

StartChar: t
Encoding: 116 116 82
Width: 800
GlyphClass: 2
Flags: W
HStem: 0 21G<333.5 554> 993 107<60.2544 310 490 790> 1490 20G<246 466.5>
VStem: 310 180<48.0283 993 1100 1462.72>
LayerCount: 2
Fore
SplineSet
357 0 m 1,0,1
 310 121 310 121 310 296 c 2,2,-1
 310 993 l 1,3,4
 146 993 146 993 10 928 c 1,5,-1
 10 1053 l 1,6,7
 127 1100 127 1100 310 1100 c 1,8,-1
 310 1220 l 2,9,10
 310 1374 310 1374 246 1510 c 1,11,12
 443 1510 l 1,13,14
 490 1392 490 1392 490 1220 c 2,15,-1
 490 1100 l 1,16,-1
 790 1100 l 1,17,-1
 790 993 l 1,18,-1
 490 993 l 1,19,-1
 490 296 l 2,20,21
 490 138 490 138 554 0 c 1,22,-1
 357 0 l 1,0,1
EndSplineSet
Validated: 19457
EndChar

StartChar: u
Encoding: 117 117 83
Width: 1243
GlyphClass: 2
Flags: W
HStem: -20 130<431.276 671.073> 0 21G<891.5 1107> 1080 20G<136 356.5 868 1043>
VStem: 200 180<166.693 1052> 868 175<47.9988 294 525.754 1100>
LayerCount: 2
Fore
SplineSet
1107 0 m 1,0,-1
 915 0 l 1,1,2
 868 120 868 120 868 294 c 1,3,4
 789 -20 789 -20 494 -20 c 0,5,6
 200 -20 200 -20 200 274 c 2,7,-1
 200 805 l 2,8,9
 200 962 200 962 136 1100 c 1,10,-1
 333 1100 l 1,11,12
 380 979 380 979 380 804 c 2,13,-1
 380 329 l 2,14,15
 380 110 380 110 545 110 c 0,16,17
 868 110 868 110 868 1031 c 2,18,-1
 868 1100 l 1,19,-1
 1043 1100 l 1,20,-1
 1043 295 l 2,21,22
 1043 138 1043 138 1107 0 c 1,0,-1
EndSplineSet
Validated: 1
EndChar

StartChar: v
Encoding: 118 118 84
Width: 1076
GlyphClass: 2
Flags: W
HStem: 0 21G<265 793> 1080 20G<30 260 806 996>
VStem: 93 190<541.258 1059.16> 806 190<688.798 1100>
LayerCount: 2
Fore
SplineSet
437 0 m 1,0,1
 93 441 93 441 93 805 c 0,2,3
 93 981 93 981 30 1100 c 1,4,-1
 237 1100 l 1,5,6
 283 1000 283 1000 283 805 c 0,7,8
 283 435 283 435 513 82 c 1,9,10
 806 521 806 521 806 1100 c 1,11,-1
 996 1100 l 1,12,13
 996 436 996 436 590 0 c 1,14,-1
 437 0 l 1,0,1
EndSplineSet
Validated: 1
EndChar

StartChar: w
Encoding: 119 119 85
Width: 1876
GlyphClass: 2
Flags: W
HStem: -20 130<431.276 671.073> -20 87<1107.81 1353.99> 1080 20G<136 356.5 868 1048 1472 1702.5>
VStem: 200 180<166.693 1052> 868 180<131.881 294 525.754 1100> 1536 190<406.148 1051.97>
LayerCount: 2
Fore
SplineSet
494 -20 m 0,0,1
 200 -20 200 -20 200 274 c 2,2,-1
 200 805 l 2,3,4
 200 962 200 962 136 1100 c 1,5,-1
 333 1100 l 1,6,7
 380 979 380 979 380 804 c 2,8,-1
 380 329 l 2,9,10
 380 110 380 110 545 110 c 0,11,12
 868 110 868 110 868 1031 c 2,13,-1
 868 1100 l 1,14,-1
 1048 1100 l 1,15,-1
 1048 329 l 2,16,17
 1048 67 1048 67 1213 67 c 0,18,19
 1536 67 1536 67 1536 753 c 2,20,-1
 1536 804 l 2,21,22
 1536 962 1536 962 1472 1100 c 1,23,-1
 1679 1100 l 1,24,25
 1726 979 1726 979 1726 805 c 2,26,-1
 1726 795 l 2,27,28
 1726 -20 1726 -20 1162 -20 c 24,29,30
 868 -20 868 -20 868 274 c 2,31,-1
 868 294 l 1,32,33
 789 -20 789 -20 494 -20 c 0,0,1
EndSplineSet
Validated: 1
EndChar

StartChar: x
Encoding: 120 120 86
Width: 1064
GlyphClass: 2
Flags: W
HStem: 0 21G<93 283 744 974> 1080 20G<90 319.5 781 971>
VStem: 93 190<0 205.052 997.858 1100> 153 190<696.812 1060.04> 721 190<40.8398 432.487> 767 207<0 119.164 894.47 1100>
LayerCount: 2
Fore
SplineSet
93 0 m 5,0,1
 93 331 93 331 449 549 c 5,2,3
 153 651 153 651 153 805 c 0,4,5
 153 980 153 980 90 1100 c 1,6,-1
 297 1100 l 1,7,8
 342 1003 342 1003 343 804 c 0,9,10
 343 678 343 678 526 615 c 1,11,12
 781 816 781 816 781 1100 c 1,13,-1
 971 1100 l 1,14,15
 971 783 971 783 637 571 c 1,16,17
 911 496 911 496 911 295 c 0,18,19
 911 119 911 119 974 0 c 1,20,-1
 767 0 l 1,21,22
 721 100 721 100 721 295 c 0,23,24
 721 459 721 459 555 504 c 5,25,26
 283 268 283 268 283 0 c 5,27,-1
 93 0 l 5,0,1
EndSplineSet
Validated: 1
EndChar

StartChar: y
Encoding: 121 121 87
Width: 1248
GlyphClass: 2
Flags: W
HStem: -430 107<427.956 688.039> -20 130<431.276 671.073> 1080 20G<136 356.5 868 1048>
VStem: 200 180<166.693 1052> 868 180<-1.7373 294 525.754 1100>
LayerCount: 2
Fore
SplineSet
494 -20 m 4,0,1
 200 -20 200 -20 200 274 c 2,2,-1
 200 805 l 2,3,4
 200 962 200 962 136 1100 c 1,5,-1
 333 1100 l 1,6,7
 380 979 380 979 380 804 c 2,8,-1
 380 329 l 2,9,10
 380 110 380 110 545 110 c 0,11,12
 868 110 868 110 868 1031 c 2,13,-1
 868 1100 l 1,14,-1
 1048 1100 l 1,15,-1
 1048 399 l 2,16,17
 1048 -430 1048 -430 494 -430 c 0,18,19
 290 -430 290 -430 229 -294 c 1,20,-1
 404 -243 l 1,21,22
 444 -323 444 -323 545 -323 c 0,23,24
 868 -323 868 -323 868 294 c 1,25,26
 789 -20 789 -20 494 -20 c 4,0,1
EndSplineSet
Validated: 1
EndChar

StartChar: z
Encoding: 122 122 88
Width: 973
GlyphClass: 2
Flags: W
HStem: 0 107<269 842.551> 927 126<120 246> 993 107<181.078 674>
DStem2: 80 107 269 107 0.556862 0.830605<105.247 1066.69>
LayerCount: 2
Fore
SplineSet
80 0 m 1,0,-1
 80 107 l 1,1,-1
 674 993 l 1,2,-1
 410 993 l 2,3,4
 287 993 287 993 120 927 c 1,5,-1
 120 1053 l 1,6,7
 238 1100 238 1100 409 1100 c 2,8,-1
 863 1100 l 1,9,-1
 863 993 l 1,10,-1
 269 107 l 1,11,-1
 602 107 l 2,12,13
 761 107 761 107 893 173 c 1,14,-1
 893 47 l 1,15,16
 775 0 775 0 603 0 c 2,17,-1
 80 0 l 1,0,-1
EndSplineSet
Validated: 19457
EndChar

StartChar: braceleft
Encoding: 123 123 89
Width: 879
GlyphClass: 2
Flags: W
HStem: -288 107<653.299 829> 1711 107<653.299 829>
VStem: 336 195<-55.2188 608.536 921.464 1585.22>
LayerCount: 2
Fore
SplineSet
829 1818 m 9,0,1
 829 1711 l 17,2,3
 531 1711 531 1711 531 1389 c 2,4,-1
 531 1058 l 2,5,6
 531 834 531 834 293 765 c 1,7,8
 531 705 531 705 531 472 c 2,9,-1
 531 141 l 2,10,11
 531 -181 531 -181 829 -181 c 9,12,13
 829 -288 l 17,14,15
 336 -288 336 -288 336 141 c 2,16,-1
 336 472 l 2,17,18
 336 645 336 645 100 765 c 1,19,20
 336 885 336 885 336 1058 c 2,21,-1
 336 1389 l 2,22,23
 336 1818 336 1818 829 1818 c 9,0,1
EndSplineSet
Validated: 19457
EndChar

StartChar: bar
Encoding: 124 124 90
Width: 661
GlyphClass: 2
Flags: W
VStem: 250 160<-186 1695>
LayerCount: 2
Fore
SplineSet
250 -186 m 1,0,-1
 250 1695 l 1,1,-1
 411 1695 l 1,2,-1
 410 -186 l 1,3,-1
 250 -186 l 1,0,-1
EndSplineSet
Validated: 19457
EndChar

StartChar: braceright
Encoding: 125 125 91
Width: 879
GlyphClass: 2
Flags: W
HStem: -288 107<50 225.701> 1711 107<50 225.701>
VStem: 348 195<-55.2188 608.536 921.464 1585.22>
LayerCount: 2
Fore
SplineSet
50 1818 m 17,0,1
 543 1818 543 1818 543 1389 c 2,2,-1
 543 1058 l 2,3,4
 543 885 543 885 779 765 c 1,5,6
 543 645 543 645 543 472 c 2,7,-1
 543 141 l 2,8,9
 543 -288 543 -288 50 -288 c 9,10,-1
 50 -181 l 17,11,12
 348 -181 348 -181 348 141 c 2,13,-1
 348 472 l 2,14,15
 348 705 348 705 586 765 c 1,16,17
 348 834 348 834 348 1058 c 2,18,-1
 348 1389 l 2,19,20
 348 1711 348 1711 50 1711 c 9,21,-1
 50 1818 l 17,0,1
EndSplineSet
Validated: 19457
EndChar

StartChar: asciitilde
Encoding: 126 126 92
Width: 1228
GlyphClass: 2
Flags: W
HStem: 578 148<673.038 965> 787 146<259 533>
VStem: 160 200<634 764.812> 868 200<746.188 877>
LayerCount: 2
Fore
SplineSet
160 634 m 1,0,1
 160 933 160 933 358 933 c 0,2,3
 534 933 534 933 638 793 c 0,4,5
 688 726 688 726 780 726 c 0,6,7
 868 726 868 726 868 933 c 1,8,-1
 1068 877 l 1,9,10
 1068 578 1068 578 862 578 c 0,11,12
 664 578 664 578 578 714 c 0,13,14
 532 787 532 787 450 787 c 0,15,16
 360 787 360 787 360 578 c 1,17,-1
 160 634 l 1,0,1
EndSplineSet
Validated: 19457
EndChar

StartChar: exclamdown
Encoding: 161 161 94
Width: 742
GlyphClass: 2
Flags: W
HStem: -410 21G<251 491> 866 255<265.795 476.205>
VStem: 245 252<887.042 1099.96> 311 120<471.315 748>
LayerCount: 2
Fore
SplineSet
491 -410 m 1,0,-1
 251 -410 l 1,1,-1
 311 748 l 1,2,-1
 431 748 l 1,3,-1
 491 -410 l 1,0,-1
371 1121 m 152,-1,5
 497 1121 497 1121 497 993.5 c 128,-1,6
 497 866 497 866 371 866 c 128,-1,7
 245 866 245 866 245 993.5 c 128,-1,4
 245 1121 245 1121 371 1121 c 152,-1,5
EndSplineSet
Validated: 1
EndChar

StartChar: cent
Encoding: 162 162 95
Width: 1166
GlyphClass: 2
Flags: W
HStem: -20 106<407.794 533 633 718.485> 1014 106<453.801 533 633 761.876>
VStem: 150 180<158.682 853.567> 533 100<-188 -18 89 1010 1118 1282> 827 181<219.875 337 839.099 949.712>
LayerCount: 2
Fore
SplineSet
633 -188 m 1,0,-1
 533 -188 l 1,1,-1
 533 -18 l 1,2,3
 505 -20 505 -20 475 -20 c 0,4,5
 150 -20 150 -20 150 311 c 2,6,-1
 150 612 l 2,7,8
 150 1039 150 1039 533 1107 c 1,9,-1
 533 1282 l 1,10,-1
 633 1282 l 1,11,-1
 633 1118 l 1,12,13
 662 1120 662 1120 693 1120 c 0,14,15
 991 1120 991 1120 1016 841 c 1,16,-1
 838 790 l 1,17,18
 838 996 838 996 633 1014 c 1,19,-1
 633 89 l 1,20,21
 791 120 791 120 827 337 c 1,22,-1
 1008 359 l 1,23,24
 956 49 956 49 633 -7 c 1,25,-1
 633 -188 l 1,0,-1
533 86 m 1,26,-1
 533 1010 l 1,27,28
 330 968 330 968 330 612 c 2,29,-1
 330 310 l 2,30,31
 330 105 330 105 533 86 c 1,26,-1
EndSplineSet
Validated: 1
EndChar

StartChar: sterling
Encoding: 163 163 96
Width: 1280
GlyphClass: 2
Flags: W
HStem: 0 127<408 1068.42> 1406 124<535.042 821.816>
VStem: 220 200<129.328 692 819 1257.56> 888 200<1231 1337.21>
LayerCount: 2
Fore
SplineSet
150 0 m 1,0,1
 220 118 220 118 220 300 c 2,2,-1
 220 692 l 1,3,4
 167 692 167 692 113 637 c 1,5,-1
 113 784 l 1,6,7
 167 819 167 819 220 819 c 1,8,-1
 220 1009 l 2,9,10
 220 1530 220 1530 784 1530 c 0,11,12
 1088 1530 1088 1530 1088 1231 c 1,13,-1
 888 1176 l 1,14,15
 888 1406 888 1406 682 1406 c 0,16,17
 420 1406 420 1406 420 1026 c 2,18,-1
 420 819 l 1,19,20
 580 819 580 819 720 889 c 9,21,-1
 720 742 l 17,22,23
 599 692 599 692 420 692 c 1,24,-1
 420 300 l 2,25,26
 420 201 420 201 408 127 c 1,27,-1
 830 127 l 2,28,29
 978 127 978 127 1130 197 c 1,30,-1
 1130 50 l 1,31,32
 1017 0 1017 0 830 0 c 2,33,-1
 150 0 l 1,0,1
EndSplineSet
Validated: 1
EndChar

StartChar: currency
Encoding: 164 164 97
Width: 1420
GlyphClass: 2
Flags: W
HStem: 237 124<490.894 874.789> 1113 124<542.867 929.106>
VStem: 176 200<468.115 904.128> 1044 200<569.872 1005.89>
DStem2: 291 1297 150 1156 0.707107 -0.707107<0 197.46 1187.06 1384.52>
LayerCount: 2
Fore
SplineSet
376 628 m 2,0,-1
 376 622 l 2,1,2
 376 361 376 361 703 361 c 0,3,4
 1044 361 1044 361 1044 846 c 2,5,-1
 1044 852 l 2,6,7
 1044 1113 1044 1113 717 1113 c 0,8,9
 376 1113 376 1113 376 628 c 2,0,-1
291 177 m 1,10,-1
 150 318 l 1,11,-1
 229 398 l 1,12,13
 176 486 176 486 176 622 c 2,14,-1
 176 628 l 2,15,16
 176 876 176 876 283 1023 c 1,17,-1
 150 1156 l 1,18,-1
 291 1297 l 1,19,-1
 434 1155 l 1,20,21
 583 1237 583 1237 819 1237 c 0,22,23
 946 1237 946 1237 1034 1203 c 1,24,-1
 1129 1297 l 1,25,-1
 1270 1156 l 1,26,-1
 1191 1076 l 1,27,28
 1244 988 1244 988 1244 852 c 2,29,-1
 1244 846 l 2,30,31
 1244 598 1244 598 1137 451 c 1,32,-1
 1270 318 l 1,33,-1
 1129 177 l 1,34,-1
 987 319 l 1,35,36
 838 237 838 237 601 237 c 0,37,38
 474 237 474 237 386 271 c 1,39,-1
 291 177 l 1,10,-1
EndSplineSet
Validated: 1
EndChar

StartChar: yen
Encoding: 165 165 98
Width: 1475
GlyphClass: 2
Flags: W
HStem: 0 21G<638 838> 537 120<225 559 917 1266> 795 120<225 424 686 829 1052 1266> 1490 20G<111 340.916 1178.92 1364>
VStem: 638 200<0 507>
LayerCount: 2
Fore
SplineSet
638 0 m 1,0,-1
 638 507 l 1,1,-1
 622 537 l 1,2,-1
 224 537 l 1,3,-1
 225 657 l 1,4,-1
 559 657 l 1,5,-1
 487 795 l 1,6,-1
 224 795 l 1,7,-1
 225 915 l 1,8,-1
 424 915 l 1,9,-1
 111 1510 l 1,10,-1
 331 1510 l 1,11,-1
 626 915 l 1,12,-1
 889 915 l 1,13,-1
 1189 1510 l 1,14,-1
 1364 1510 l 1,15,-1
 1052 915 l 1,16,-1
 1266 915 l 1,17,-1
 1266 795 l 1,18,-1
 989 795 l 1,19,-1
 917 657 l 1,20,-1
 1266 657 l 1,21,-1
 1266 537 l 1,22,-1
 854 537 l 1,23,-1
 838 507 l 1,24,-1
 838 0 l 1,25,-1
 638 0 l 1,0,-1
686 795 m 1,26,-1
 754 657 l 1,27,-1
 759 657 l 1,28,-1
 829 795 l 1,29,-1
 686 795 l 1,26,-1
EndSplineSet
Validated: 1
EndChar

StartChar: brokenbar
Encoding: 166 166 99
Width: 661
GlyphClass: 2
Flags: W
VStem: 250 161<-186 672 837 1695>
LayerCount: 2
Fore
SplineSet
250 -186 m 1,0,-1
 250 672 l 1,1,-1
 411 672 l 1,2,-1
 411 -186 l 1,3,-1
 250 -186 l 1,0,-1
250 837 m 1,4,-1
 250 1695 l 1,5,-1
 411 1695 l 1,6,-1
 411 837 l 1,7,-1
 250 837 l 1,4,-1
EndSplineSet
Validated: 19457
EndChar

StartChar: section
Encoding: 167 167 100
Width: 1108
GlyphClass: 2
Flags: W
HStem: -20 116<434.435 720.631> 434 120<393.265 738.062> 956 120<369.938 714.735> 1414 116<387.369 673.565>
VStem: 150 180<621.963 885.243 1120.69 1356.71> 190 180<162.693 267> 738 180<1243 1347.31> 778 180<153.292 389.309 624.757 888.037>
LayerCount: 2
Fore
SplineSet
476 -20 m 0,0,1
 190 -20 190 -20 190 267 c 1,2,-1
 370 319 l 1,3,4
 370 96 370 96 578 96 c 0,5,6
 778 96 778 96 778 299 c 2,7,-1
 778 301 l 2,8,9
 778 434 778 434 565 434 c 0,10,11
 150 434 150 434 150 730 c 10,12,-1
 150 731 l 2,13,14
 150 864 150 864 210 951 c 1,15,-1
 355 887 l 1,16,17
 330 831 330 831 330 748 c 2,18,-1
 330 746 l 2,19,20
 330 554 330 554 567 554 c 0,21,22
 958 554 958 554 958 331 c 2,23,-1
 958 330 l 2,24,25
 958 -20 958 -20 476 -20 c 0,0,1
632 1530 m 0,26,27
 918 1530 918 1530 918 1243 c 1,28,-1
 738 1191 l 1,29,30
 738 1414 738 1414 530 1414 c 0,31,32
 330 1414 330 1414 330 1211 c 2,33,-1
 330 1209 l 2,34,35
 330 1076 330 1076 543 1076 c 0,36,37
 958 1076 958 1076 958 780 c 10,38,-1
 958 779 l 2,39,40
 958 646 958 646 898 559 c 1,41,-1
 753 623 l 1,42,43
 778 679 778 679 778 762 c 2,44,-1
 778 764 l 2,45,46
 778 956 778 956 541 956 c 0,47,48
 150 956 150 956 150 1179 c 2,49,-1
 150 1180 l 2,50,51
 150 1530 150 1530 632 1530 c 0,26,27
EndSplineSet
Validated: 1
EndChar

StartChar: dieresis
Encoding: 168 168 101
Width: 679
GlyphClass: 2
Flags: W
HStem: 1301 229<65.9609 261.039 417.961 613.039>
VStem: 50 227<1317.1 1513.9> 402 227<1317.1 1513.9>
LayerCount: 2
Fore
SplineSet
515.5 1301 m 152,-1,1
 402 1301 402 1301 402 1415.5 c 128,-1,2
 402 1530 402 1530 515.5 1530 c 128,-1,3
 629 1530 629 1530 629 1415.5 c 128,-1,0
 629 1301 629 1301 515.5 1301 c 152,-1,1
163.5 1301 m 152,-1,5
 50 1301 50 1301 50 1415.5 c 128,-1,6
 50 1530 50 1530 163.5 1530 c 128,-1,7
 277 1530 277 1530 277 1415.5 c 128,-1,4
 277 1301 277 1301 163.5 1301 c 152,-1,5
EndSplineSet
Validated: 1
EndChar

StartChar: copyright
Encoding: 169 169 102
Width: 1401
GlyphClass: 2
Flags: W
HStem: 187 73<514.363 878.202> 339 113<574.53 797.622> 1052 112<601.145 808.936> 1254 77<516.855 884.866>
VStem: 150 74<569.815 952.314> 407 150<472.057 1007.45> 839 154<493.742 633 929 1020.57> 1176 75<558.376 959.426>
LayerCount: 2
Fore
SplineSet
701 1331 m 0,0,1
 943 1331 943 1331 1099 1158 c 0,2,3
 1251 989 1251 989 1251 754 c 0,4,5
 1251 502 1251 502 1090 350 c 0,6,7
 919 187 919 187 699 187 c 0,8,9
 476 187 476 187 311 350 c 0,10,11
 150 509 150 509 150 754 c 0,12,13
 150 998 150 998 308 1163 c 0,14,15
 469 1331 469 1331 701 1331 c 0,0,1
699 1254 m 0,16,17
 509 1254 509 1254 367 1113 c 0,18,19
 224 971 224 971 224 754 c 0,20,21
 224 561 224 561 364 406 c 0,22,23
 495 260 495 260 701 260 c 0,24,25
 892 260 892 260 1037 406 c 0,26,27
 1176 546 1176 546 1176 754 c 0,28,29
 1176 975 1176 975 1039 1110 c 0,30,31
 893 1254 893 1254 699 1254 c 0,16,17
993 652 m 1,32,33
 993 339 993 339 643 339 c 0,34,35
 407 339 407 339 407 557 c 2,36,-1
 407 835 l 2,37,38
 407 1164 407 1164 753 1164 c 0,39,40
 993 1164 993 1164 993 929 c 1,41,-1
 841 887 l 1,42,43
 841 1052 841 1052 703 1052 c 0,44,45
 557 1052 557 1052 557 835 c 2,46,-1
 557 557 l 2,47,48
 557 452 557 452 689 452 c 0,49,50
 839 452 839 452 839 633 c 1,51,-1
 993 652 l 1,32,33
EndSplineSet
Validated: 1
EndChar

StartChar: ordfeminine
Encoding: 170 170 103
Width: 735
GlyphClass: 2
Flags: W
HStem: 693 150<50 685> 908 125<271.062 403.14> 1200 85<304.521 442> 1426 104<327.645 450.326>
VStem: 121 148<1037.51 1163.61> 442 165<1069.53 1200> 458 149<1281.27 1422.05>
LayerCount: 2
Fore
SplineSet
173 1373 m 1,0,1
 265 1530 265 1530 427 1530 c 24,2,3
 607 1530 607 1530 607 1360 c 2,4,-1
 607 1090 l 2,5,6
 607 1003 607 1003 657 918 c 1,7,-1
 490 918 l 1,8,9
 473 954 473 954 466 1013 c 1,10,11
 396 908 396 908 300 908 c 24,12,13
 121 908 121 908 121 1046 c 2,14,-1
 121 1050 l 2,15,16
 121 1261 121 1261 458 1285 c 1,17,18
 458 1319 458 1319 458 1321 c 2,19,-1
 458 1326 l 2,20,21
 458 1426 458 1426 406 1426 c 0,22,23
 337 1426 337 1426 295 1323 c 1,24,-1
 173 1373 l 1,0,1
442 1200 m 1,25,26
 269 1193 269 1193 269 1076 c 2,27,-1
 269 1068 l 2,28,29
 269 1033 269 1033 325 1033 c 24,30,31
 391 1033 391 1033 429 1122 c 0,32,33
 441 1150 441 1150 442 1200 c 1,25,26
685 693 m 1,34,-1
 50 693 l 1,35,-1
 50 843 l 1,36,-1
 685 843 l 1,37,-1
 685 693 l 1,34,-1
EndSplineSet
Validated: 1
EndChar

StartChar: guillemotleft
Encoding: 171 171 104
Width: 1409
GlyphClass: 2
Flags: W
HStem: 124 280<393 673 929 1209> 1196 205<468 673 1004 1209>
DStem2: 150 859 298 799 0.690413 0.723415<58.7762 609.217> 298 799 150 678 0.691073 -0.722785<0 540.316> 686 853 834 793 0.690413 0.723415<58.7762 609.217> 834 793 686 678 0.686469 -0.727159<0 540.291>
LayerCount: 2
Fore
SplineSet
1209 1401 m 1,0,-1
 1209 1196 l 1,1,-1
 834 793 l 1,2,-1
 1209 404 l 1,3,-1
 1209 124 l 1,4,-1
 686 678 l 1,5,-1
 686 853 l 1,6,-1
 1209 1401 l 1,0,-1
673 1407 m 1,7,-1
 673 1202 l 1,8,-1
 298 799 l 1,9,-1
 673 410 l 1,10,-1
 673 131 l 1,11,-1
 150 678 l 1,12,-1
 150 859 l 1,13,-1
 673 1407 l 1,7,-1
EndSplineSet
Validated: 19457
EndChar

StartChar: logicalnot
Encoding: 172 172 105
Width: 1183
GlyphClass: 2
Flags: W
HStem: 693 150<150 883>
VStem: 883 150<436 693>
LayerCount: 2
Fore
SplineSet
1033 436 m 1,0,-1
 883 436 l 1,1,-1
 883 693 l 1,2,-1
 150 693 l 1,3,-1
 150 843 l 1,4,-1
 1033 843 l 1,5,-1
 1033 436 l 1,0,-1
EndSplineSet
Validated: 19457
EndChar

StartChar: uni00AD
Encoding: 173 173 106
Width: 1183
GlyphClass: 2
Flags: W
HStem: 693 150<150 1033>
LayerCount: 2
Fore
SplineSet
1033 693 m 1,0,-1
 150 693 l 1,1,-1
 150 843 l 1,2,-1
 1033 843 l 1,3,-1
 1033 693 l 1,0,-1
EndSplineSet
Validated: 19457
EndChar

StartChar: registered
Encoding: 174 174 107
Width: 1401
GlyphClass: 2
Flags: W
HStem: 187 73<514.363 876.443> 599 113<617 800.635> 1036 114<614 825.276> 1254 77<516.855 884.866>
VStem: 150 74<569.815 952.314> 467 150<345 599 712 1035> 822 151<377.496 589.059> 844 150<375 577.438 763.012 1011.57> 1176 75<558.376 959.426>
LayerCount: 2
Fore
SplineSet
614 1036 m 1,0,1
 617 1004 617 1004 617 976 c 2,2,-1
 617 712 l 1,3,-1
 699 712 l 2,4,5
 844 712 844 712 844 928 c 2,6,-1
 844 932 l 2,7,8
 844 1036 844 1036 705 1036 c 2,9,-1
 614 1036 l 1,0,1
699 1254 m 0,10,11
 509 1254 509 1254 367 1113 c 0,12,13
 224 971 224 971 224 754 c 0,14,15
 224 561 224 561 364 406 c 0,16,17
 495 260 495 260 701 260 c 0,18,19
 847 260 847 260 966 345 c 1,20,-1
 855 345 l 1,21,22
 822 437 822 437 822 520 c 2,23,-1
 822 524 l 2,24,25
 822 599 822 599 727 599 c 2,26,-1
 617 599 l 1,27,-1
 617 345 l 1,28,-1
 467 345 l 1,29,-1
 467 975 l 2,30,31
 467 1063 467 1063 415 1150 c 1,32,-1
 757 1150 l 2,33,34
 994 1150 994 1150 994 932 c 2,35,-1
 994 928 l 2,36,37
 994 758 994 758 853 671 c 1,38,39
 973 642 973 642 973 524 c 2,40,-1
 973 520 l 2,41,42
 973 455 973 455 1004 375 c 1,43,44
 1021 389 1021 389 1037 406 c 0,45,46
 1176 546 1176 546 1176 754 c 0,47,48
 1176 975 1176 975 1039 1110 c 0,49,50
 893 1254 893 1254 699 1254 c 0,10,11
701 1331 m 0,51,52
 943 1331 943 1331 1099 1158 c 0,53,54
 1251 989 1251 989 1251 754 c 0,55,56
 1251 502 1251 502 1090 350 c 0,57,58
 919 187 919 187 699 187 c 0,59,60
 476 187 476 187 311 350 c 0,61,62
 150 509 150 509 150 754 c 0,63,64
 150 998 150 998 308 1163 c 0,65,66
 469 1331 469 1331 701 1331 c 0,51,52
EndSplineSet
Validated: 1
EndChar

StartChar: macron
Encoding: 175 175 108
Width: 672
GlyphClass: 2
Flags: W
HStem: 1292 127<50 622>
VStem: 50 572<1292 1419>
LayerCount: 2
Fore
SplineSet
50 1419 m 17,0,-1
 622 1419 l 1,1,-1
 622 1292 l 1,2,-1
 50 1292 l 9,3,-1
 50 1419 l 17,0,-1
EndSplineSet
Validated: 1
EndChar

StartChar: degree
Encoding: 176 176 109
Width: 682
GlyphClass: 2
Flags: W
HStem: 983 96<210.367 439.949> 1433 97<242.886 472.881>
VStem: 50 136<1105.06 1374.5> 496 136<1134.84 1407.94>
LayerCount: 2
Fore
SplineSet
396 1530 m 0,0,1
 632 1530 632 1530 632 1313 c 2,2,-1
 632 1312 l 2,3,4
 632 983 632 983 286 983 c 0,5,6
 50 983 50 983 50 1200 c 2,7,-1
 50 1201 l 2,8,9
 50 1530 50 1530 396 1530 c 0,0,1
351 1433 m 0,10,11
 186 1433 186 1433 186 1197 c 2,12,-1
 186 1196 l 2,13,14
 186 1080 186 1080 336 1079 c 0,15,16
 496 1079 496 1079 496 1317 c 2,17,-1
 496 1318 l 2,18,19
 496 1433 496 1433 351 1433 c 0,10,11
EndSplineSet
Validated: 1
EndChar

StartChar: plusminus
Encoding: 177 177 110
Width: 1183
GlyphClass: 2
Flags: W
HStem: 215 150<150 1033> 782 150<150 516 666 1033>
VStem: 516 150<415 782 932 1298>
LayerCount: 2
Fore
SplineSet
1033 215 m 1,0,-1
 150 215 l 1,1,-1
 150 365 l 1,2,-1
 1033 365 l 1,3,-1
 1033 215 l 1,0,-1
516 415 m 1,4,-1
 516 782 l 1,5,-1
 150 782 l 1,6,-1
 150 932 l 1,7,-1
 516 932 l 1,8,-1
 516 1298 l 1,9,-1
 666 1298 l 1,10,-1
 666 932 l 1,11,-1
 1033 932 l 1,12,-1
 1033 782 l 1,13,-1
 666 782 l 1,14,-1
 666 415 l 1,15,-1
 516 415 l 1,4,-1
EndSplineSet
Validated: 19457
EndChar

StartChar: uni00B2
Encoding: 178 178 111
Width: 644
GlyphClass: 2
Flags: W
HStem: 823 113<204 578.465> 1148 114<245.467 404.036> 1525 113<124.157 424.564>
VStem: 50 154<936 1115.27> 444 150<1300.44 1504.9>
LayerCount: 2
Fore
SplineSet
114 1607 m 1,0,1
 223 1638 223 1638 304 1638 c 2,2,-1
 356 1638 l 2,3,4
 594 1638 594 1638 594 1420 c 2,5,-1
 594 1419 l 2,6,7
 594 1148 594 1148 317 1148 c 0,8,9
 208 1148 208 1148 204 936 c 1,10,-1
 410 936 l 2,11,12
 536 936 536 936 586 986 c 1,13,-1
 586 856 l 1,14,15
 506 823 506 823 410 823 c 2,16,-1
 50 823 l 1,17,18
 50 1262 50 1262 288 1262 c 0,19,20
 444 1262 444 1262 444 1419 c 2,21,-1
 444 1420 l 2,22,23
 444 1525 444 1525 306 1525 c 2,24,-1
 289 1525 l 2,25,26
 218 1525 218 1525 114 1476 c 1,27,-1
 114 1607 l 1,0,1
EndSplineSet
Validated: 1
EndChar

StartChar: uni00B3
Encoding: 179 179 112
Width: 684
GlyphClass: 2
Flags: W
HStem: 824 112<233.533 448.489> 1081 20G<126.829 200> 1216 114<186 396.369> 1525 113<164.157 434.805>
VStem: 50 150<968.043 1060> 440 144<1374.2 1515.5> 484 150<975.282 1198.2>
LayerCount: 2
Fore
SplineSet
154 1607 m 1,0,1
 263 1638 263 1638 344 1638 c 2,2,-1
 358 1638 l 2,3,4
 584 1638 584 1638 584 1478 c 2,5,-1
 584 1475 l 2,6,7
 584 1360 584 1360 456 1308 c 1,8,9
 634 1284 634 1284 634 1142 c 2,10,-1
 634 1130 l 2,11,12
 634 824 634 824 290 824 c 0,13,14
 50 824 50 824 50 1060 c 1,15,-1
 200 1101 l 1,16,17
 200 936 200 936 342 936 c 128,-1,18
 484 936 484 936 484 1111 c 2,19,-1
 484 1123 l 2,20,21
 484 1216 484 1216 346 1216 c 2,22,-1
 186 1216 l 1,23,-1
 186 1330 l 1,24,25
 440 1331 440 1331 440 1454 c 2,26,-1
 440 1469 l 2,27,28
 440 1525 440 1525 344 1525 c 2,29,-1
 329 1525 l 2,30,31
 259 1525 259 1525 154 1476 c 1,32,-1
 154 1607 l 1,0,1
EndSplineSet
Validated: 1
EndChar

StartChar: acute
Encoding: 180 180 113
Width: 469
GlyphClass: 2
Flags: W
HStem: 1170 360
VStem: 50 369
LayerCount: 2
Fore
SplineSet
295 1530 m 1,0,-1
 419 1409 l 1,1,-1
 133 1170 l 1,2,-1
 50 1250 l 1,3,-1
 295 1530 l 1,0,-1
EndSplineSet
Validated: 1
EndChar

StartChar: uni00B5
Encoding: 181 181 114
Width: 1238
GlyphClass: 2
Flags: W
HStem: -410 21G<200 375> -20 130<424.649 666.073> 0 21G<886.5 1102> 1080 20G<136 351.5 863 1038>
VStem: 200 175<-410 -6 161.382 1051.85> 863 175<47.9988 294 525.754 1100>
LayerCount: 2
Fore
SplineSet
1102 0 m 1,0,1
 910 0 l 1,2,3
 863 120 863 120 863 294 c 1,4,5
 784 -20 784 -20 489 -20 c 0,6,7
 425 -20 425 -20 375 -6 c 1,8,-1
 375 -410 l 1,9,-1
 200 -410 l 1,10,-1
 200 805 l 2,11,12
 200 962 200 962 136 1100 c 1,13,14
 328 1100 l 1,15,16
 375 976 375 976 375 805 c 2,17,-1
 375 329 l 2,18,19
 375 110 375 110 540 110 c 0,20,21
 863 110 863 110 863 1031 c 2,22,-1
 863 1100 l 1,23,-1
 1038 1100 l 1,24,-1
 1038 295 l 2,25,26
 1038 138 1038 138 1102 0 c 1,0,1
EndSplineSet
Validated: 1
EndChar

StartChar: paragraph
Encoding: 182 182 115
Width: 1183
GlyphClass: 2
Flags: W
HStem: 0 21G<726 810 897 983> 1490 20G<342.5 1053>
VStem: 726 84<0 508> 897 86<0 1274.6>
LayerCount: 2
Fore
SplineSet
1053 1510 m 1,0,1
 983 1357 983 1357 983 1210 c 2,2,-1
 983 0 l 1,3,-1
 897 0 l 1,4,-1
 897 1276 l 1,5,-1
 810 1276 l 1,6,-1
 810 0 l 1,7,-1
 726 0 l 1,8,-1
 726 508 l 1,9,-1
 715 508 l 2,10,11
 130 508 130 508 130 1117 c 2,12,-1
 130 1125 l 2,13,14
 130 1510 130 1510 555 1510 c 2,15,-1
 1053 1510 l 1,0,1
EndSplineSet
Validated: 19457
EndChar

StartChar: periodcentered
Encoding: 183 183 116
Width: 552
GlyphClass: 2
Flags: W
HStem: 638 255<170.795 381.205>
VStem: 150 252<659.042 871.958>
LayerCount: 2
Fore
SplineSet
276 638 m 152,-1,1
 150 638 150 638 150 765.5 c 128,-1,2
 150 893 150 893 276 893 c 128,-1,3
 402 893 402 893 402 765.5 c 128,-1,0
 402 638 402 638 276 638 c 152,-1,1
EndSplineSet
Validated: 19457
EndChar

StartChar: cedilla
Encoding: 184 184 117
Width: 383
GlyphClass: 2
Flags: W
HStem: -430 126<86 205.399> -20 20G<88 189>
VStem: 88 101<-85.9131 0> 213 120<-286.785 -161.421>
LayerCount: 2
Fore
SplineSet
88 0 m 1,0,-1
 189 0 l 1,1,2
 189 -61 189 -61 243 -93 c 0,3,4
 333 -146 333 -146 333 -260 c 0,5,6
 333 -430 333 -430 86 -430 c 1,7,-1
 50 -304 l 1,8,9
 213 -304 213 -304 213 -236 c 0,10,11
 213 -192 213 -192 158 -153 c 0,12,13
 88 -105 88 -105 88 0 c 1,0,-1
EndSplineSet
Validated: 1
EndChar

StartChar: uni00B9
Encoding: 185 185 118
Width: 368
GlyphClass: 2
Flags: W
HStem: 1524 114<50 167.116>
VStem: 50 233<1524.95 1638> 168 150<833 1521.77>
LayerCount: 2
Fore
SplineSet
50 1638 m 1,0,-1
 283 1638 l 1,1,2
 318 1582 318 1582 318 1463 c 2,3,-1
 318 833 l 1,4,-1
 168 833 l 1,5,-1
 168 1463 l 2,6,7
 167 1494 167 1494 161 1524 c 1,8,-1
 50 1524 l 1,9,-1
 50 1638 l 1,0,-1
EndSplineSet
Validated: 1
EndChar

StartChar: ordmasculine
Encoding: 186 186 119
Width: 724
GlyphClass: 2
Flags: W
HStem: 693 150<50 674> 911 112<272.535 433.931> 1418 112<292.179 451.726>
VStem: 115 150<1033.56 1398.38> 459 150<1042.87 1408.08>
LayerCount: 2
Fore
SplineSet
674 693 m 1,0,-1
 50 693 l 1,1,-1
 50 843 l 1,2,-1
 674 843 l 1,3,-1
 674 693 l 1,0,-1
358 1023 m 24,4,5
 459 1023 459 1023 459 1190 c 2,6,-1
 459 1338 l 2,7,8
 459 1418 459 1418 369 1418 c 24,9,10
 265 1418 265 1418 265 1252 c 2,11,-1
 265 1104 l 2,12,13
 265 1023 265 1023 358 1023 c 24,4,5
308 911 m 0,14,15
 115 911 115 911 115 1104 c 2,16,-1
 115 1252 l 2,17,18
 115 1530 115 1530 422 1530 c 0,19,20
 609 1530 609 1530 609 1338 c 2,21,-1
 609 1190 l 2,22,23
 609 911 609 911 308 911 c 0,14,15
EndSplineSet
Validated: 1
EndChar

StartChar: guillemotright
Encoding: 187 187 120
Width: 1409
GlyphClass: 2
Flags: W
HStem: 124 205<200 405 736 941> 1121 280<200 480 736 1016>
DStem2: 200 1401 200 1121 0.685815 -0.727776<203.777 744.063> 200 329 200 124 0.691073 0.722785<0 550.435> 736 1401 736 1121 0.689754 -0.724044<202.732 743.043> 736 329 736 124 0.691073 0.722785<0 550.435>
LayerCount: 2
Fore
SplineSet
200 124 m 1,0,-1
 200 329 l 1,1,-1
 575 732 l 1,2,-1
 200 1121 l 1,3,-1
 200 1401 l 1,4,-1
 723 846 l 1,5,-1
 723 671 l 1,6,-1
 200 124 l 1,0,-1
736 124 m 1,7,-1
 736 329 l 1,8,-1
 1111 732 l 1,9,-1
 736 1121 l 1,10,-1
 736 1401 l 1,11,-1
 1259 852 l 1,12,-1
 1259 671 l 1,13,-1
 736 124 l 1,7,-1
EndSplineSet
Validated: 19457
EndChar

StartChar: questiondown
Encoding: 191 191 121
Width: 1388
GlyphClass: 2
Flags: W
HStem: -430 124<474.577 863.932> 398 128<480.303 614.258> 865 255<642.795 853.205>
VStem: 160 200<-195.015 245.189> 622 252<886.042 1098.96> 644 200<548.363 755> 1018 210<-87.4375 124>
LayerCount: 2
Fore
SplineSet
1228 179 m 17,0,1
 1228 -430 1228 -430 585 -430 c 0,2,3
 160 -430 160 -430 160 -45 c 10,4,-1
 160 -42 l 2,5,6
 160 526 160 526 550 526 c 0,7,8
 644 526 644 526 644 755 c 9,9,-1
 844 824 l 17,10,11
 844 398 844 398 608 398 c 0,12,13
 360 398 360 398 360 -42 c 2,14,-1
 360 -45 l 2,15,16
 360 -306 360 -306 687 -306 c 0,17,18
 1018 -306 1018 -306 1018 124 c 9,19,-1
 1228 179 l 17,0,1
748 1120 m 152,-1,21
 874 1120 874 1120 874 992.5 c 128,-1,22
 874 865 874 865 748 865 c 128,-1,23
 622 865 622 865 622 992.5 c 128,-1,20
 622 1120 622 1120 748 1120 c 152,-1,21
EndSplineSet
Validated: 1
EndChar

StartChar: multiply
Encoding: 215 215 122
Width: 1031
GlyphClass: 2
Flags: W
HStem: 662 213<408.5 621.5>
VStem: 409 213<661.5 874.5>
DStem2: 256 1134 150 1027 0.707107 -0.707107<0.707107 366.281 517.602 883.176> 150 509 256 403 0.707673 0.70654<0.120021 366.281 517.015 883.176>
LayerCount: 2
Fore
SplineSet
774 403 m 1,0,-1
 515 662 l 1,1,-1
 256 403 l 1,2,-1
 150 509 l 1,3,-1
 409 768 l 1,4,-1
 150 1027 l 1,5,-1
 256 1134 l 1,6,-1
 515 875 l 1,7,-1
 774 1134 l 1,8,-1
 881 1027 l 1,9,-1
 622 768 l 1,10,-1
 881 509 l 1,11,-1
 774 403 l 1,0,-1
EndSplineSet
Validated: 19457
EndChar

StartChar: divide
Encoding: 247 247 123
Width: 1183
GlyphClass: 2
Flags: W
HStem: 312 255<485.795 696.205> 693 150<150 1033> 968 255<485.795 696.205>
VStem: 465 252<333.042 545.958 989.042 1201.96>
LayerCount: 2
Fore
SplineSet
150 843 m 1,0,-1
 1033 843 l 1,1,-1
 1033 693 l 1,2,-1
 150 693 l 1,3,-1
 150 843 l 1,0,-1
591 312 m 152,-1,5
 465 312 465 312 465 439.5 c 128,-1,6
 465 567 465 567 591 567 c 128,-1,7
 717 567 717 567 717 439.5 c 128,-1,4
 717 312 717 312 591 312 c 152,-1,5
591 1223 m 128,-1,9
 717 1223 717 1223 717 1095.5 c 128,-1,10
 717 968 717 968 591 968 c 152,-1,11
 465 968 465 968 465 1095.5 c 128,-1,8
 465 1223 465 1223 591 1223 c 128,-1,9
EndSplineSet
Validated: 1
EndChar

StartChar: Lslash
Encoding: 321 321 124
Width: 1041
GlyphClass: 2
Flags: W
HStem: 0 127<400 979.451> 1100 20G<734.323 774.37> 1490 20G<130 375>
VStem: 200 200<127 370 527 585 742 1457.99>
DStem2: 74 392 152 319 0.682068 0.731289<0 69.8522 478.305 995.32>
LayerCount: 2
Fore
SplineSet
200 0 m 1,0,-1
 200 370 l 1,1,-1
 152 319 l 1,2,-1
 74 392 l 1,3,-1
 200 527 l 1,4,-1
 200 1210 l 2,5,6
 200 1392 200 1392 130 1510 c 1,7,-1
 350 1510 l 1,8,9
 400 1411 400 1411 400 1210 c 2,10,-1
 400 742 l 1,11,-1
 753 1120 l 1,12,-1
 831 1047 l 1,13,-1
 400 585 l 1,14,-1
 400 127 l 1,15,-1
 731 127 l 2,16,17
 913 127 913 127 1031 197 c 1,18,-1
 1031 50 l 1,19,20
 910 0 910 0 731 0 c 2,21,-1
 200 0 l 1,0,-1
EndSplineSet
Validated: 1
EndChar

StartChar: lslash
Encoding: 322 322 125
Width: 690
GlyphClass: 2
Flags: W
HStem: 0 21G<278.5 499> 1490 20G<191 411.5>
VStem: 255 180<47.6846 545 701 738 894 1462.32>
DStem2: 20 449 98 376 0.681639 0.731689<0 230.427 608.482 838.909>
LayerCount: 2
Fore
SplineSet
302 0 m 1,0,1
 255 120 255 120 255 294 c 2,2,-1
 255 545 l 1,3,-1
 98 376 l 1,4,-1
 20 449 l 1,5,-1
 255 701 l 1,6,-1
 255 1216 l 2,7,8
 255 1373 255 1373 191 1510 c 1,9,-1
 388 1510 l 1,10,11
 435 1390 435 1390 435 1216 c 2,12,-1
 435 894 l 1,13,-1
 592 1063 l 1,14,-1
 670 990 l 1,15,-1
 435 738 l 1,16,-1
 435 294 l 2,17,18
 435 137 435 137 499 0 c 1,19,-1
 302 0 l 1,0,1
EndSplineSet
Validated: 1
EndChar

StartChar: endash
Encoding: 8211 8211 126
Width: 1183
GlyphClass: 2
Flags: W
HStem: 693 150<150 1033>
LayerCount: 2
Fore
SplineSet
1033 693 m 1,0,-1
 150 693 l 1,1,-1
 150 843 l 1,2,-1
 1033 843 l 1,3,-1
 1033 693 l 1,0,-1
EndSplineSet
Validated: 19457
EndChar

StartChar: emdash
Encoding: 8212 8212 127
Width: 1383
GlyphClass: 2
Flags: W
HStem: 696 150<150 1233>
LayerCount: 2
Fore
SplineSet
1233 696 m 1,0,-1
 150 696 l 1,1,-1
 150 846 l 1,2,-1
 1233 846 l 1,3,-1
 1233 696 l 1,0,-1
EndSplineSet
Validated: 19457
EndChar

StartChar: afii00208
Encoding: 8213 8213 128
Width: 1383
GlyphClass: 2
Flags: W
HStem: 696 150<150 1233>
LayerCount: 2
Fore
SplineSet
1233 696 m 1,0,-1
 150 696 l 1,1,-1
 150 846 l 1,2,-1
 1233 846 l 1,3,-1
 1233 696 l 1,0,-1
EndSplineSet
Validated: 19457
EndChar

StartChar: quoteleft
Encoding: 8216 8216 129
Width: 380
GlyphClass: 2
Flags: W
HStem: 974 556
VStem: 50 155<1162.86 1365.55>
LayerCount: 2
Fore
SplineSet
267 1530 m 9,0,1
 330 1429 l 17,2,3
 205 1354 205 1354 205 1265 c 0,4,5
 205 1174 205 1174 322 1108 c 1,6,-1
 196 974 l 17,7,8
 50 1078 50 1078 50 1239.5 c 128,-1,9
 50 1401 50 1401 267 1530 c 9,0,1
EndSplineSet
Validated: 1
EndChar

StartChar: quoteright
Encoding: 8217 8217 130
Width: 380
GlyphClass: 2
Flags: W
HStem: 974 556
VStem: 175 155<1138.45 1341.14>
LayerCount: 2
Fore
SplineSet
184 1530 m 17,0,1
 330 1426 330 1426 330 1264.5 c 128,-1,2
 330 1103 330 1103 113 974 c 9,3,-1
 50 1075 l 17,4,5
 175 1150 175 1150 175 1239 c 0,6,7
 175 1330 175 1330 58 1396 c 1,8,-1
 184 1530 l 17,0,1
EndSplineSet
Validated: 1
EndChar

StartChar: quotesinglbase
Encoding: 8218 8218 131
Width: 380
GlyphClass: 2
Flags: W
HStem: -266 556
VStem: 175 155<-101.553 101.14>
LayerCount: 2
Fore
SplineSet
184 290 m 17,0,1
 330 186 330 186 330 24.5 c 128,-1,2
 330 -137 330 -137 113 -266 c 9,3,-1
 50 -165 l 17,4,5
 175 -90 175 -90 175 -1 c 0,6,7
 175 90 175 90 58 156 c 1,8,-1
 184 290 l 17,0,1
EndSplineSet
Validated: 1
EndChar

StartChar: quotereversed
Encoding: 8219 8219 132
Width: 380
GlyphClass: 2
Flags: W
HStem: 974 556
VStem: 50 155<1138.45 1341.14>
LayerCount: 2
Fore
SplineSet
196 1530 m 9,0,1
 322 1396 l 1,2,3
 205 1330 205 1330 205 1239 c 0,4,5
 205 1150 205 1150 330 1075 c 9,6,-1
 267 974 l 17,7,8
 50 1103 50 1103 50 1264.5 c 128,-1,9
 50 1426 50 1426 196 1530 c 9,0,1
EndSplineSet
Validated: 1
EndChar

StartChar: quotedblleft
Encoding: 8220 8220 133
Width: 681
GlyphClass: 2
Flags: W
HStem: 974 556
VStem: 50 155<1162.86 1365.55> 351 155<1162.86 1365.55>
LayerCount: 2
Fore
SplineSet
267 1530 m 9,0,-1
 330 1429 l 17,1,2
 205 1354 205 1354 205 1265 c 0,3,4
 205 1174 205 1174 322 1108 c 1,5,-1
 196 974 l 17,6,7
 50 1078 50 1078 50 1239.5 c 128,-1,8
 50 1401 50 1401 267 1530 c 9,0,-1
568 1530 m 9,9,-1
 631 1429 l 17,10,11
 506 1354 506 1354 506 1265 c 0,12,13
 506 1174 506 1174 623 1108 c 1,14,-1
 497 974 l 17,15,16
 351 1078 351 1078 351 1239.5 c 128,-1,17
 351 1401 351 1401 568 1530 c 9,9,-1
EndSplineSet
Validated: 1
EndChar

StartChar: quotedblright
Encoding: 8221 8221 134
Width: 681
GlyphClass: 2
Flags: W
HStem: 974 556
VStem: 175 155<1138.45 1341.14> 476 155<1138.45 1341.14>
LayerCount: 2
Fore
SplineSet
485 1530 m 17,0,1
 631 1426 631 1426 631 1264.5 c 128,-1,2
 631 1103 631 1103 414 974 c 9,3,-1
 351 1075 l 17,4,5
 476 1150 476 1150 476 1239 c 0,6,7
 476 1330 476 1330 359 1396 c 1,8,-1
 485 1530 l 17,0,1
184 1530 m 17,9,10
 330 1426 330 1426 330 1264.5 c 128,-1,11
 330 1103 330 1103 113 974 c 9,12,-1
 50 1075 l 17,13,14
 175 1150 175 1150 175 1239 c 0,15,16
 175 1330 175 1330 58 1396 c 1,17,-1
 184 1530 l 17,9,10
EndSplineSet
Validated: 1
EndChar

StartChar: quotedblbase
Encoding: 8222 8222 135
Width: 681
GlyphClass: 2
Flags: W
HStem: -266 556
VStem: 175 155<-101.553 101.14> 476 155<-101.553 101.14>
LayerCount: 2
Fore
SplineSet
485 290 m 17,0,1
 631 186 631 186 631 24.5 c 128,-1,2
 631 -137 631 -137 414 -266 c 9,3,-1
 351 -165 l 17,4,5
 476 -90 476 -90 476 -1 c 0,6,7
 476 90 476 90 359 156 c 1,8,-1
 485 290 l 17,0,1
184 290 m 17,9,10
 330 186 330 186 330 24.5 c 128,-1,11
 330 -137 330 -137 113 -266 c 9,12,-1
 50 -165 l 17,13,14
 175 -90 175 -90 175 -1 c 0,15,16
 175 90 175 90 58 156 c 1,17,-1
 184 290 l 17,9,10
EndSplineSet
Validated: 1
EndChar

StartChar: dagger
Encoding: 8224 8224 136
Width: 1183
GlyphClass: 2
Flags: W
HStem: 0 21G<492 692> 1019 150<150 492 692 1033> 1490 20G<492 692>
VStem: 492 200<0 1019 1169 1510>
LayerCount: 2
Fore
SplineSet
492 0 m 1,0,-1
 492 1019 l 1,1,-1
 150 1019 l 1,2,-1
 150 1169 l 1,3,-1
 492 1169 l 1,4,-1
 492 1510 l 1,5,-1
 692 1510 l 1,6,-1
 692 1169 l 1,7,-1
 1033 1169 l 1,8,-1
 1033 1019 l 1,9,-1
 692 1019 l 1,10,-1
 692 0 l 1,11,-1
 492 0 l 1,0,-1
EndSplineSet
Validated: 19457
EndChar

StartChar: daggerdbl
Encoding: 8225 8225 137
Width: 1183
GlyphClass: 2
Flags: W
HStem: 0 21G<492 692> 342 150<150 492 692 1033> 1019 150<150 492 692 1033> 1490 20G<492 692>
VStem: 492 200<0 342 492 1019 1169 1510>
LayerCount: 2
Fore
SplineSet
492 0 m 1,0,-1
 492 342 l 1,1,-1
 150 342 l 1,2,-1
 150 492 l 1,3,-1
 492 492 l 1,4,-1
 492 1019 l 1,5,-1
 150 1019 l 1,6,-1
 150 1169 l 1,7,-1
 492 1169 l 1,8,-1
 492 1510 l 1,9,-1
 692 1510 l 1,10,-1
 692 1169 l 1,11,-1
 1033 1169 l 1,12,-1
 1033 1019 l 1,13,-1
 692 1019 l 1,14,-1
 692 492 l 1,15,-1
 1033 492 l 1,16,-1
 1033 342 l 1,17,-1
 692 342 l 1,18,-1
 692 0 l 1,19,-1
 492 0 l 1,0,-1
EndSplineSet
Validated: 19457
EndChar

StartChar: bullet
Encoding: 8226 8226 138
Width: 956
GlyphClass: 2
Flags: W
HStem: 444 624<278.125 677.875>
VStem: 150 656<572.045 939.955>
LayerCount: 2
Fore
SplineSet
478 1068 m 128,-1,1
 806 1068 806 1068 806 756 c 128,-1,2
 806 444 806 444 478 444 c 128,-1,3
 150 444 150 444 150 756 c 128,-1,0
 150 1068 150 1068 478 1068 c 128,-1,1
EndSplineSet
Validated: 1
EndChar

StartChar: ellipsis
Encoding: 8230 8230 139
Width: 1078
GlyphClass: 2
Flags: W
HStem: -20 255<70.7949 281.205 433.795 644.205 796.795 1007.21>
VStem: 50 252<1.04248 213.958> 413 252<1.04248 213.958> 776 252<1.04248 213.958>
CounterMasks: 1 70
LayerCount: 2
Fore
SplineSet
902 -20 m 152,-1,1
 776 -20 776 -20 776 107.5 c 128,-1,2
 776 235 776 235 902 235 c 128,-1,3
 1028 235 1028 235 1028 107.5 c 128,-1,0
 1028 -20 1028 -20 902 -20 c 152,-1,1
539 -20 m 152,-1,5
 413 -20 413 -20 413 107.5 c 128,-1,6
 413 235 413 235 539 235 c 128,-1,7
 665 235 665 235 665 107.5 c 128,-1,4
 665 -20 665 -20 539 -20 c 152,-1,5
176 -20 m 152,-1,9
 50 -20 50 -20 50 107.5 c 128,-1,10
 50 235 50 235 176 235 c 128,-1,11
 302 235 302 235 302 107.5 c 128,-1,8
 302 -20 302 -20 176 -20 c 152,-1,9
EndSplineSet
Validated: 1
EndChar

StartChar: perthousand
Encoding: 8240 8240 140
Width: 2356
GlyphClass: 2
Flags: W
HStem: -20 110<1015.47 1269.61 1731.47 1985.61> 0 21G<378 563.272> 493 111<1048.45 1305.58 1764.45 2021.58> 906 110<338.47 592.606> 1419 111<371.451 628.578> 1490 20G<1066.75 1254>
VStem: 150 155<1051.37 1344.61> 658 155<1091.39 1385.21> 827 155<125.373 418.606> 1335 155<165.394 459.213> 1543 155<125.373 418.606> 2051 155<165.394 459.213>
DStem2: 378 0 554 0 0.420582 0.907255<74.0224 1663.52>
LayerCount: 2
Fore
SplineSet
1812 -20 m 0,0,1
 1543 -20 1543 -20 1543 228 c 2,2,-1
 1543 229 l 2,3,4
 1543 604 1543 604 1937 604 c 0,5,6
 2206 604 2206 604 2206 357 c 2,7,-1
 2206 355 l 2,8,9
 2206 -20 2206 -20 1812 -20 c 0,0,1
1869 90 m 0,10,11
 2051 90 2051 90 2051 361 c 2,12,-1
 2051 362 l 2,13,14
 2051 493 2051 493 1886 493 c 0,15,16
 1698 493 1698 493 1698 224 c 2,17,-1
 1698 223 l 2,18,19
 1698 90 1698 90 1869 90 c 0,10,11
1096 -20 m 0,20,21
 827 -20 827 -20 827 228 c 2,22,-1
 827 229 l 2,23,24
 827 604 827 604 1221 604 c 0,25,26
 1490 604 1490 604 1490 357 c 2,27,-1
 1490 355 l 2,28,29
 1490 -20 1490 -20 1096 -20 c 0,20,21
1153 90 m 0,30,31
 1335 90 1335 90 1335 361 c 2,32,-1
 1335 362 l 2,33,34
 1335 493 1335 493 1170 493 c 0,35,36
 982 493 982 493 982 224 c 2,37,-1
 982 223 l 2,38,39
 982 90 982 90 1153 90 c 0,30,31
544 1530 m 0,40,41
 813 1530 813 1530 813 1283 c 2,42,-1
 813 1281 l 2,43,44
 813 906 813 906 419 906 c 0,45,46
 150 906 150 906 150 1154 c 2,47,-1
 150 1155 l 2,48,49
 150 1530 150 1530 544 1530 c 0,40,41
493 1419 m 0,50,51
 305 1419 305 1419 305 1150 c 2,52,-1
 305 1149 l 2,53,54
 305 1016 305 1016 476 1016 c 0,55,56
 658 1016 658 1016 658 1287 c 2,57,-1
 658 1288 l 2,58,59
 658 1419 658 1419 493 1419 c 0,50,51
378 0 m 17,60,-1
 1076 1510 l 1,61,-1
 1254 1510 l 1,62,-1
 554 0 l 9,63,-1
 378 0 l 17,60,-1
EndSplineSet
Validated: 1
EndChar

StartChar: minute
Encoding: 8242 8242 141
Width: 496
GlyphClass: 2
Flags: W
HStem: 1120 410
VStem: 50 396
LayerCount: 2
Fore
SplineSet
446 1530 m 1,0,-1
 207 1120 l 1,1,-1
 50 1120 l 1,2,-1
 240 1530 l 1,3,-1
 446 1530 l 1,0,-1
EndSplineSet
Validated: 1
EndChar

StartChar: second
Encoding: 8243 8243 142
Width: 829
GlyphClass: 2
Flags: W
HStem: 1120 410
LayerCount: 2
Fore
SplineSet
779 1530 m 1,0,-1
 540 1120 l 1,1,-1
 383 1120 l 1,2,-1
 573 1530 l 1,3,-1
 779 1530 l 1,0,-1
446 1530 m 1,4,-1
 207 1120 l 1,5,-1
 50 1120 l 1,6,-1
 240 1530 l 1,7,-1
 446 1530 l 1,4,-1
EndSplineSet
Validated: 1
EndChar

StartChar: guilsinglleft
Encoding: 8249 8249 143
Width: 873
GlyphClass: 2
Flags: W
HStem: 131 279<394 673> 1202 205<468 673>
VStem: 150 523
DStem2: 150 859 298 799 0.690413 0.723415<58.7762 609.217> 298 799 150 678 0.691073 -0.722785<0 540.316>
LayerCount: 2
Fore
SplineSet
673 1407 m 1,0,-1
 673 1202 l 1,1,-1
 298 799 l 1,2,-1
 673 410 l 1,3,-1
 673 131 l 1,4,-1
 150 678 l 1,5,-1
 150 859 l 1,6,-1
 673 1407 l 1,0,-1
EndSplineSet
Validated: 19457
EndChar

StartChar: guilsinglright
Encoding: 8250 8250 144
Width: 873
GlyphClass: 2
Flags: W
HStem: 124 205<200 405> 1121 280<200 480>
VStem: 200 523
DStem2: 200 1401 200 1121 0.685815 -0.727776<203.777 744.063> 200 329 200 124 0.691073 0.722785<0 550.435>
LayerCount: 2
Fore
SplineSet
200 124 m 1,0,-1
 200 329 l 1,1,-1
 575 732 l 1,2,-1
 200 1121 l 1,3,-1
 200 1401 l 1,4,-1
 723 846 l 1,5,-1
 723 671 l 1,6,-1
 200 124 l 1,0,-1
EndSplineSet
Validated: 19457
EndChar

StartChar: fraction
Encoding: 8260 8260 145
Width: 1096
GlyphClass: 2
Flags: W
DStem2: 50 -132 195 -200 0.420342 0.907366<0 2023.79>
LayerCount: 2
Fore
SplineSet
900 1705 m 1,0,-1
 1046 1637 l 1,1,-1
 195 -200 l 1,2,-1
 50 -132 l 1,3,-1
 900 1705 l 1,0,-1
EndSplineSet
Validated: 19457
EndChar

StartChar: Euro
Encoding: 8364 8364 146
Width: 1528
GlyphClass: 2
Flags: W
HStem: -20 124<574.577 960.815> 560 120<100 260 460 961> 818 120<100 260 461 961> 1406 124<633.844 995.575>
VStem: 260 200<214.985 560 680 818 938 1168.67> 1122 202<308.3 472 1145 1285.52>
LayerCount: 2
Fore
SplineSet
1324 497 m 1,0,1
 1277 -20 1277 -20 685 -20 c 0,2,3
 260 -20 260 -20 260 365 c 2,4,-1
 260 560 l 1,5,-1
 100 560 l 1,6,-1
 100 680 l 1,7,-1
 260 680 l 1,8,-1
 260 818 l 1,9,-1
 100 818 l 1,10,-1
 100 938 l 1,11,-1
 261 938 l 1,12,13
 286 1530 286 1530 903 1530 c 0,14,15
 1328 1530 1328 1530 1328 1145 c 1,16,-1
 1128 1090 l 1,17,18
 1128 1406 1128 1406 801 1406 c 0,19,20
 478 1406 478 1406 461 938 c 1,21,-1
 961 938 l 1,22,-1
 961 818 l 1,23,-1
 460 818 l 1,24,-1
 460 680 l 1,25,-1
 961 680 l 1,26,-1
 961 560 l 1,27,-1
 460 560 l 1,28,-1
 460 365 l 2,29,30
 460 104 460 104 787 104 c 0,31,32
 1084 104 1084 104 1122 472 c 1,33,-1
 1324 497 l 1,0,1
EndSplineSet
Validated: 1
EndChar

StartChar: afii61248
Encoding: 8453 8453 147
Width: 1723
GlyphClass: 2
Flags: W
HStem: -20 112<1158.79 1378.86> 0 21G<431 616.272> 705 113<317.53 540.622 1200.89 1394.1> 1418 112<344.145 551.936> 1490 20G<1119.75 1307>
VStem: 150 150<838.057 1373.45> 582 154<859.742 999 1295 1386.57> 991 150<113.057 642.347> 1423 150<136.555 671.943>
DStem2: 431 0 607 0 0.420582 0.907255<74.0224 1663.52>
LayerCount: 2
Fore
SplineSet
991 476 m 2,0,1
 991 805 991 805 1337 805 c 0,2,3
 1573 805 1573 805 1573 587 c 2,4,-1
 1573 309 l 2,5,6
 1573 -20 1573 -20 1227 -20 c 0,7,8
 991 -20 991 -20 991 198 c 2,9,-1
 991 476 l 2,0,1
1141 476 m 2,10,-1
 1141 198 l 2,11,12
 1141 93 1141 93 1277 92 c 0,13,14
 1423 92 1423 92 1423 309 c 2,15,-1
 1423 587 l 2,16,17
 1423 692 1423 692 1291 692 c 0,18,19
 1141 692 1141 692 1141 476 c 2,10,-1
736 1018 m 1,20,21
 736 705 736 705 386 705 c 0,22,23
 150 705 150 705 150 923 c 2,24,-1
 150 1201 l 2,25,26
 150 1530 150 1530 496 1530 c 0,27,28
 736 1530 736 1530 736 1295 c 1,29,-1
 584 1253 l 1,30,31
 584 1418 584 1418 446 1418 c 0,32,33
 300 1418 300 1418 300 1201 c 2,34,-1
 300 923 l 2,35,36
 300 818 300 818 432 818 c 0,37,38
 582 818 582 818 582 999 c 1,39,-1
 736 1018 l 1,20,21
431 0 m 17,40,-1
 1129 1510 l 1,41,-1
 1307 1510 l 1,42,-1
 607 0 l 9,43,-1
 431 0 l 17,40,-1
EndSplineSet
Validated: 19457
EndChar

StartChar: afii61289
Encoding: 8467 8467 148
Width: 1158
GlyphClass: 2
Flags: W
HStem: -20 136<558.838 669.963> 0 21G<150 363.84> 1510 20G<714 839>
LayerCount: 2
Fore
SplineSet
487 479 m 1,0,1
 629 778 629 778 681 968 c 0,2,3
 740 1180 740 1180 755 1415 c 1,4,5
 616 1111 616 1111 571 926 c 0,6,7
 517 700 517 700 487 479 c 1,0,1
150 0 m 1,8,9
 264 144 264 144 340 296 c 1,10,11
 332 374 332 374 332 448 c 0,12,13
 332 596 332 596 418 954 c 0,14,15
 490 1252 490 1252 609 1445 c 0,16,17
 661 1530 661 1530 767 1530 c 2,18,-1
 770 1530 l 2,19,20
 908 1530 908 1530 908 1344 c 2,21,-1
 908 1338 l 2,22,23
 908 1246 908 1246 878 1092 c 0,24,25
 811 746 811 746 522 272 c 1,26,27
 555 116 555 116 611 116 c 0,28,29
 638 116 638 116 665 154 c 0,30,31
 677 170 677 170 716 228 c 1,32,-1
 892 228 l 1,33,34
 821 91 821 91 749 33 c 0,35,36
 683 -20 683 -20 602 -20 c 0,37,38
 474 -20 474 -20 403 81 c 1,39,-1
 351 0 l 1,40,-1
 150 0 l 1,8,9
EndSplineSet
Validated: 1
EndChar

StartChar: trademark
Encoding: 8482 8482 149
Width: 1756
GlyphClass: 2
Flags: W
HStem: 1396 114<167.72 355 505 710>
VStem: 355 150<755 1396> 805 150<755 1416.5> 1078 150<1086 1301.14> 1352 150<770.035 1418>
LayerCount: 2
Fore
SplineSet
150 1473 m 1,0,1
 201 1510 201 1510 325 1510 c 2,2,-1
 710 1510 l 1,3,-1
 710 1396 l 1,4,-1
 505 1396 l 1,5,-1
 505 755 l 1,6,-1
 355 755 l 1,7,-1
 355 1396 l 1,8,-1
 322 1397 l 2,9,10
 212 1397 212 1397 150 1337 c 1,11,-1
 150 1473 l 1,0,1
751 1510 m 1,12,-1
 905 1510 l 2,13,14
 1087 1510 1087 1510 1152 1305 c 1,15,16
 1213 1510 1213 1510 1377 1510 c 2,17,-1
 1502 1510 l 1,18,-1
 1502 919 l 2,19,20
 1502 835 1502 835 1556 755 c 1,21,-1
 1387 755 l 1,22,23
 1352 810 1352 810 1352 930 c 2,24,-1
 1352 1418 l 1,25,26
 1228 1394 1228 1394 1228 1086 c 1,27,-1
 1078 1086 l 1,28,29
 1077 1365 1077 1365 953 1417 c 1,30,31
 955 1401 955 1401 955 1385 c 2,32,-1
 955 755 l 1,33,-1
 805 755 l 1,34,-1
 805 1346 l 2,35,36
 805 1460 805 1460 751 1510 c 1,12,-1
EndSplineSet
Validated: 1
EndChar

StartChar: uni2126
Encoding: 8486 8486 150
Width: 1448
GlyphClass: 2
Flags: W
HStem: 0 127<215.869 447 1001 1235.69> 50 147<160 268.539 1184.7 1288> 1406 124<565.278 934.427>
VStem: 190 210<453.993 1187.44> 447 127<127 256.747> 874 127<127 301.539> 1048 210<532.515 1304.05>
LayerCount: 2
Fore
SplineSet
574 0 m 1,0,-1
 447 0 l 2,1,2
 281 0 281 0 160 50 c 1,3,-1
 160 197 l 1,4,5
 296 127 296 127 447 127 c 1,6,-1
 447 245 l 1,7,8
 190 311 190 311 190 612 c 2,9,-1
 190 921 l 2,10,11
 190 1530 190 1530 833 1530 c 0,12,13
 1258 1530 1258 1530 1258 1145 c 2,14,-1
 1258 807 l 2,15,16
 1258 419 1258 419 1001 278 c 1,17,-1
 1001 127 l 1,18,19
 1163 127 1163 127 1288 197 c 1,20,-1
 1288 50 l 1,21,22
 1167 0 1167 0 1001 0 c 2,23,-1
 874 0 l 1,24,-1
 874 354 l 1,25,26
 1048 442 1048 442 1048 807 c 2,27,-1
 1048 1145 l 2,28,29
 1048 1406 1048 1406 731 1406 c 0,30,31
 400 1406 400 1406 400 921 c 2,32,-1
 400 612 l 2,33,34
 400 411 400 411 574 366 c 1,35,-1
 574 0 l 1,0,-1
EndSplineSet
Validated: 1
EndChar

StartChar: estimated
Encoding: 8494 8494 151
Width: 1430
GlyphClass: 2
Flags: W
HStem: -20 85<547.242 885.171> 529 80<398 1033> 1044 84<535.274 896.49>
VStem: 150 248<332.604 529 609 775.465> 1033 247<609 769.25>
LayerCount: 2
Fore
SplineSet
1202 269 m 1,0,1
 1098 117 1098 117 998 61 c 0,2,3
 853 -20 853 -20 715 -20 c 0,4,5
 466 -20 466 -20 317 144 c 0,6,7
 150 329 150 329 150 554 c 0,8,9
 150 772 150 772 306 954 c 24,10,11
 455 1128 455 1128 716 1128 c 0,12,13
 957 1128 957 1128 1107 970 c 280,14,15
 1280 789 1280 789 1280 529 c 1,16,-1
 398 529 l 1,17,-1
 398 220 l 1,18,19
 544 65 544 65 716 65 c 256,20,21
 827 65 827 65 930 132 c 0,22,23
 1014 187 1014 187 1063 269 c 1,24,-1
 1202 269 l 1,0,1
398 890 m 1,25,26
 398 609 l 1,27,-1
 1033 609 l 1,28,-1
 1033 889 l 1,29,30
 908 1044 908 1044 716 1044 c 0,31,32
 522 1044 522 1044 398 890 c 1,25,26
EndSplineSet
Validated: 19457
EndChar

StartChar: partialdiff
Encoding: 8706 8706 152
Width: 1285
GlyphClass: 2
Flags: W
HStem: -20 153<399.379 663.581> 870 140<547.102 824.163> 1325 152<492 830.231>
VStem: 150 188<198.966 602.91> 953 182<873.869 1171.56>
LayerCount: 2
Fore
SplineSet
420 1415 m 1,0,1
 554 1477 554 1477 703 1477 c 0,2,3
 1135 1477 1135 1477 1135 934 c 0,4,5
 1135 545 1135 545 966.5 262.5 c 128,-1,6
 798 -20 798 -20 512 -20 c 0,7,8
 150 -20 150 -20 150 375 c 0,9,10
 150 624 150 624 288 817 c 128,-1,11
 426 1010 426 1010 670 1010 c 0,12,13
 854 1010 854 1010 953 862 c 1,14,15
 953 1103 953 1103 898 1204 c 0,16,17
 832 1325 832 1325 678 1325 c 0,18,19
 547 1325 547 1325 420 1241 c 1,20,-1
 420 1415 l 1,0,1
920 680 m 1,21,22
 898 765 898 765 834.5 817.5 c 128,-1,23
 771 870 771 870 695 870 c 0,24,25
 535 870 535 870 436.5 710 c 128,-1,26
 338 550 338 550 338 369 c 0,27,28
 338 133 338 133 525 133 c 0,29,30
 663 133 663 133 772.5 286 c 128,-1,31
 882 439 882 439 920 680 c 1,21,22
EndSplineSet
Validated: 1
EndChar

StartChar: uni2206
Encoding: 8710 8710 153
Width: 1237
GlyphClass: 2
Flags: W
HStem: 0 117<186 978> 1490 20G<514.232 722.768>
DStem2: 10 0 186 117 0.320553 0.947231<167.243 1439.69> 716 1510 580 1327 0.320553 -0.947231<129.748 1403.48>
LayerCount: 2
Fore
SplineSet
10 0 m 1,0,-1
 521 1510 l 1,1,-1
 716 1510 l 1,2,-1
 1227 0 l 1,3,-1
 10 0 l 1,0,-1
580 1327 m 1,4,-1
 186 117 l 1,5,-1
 978 117 l 1,6,-1
 580 1327 l 1,4,-1
EndSplineSet
Validated: 19457
EndChar

StartChar: product
Encoding: 8719 8719 154
Width: 1406
GlyphClass: 2
Flags: W
HStem: -410 20G<200 400 1006 1206> 1383 127<400 1006>
VStem: 200 200<-410 1383> 1006 200<-411 1383>
LayerCount: 2
Fore
SplineSet
200 1510 m 1,0,-1
 1206 1510 l 1,1,-1
 1206 -411 l 1,2,-1
 1006 -411 l 1,3,-1
 1006 1383 l 1,4,-1
 400 1383 l 1,5,-1
 400 -410 l 1,6,-1
 200 -410 l 1,7,-1
 200 1510 l 1,0,-1
EndSplineSet
Validated: 19457
EndChar

StartChar: summation
Encoding: 8721 8721 155
Width: 1407
GlyphClass: 2
Flags: W
HStem: -410 127<455 1205.45> 1383 127<467 1169>
DStem2: 467 1383 150 1510 0.525415 -0.850846<0 825.468> 150 -410 455 -283 0.506484 0.862249<263.983 1141.2>
LayerCount: 2
Fore
SplineSet
150 1510 m 1,0,-1
 1169 1510 l 17,1,-1
 1169 1383 l 9,2,-1
 467 1383 l 1,3,-1
 969 570 l 1,4,-1
 455 -283 l 1,5,-1
 957 -283 l 2,6,7
 1139 -283 1139 -283 1257 -213 c 1,8,-1
 1257 -360 l 1,9,10
 1136 -410 1136 -410 957 -410 c 2,11,-1
 150 -410 l 1,12,-1
 728 574 l 1,13,-1
 150 1510 l 1,0,-1
EndSplineSet
Validated: 19457
EndChar

StartChar: minus
Encoding: 8722 8722 156
Width: 1183
GlyphClass: 2
Flags: W
HStem: 693 150<150 1033>
LayerCount: 2
Fore
SplineSet
1033 693 m 1,0,-1
 150 693 l 1,1,-1
 150 843 l 1,2,-1
 1033 843 l 1,3,-1
 1033 693 l 1,0,-1
EndSplineSet
Validated: 19457
EndChar

StartChar: uni2215
Encoding: 8725 8725 157
Width: 1096
GlyphClass: 2
Flags: W
DStem2: 50 -132 195 -200 0.420342 0.907366<0 2023.79>
LayerCount: 2
Fore
SplineSet
900 1705 m 1,0,-1
 1046 1637 l 1,1,-1
 195 -200 l 1,2,-1
 50 -132 l 1,3,-1
 900 1705 l 1,0,-1
EndSplineSet
Validated: 19457
EndChar

StartChar: uni2219
Encoding: 8729 8729 158
Width: 552
GlyphClass: 2
Flags: W
HStem: 638 255<170.795 381.205>
VStem: 150 252<659.042 871.958>
LayerCount: 2
Fore
SplineSet
276 638 m 152,-1,1
 150 638 150 638 150 765.5 c 128,-1,2
 150 893 150 893 276 893 c 128,-1,3
 402 893 402 893 402 765.5 c 128,-1,0
 402 638 402 638 276 638 c 152,-1,1
EndSplineSet
Validated: 19457
EndChar

StartChar: radical
Encoding: 8730 8730 159
Width: 1271
GlyphClass: 2
Flags: W
HStem: 0 21G<466.037 657.138> 675 105<100 238> 1413 97<1015 1171>
DStem2: 401 780 238 675 0.328792 -0.944402<45.5692 580.821> 582 228 652 0 0.248821 0.96855<0 1255.47>
LayerCount: 2
Fore
SplineSet
473 0 m 1,0,-1
 238 675 l 1,1,-1
 100 675 l 1,2,-1
 100 780 l 1,3,-1
 401 780 l 1,4,-1
 582 228 l 1,5,-1
 916 1510 l 1,6,-1
 1171 1510 l 1,7,-1
 1171 1413 l 1,8,-1
 1015 1413 l 1,9,-1
 652 0 l 1,10,-1
 473 0 l 1,0,-1
EndSplineSet
Validated: 19457
EndChar

StartChar: infinity
Encoding: 8734 8734 160
Width: 1452
GlyphClass: 2
Flags: W
HStem: 444 135<343.231 609.266 839.704 1103.21> 937 131<341.509 611.806 837.82 1104.65>
VStem: 150 146<625.694 892.75> 657 135<627.654 890.207> 1153 149<627.271 891.486>
LayerCount: 2
Fore
SplineSet
475 579 m 0,0,1
 657 579 657 579 657 762 c 0,2,3
 657 937 657 937 475 937 c 0,4,5
 296 937 296 937 296 761 c 0,6,7
 296 579 296 579 475 579 c 0,0,1
466 444 m 0,8,9
 150 444 150 444 150 756 c 128,-1,10
 150 1068 150 1068 478 1068 c 0,11,12
 630 1068 630 1068 726 938 c 1,13,14
 820 1067 820 1067 974 1068 c 0,15,16
 1302 1068 1302 1068 1302 756 c 128,-1,17
 1302 444 1302 444 974 444 c 0,18,19
 806 444 806 444 726 574 c 1,20,21
 632 444 632 444 466 444 c 0,8,9
971 579 m 0,22,23
 1153 579 1153 579 1153 762 c 0,24,25
 1153 937 1153 937 971 937 c 0,26,27
 792 937 792 937 792 761 c 0,28,29
 792 579 792 579 971 579 c 0,22,23
EndSplineSet
Validated: 1
EndChar

StartChar: approxequal
Encoding: 8776 8776 161
Width: 1208
GlyphClass: 2
Flags: W
HStem: 410 148<663.038 955> 619 146<249 523> 831 148<663.038 955> 1040 146<249 523>
VStem: 150 200<466 596.812 887 1017.81> 858 200<578.188 709 999.188 1130>
LayerCount: 2
Fore
SplineSet
150 466 m 1,0,1
 150 765 150 765 348 765 c 0,2,3
 524 765 524 765 628 625 c 0,4,5
 678 558 678 558 770 558 c 0,6,7
 858 558 858 558 858 765 c 1,8,-1
 1058 709 l 1,9,10
 1058 410 1058 410 852 410 c 0,11,12
 654 410 654 410 568 546 c 0,13,14
 522 619 522 619 440 619 c 0,15,16
 350 619 350 619 350 410 c 1,17,-1
 150 466 l 1,0,1
150 887 m 1,18,19
 150 1186 150 1186 348 1186 c 0,20,21
 524 1186 524 1186 628 1046 c 0,22,23
 678 979 678 979 770 979 c 0,24,25
 858 979 858 979 858 1186 c 1,26,-1
 1058 1130 l 1,27,28
 1058 831 1058 831 852 831 c 0,29,30
 654 831 654 831 568 967 c 0,31,32
 522 1040 522 1040 440 1040 c 0,33,34
 350 1040 350 1040 350 831 c 1,35,-1
 150 887 l 1,18,19
EndSplineSet
Validated: 19457
EndChar

StartChar: notequal
Encoding: 8800 8800 162
Width: 1183
GlyphClass: 2
Flags: W
HStem: 0 21G<154 339.256> 551 150<150 409 655 1033> 839 150<150 542 788 1033> 1490 20G<842.749 1030>
DStem2: 154 0 330 0 0.420582 0.907255<74.0224 607.146 846.697 924.372 1163.92 1663.52>
LayerCount: 2
Fore
SplineSet
154 0 m 1,0,-1
 409 551 l 1,1,-1
 150 551 l 1,2,-1
 150 701 l 1,3,-1
 478 701 l 1,4,-1
 542 839 l 1,5,-1
 150 839 l 1,6,-1
 150 989 l 1,7,-1
 611 989 l 1,8,-1
 852 1510 l 1,9,-1
 1030 1510 l 1,10,-1
 788 989 l 1,11,-1
 1033 989 l 1,12,-1
 1033 839 l 1,13,-1
 719 839 l 1,14,-1
 655 701 l 1,15,-1
 1033 701 l 1,16,-1
 1033 551 l 1,17,-1
 585 551 l 1,18,-1
 330 0 l 1,19,-1
 154 0 l 1,0,-1
EndSplineSet
Validated: 19457
EndChar

StartChar: lessequal
Encoding: 8804 8804 163
Width: 1256
GlyphClass: 2
Flags: W
HStem: 88 150<200 1056> 270 219<837 1056> 1336 175<881 1056>
DStem2: 200 985 374 918 0.852 0.523542<113.171 913.075> 374 918 200 796 0.852 -0.523542<0 805.663>
LayerCount: 2
Fore
SplineSet
1056 88 m 1,0,-1
 200 88 l 1,1,-1
 200 238 l 1,2,-1
 1056 238 l 1,3,-1
 1056 88 l 1,0,-1
200 796 m 1,4,-1
 200 985 l 1,5,-1
 1056 1511 l 1,6,-1
 1056 1336 l 1,7,-1
 374 918 l 1,8,-1
 1056 489 l 1,9,-1
 1056 270 l 1,10,-1
 200 796 l 1,4,-1
EndSplineSet
Validated: 19457
EndChar

StartChar: greaterequal
Encoding: 8805 8805 164
Width: 1256
GlyphClass: 2
Flags: W
HStem: 88 150<200 1056> 270 174<200 374> 1291 220<200 420>
DStem2: 200 1511 200 1291 0.851556 -0.524264<115.338 920.484> 200 444 200 270 0.852444 0.522819<0 800.428>
LayerCount: 2
Fore
SplineSet
1056 88 m 1,0,-1
 200 88 l 1,1,-1
 200 238 l 1,2,-1
 1056 238 l 1,3,-1
 1056 88 l 1,0,-1
1056 984 m 1,4,-1
 1056 795 l 1,5,-1
 200 270 l 1,6,-1
 200 444 l 1,7,-1
 882 863 l 1,8,-1
 200 1291 l 1,9,-1
 200 1511 l 1,10,-1
 1056 984 l 1,4,-1
EndSplineSet
Validated: 19457
EndChar

StartChar: lozenge
Encoding: 9674 9674 165
Width: 1233
GlyphClass: 2
Flags: W
HStem: 0 21G<602.558 629.414> 1491 20G<604.141 629.883>
DStem2: 307 804 120 738 0.557811 -0.829968<0 640.668> 120 738 307 804 0.540813 0.841143<156.647 653.063> 617 1511 581 1218 0.54153 -0.840681<226.825 871.411> 661 270 616 0 0.557026 0.830495<0 490.353>
LayerCount: 2
Fore
SplineSet
581 1218 m 1,0,-1
 307 804 l 1,1,-1
 661 270 l 1,2,-1
 933 678 l 1,3,-1
 581 1218 l 1,0,-1
617 1511 m 1,4,-1
 1113 741 l 1,5,-1
 616 0 l 1,6,-1
 120 738 l 1,7,-1
 617 1511 l 1,4,-1
EndSplineSet
Validated: 19457
EndChar

StartChar: s
Encoding: 115 115 167
Width: 1158
Flags: W
HStem: -20 116<417.893 731.627> 546 120<422.128 751.652> 1004 116<438.31 713.004>
VStem: 150 190<169.53 265> 190 190<705.777 946.708> 778 190<833 937.752> 818 190<180.958 485.25>
LayerCount: 2
Fore
SplineSet
489 -20 m 0,0,1
 150 -20 150 -20 150 265 c 1,2,-1
 340 316 l 1,3,4
 340 96 340 96 583 96 c 0,5,6
 818 96 818 96 818 352 c 2,7,-1
 818 354 l 2,8,9
 818 546 818 546 586 546 c 0,10,11
 190 546 190 546 190 769 c 2,12,-1
 190 770 l 2,13,14
 190 1120 190 1120 677 1120 c 0,15,16
 968 1120 968 1120 968 833 c 1,17,-1
 778 781 l 1,18,19
 778 1004 778 1004 575 1004 c 0,20,21
 380 1004 380 1004 380 801 c 2,22,-1
 380 799 l 2,23,24
 380 666 380 666 588 666 c 0,25,26
 1008 666 1008 666 1008 370 c 10,27,-1
 1008 369 l 2,28,29
 1008 -20 1008 -20 489 -20 c 0,0,1
EndSplineSet
Validated: 1
EndChar

StartChar: M
Encoding: 77 77 168
Width: 1694
Flags: W
HStem: 0 21G<200 400 1319 1564> 1330 180<389 545.625 1142.26 1294>
VStem: 200 200<0 1327.56> 747 200<662 905.813> 1294 200<52.0093 1330>
CounterMasks: 1 38
LayerCount: 2
Fore
SplineSet
200 0 m 1,0,-1
 200 1210 l 2,1,2
 200 1392 200 1392 130 1510 c 1,3,-1
 350 1510 l 2,4,5
 803 1510 803 1510 843 908 c 1,6,-1
 849 908 l 1,7,8
 882 1510 882 1510 1294 1510 c 2,9,-1
 1494 1510 l 1,10,-1
 1494 300 l 2,11,12
 1494 118 1494 118 1564 0 c 1,13,-1
 1344 0 l 1,14,15
 1294 99 1294 99 1294 300 c 2,16,-1
 1294 1330 l 1,17,18
 947 1330 947 1330 947 662 c 1,19,-1
 747 662 l 1,20,21
 747 1330 747 1330 389 1330 c 1,22,23
 400 1268 400 1268 400 1210 c 2,24,-1
 400 0 l 1,25,-1
 200 0 l 1,0,-1
EndSplineSet
Validated: 1
EndChar

StartChar: N
Encoding: 78 78 169
Width: 1406
Flags: W
HStem: 0 21G<200 400 1015 1205.01> 1330 180<390 586.381>
VStem: 200 200<0 1327.56> 1015 191<0 517.891 900 1510>
LayerCount: 2
Fore
SplineSet
200 0 m 1,0,-1
 200 1210 l 2,1,2
 200 1392 200 1392 130 1510 c 1,3,-1
 350 1510 l 2,4,5
 888 1510 888 1510 1008 900 c 1,6,-1
 1015 900 l 1,7,-1
 1015 1510 l 1,8,-1
 1206 1510 l 1,9,-1
 1205 0 l 1,10,-1
 1015 0 l 1,11,12
 1015 1329 1015 1329 390 1330 c 1,13,14
 400 1272 400 1272 400 1210 c 2,15,-1
 400 0 l 1,16,-1
 200 0 l 1,0,-1
EndSplineSet
Validated: 1
EndChar

StartChar: W
Encoding: 87 87 170
Width: 1896
Flags: W
HStem: -20 150<446.708 676.052> -20 107<1123.08 1370.85> 1080 20G<868 1068> 1490 20G<130 375 1516 1716>
VStem: 200 200<177.387 1451.53> 868 200<141.492 300 496.077 1100> 1516 200<295.554 1510>
LayerCount: 2
Fore
SplineSet
504 -20 m 0,0,1
 200 -20 200 -20 200 279 c 2,2,-1
 200 1210 l 2,3,4
 200 1371 200 1371 130 1510 c 9,5,-1
 350 1510 l 17,6,7
 400 1393 400 1393 400 1210 c 2,8,-1
 400 335 l 2,9,10
 400 130 400 130 555 130 c 0,11,12
 868 130 868 130 868 1022 c 2,13,-1
 868 1100 l 1,14,-1
 1068 1100 l 1,15,-1
 1068 335 l 2,16,17
 1068 87 1068 87 1223 87 c 0,18,19
 1516 87 1516 87 1516 549 c 2,20,-1
 1516 1510 l 25,21,-1
 1716 1510 l 25,22,-1
 1716 589 l 18,23,24
 1716 -20 1716 -20 1172 -20 c 0,25,26
 868 -20 868 -20 868 279 c 2,27,-1
 868 300 l 1,28,29
 788 -20 788 -20 504 -20 c 0,0,1
EndSplineSet
Validated: 1
EndChar

StartChar: A
Encoding: 65 65 171
Width: 1386
Flags: W
HStem: 0 21G<180 380 1011 1256> 719 127<380 986> 1407 123<532.206 875.654>
VStem: 180 200<0 719 846 1201.56> 986 200<52.3682 719 846 1304.32>
LayerCount: 2
Fore
SplineSet
986 846 m 1,0,-1
 986 1145 l 2,1,2
 986 1407 986 1407 683 1407 c 128,-1,3
 380 1407 380 1407 380 921 c 2,4,-1
 380 846 l 1,5,-1
 986 846 l 1,0,-1
180 0 m 1,6,-1
 180 921 l 2,7,8
 180 1530 180 1530 761 1530 c 0,9,10
 1186 1530 1186 1530 1186 1145 c 2,11,-1
 1186 300 l 2,12,13
 1186 118 1186 118 1256 0 c 1,14,-1
 1036 0 l 1,15,16
 986 100 986 100 986 300 c 2,17,-1
 986 719 l 1,18,-1
 380 719 l 1,19,-1
 380 0 l 1,20,-1
 180 0 l 1,6,-1
EndSplineSet
Validated: 1
EndChar

StartChar: onequarter
Encoding: 188 188 172
Width: 1530
Flags: W
HStem: 0 21G<186 371.272 1180 1330> 222 113<970 1180> 1396 114<150 267.116>
VStem: 150 233<1396.95 1510> 268 150<705 1393.77> 820 150<335 805> 1180 150<0 222 335 655>
DStem2: 186 0 362 0 0.420582 0.907255<74.0224 1663.52>
LayerCount: 2
Fore
SplineSet
150 1510 m 1,0,-1
 383 1510 l 1,1,2
 418 1454 418 1454 418 1335 c 2,3,-1
 418 705 l 1,4,-1
 268 705 l 1,5,-1
 268 1335 l 2,6,7
 267 1366 267 1366 261 1396 c 1,8,-1
 150 1396 l 1,9,-1
 150 1510 l 1,0,-1
186 0 m 17,10,-1
 884 1510 l 1,11,-1
 1062 1510 l 1,12,-1
 362 0 l 9,13,-1
 186 0 l 17,10,-1
1180 0 m 1,14,-1
 1180 222 l 1,15,-1
 820 222 l 1,16,-1
 820 805 l 17,17,-1
 970 805 l 9,18,-1
 970 335 l 1,19,-1
 1180 335 l 1,20,-1
 1180 655 l 1,21,-1
 1330 655 l 1,22,-1
 1330 0 l 1,23,-1
 1180 0 l 1,14,-1
EndSplineSet
Validated: 19457
EndChar

StartChar: onehalf
Encoding: 189 189 173
Width: 1541
Flags: W
HStem: 0 113<951 1325.46> 325 114<992.467 1151.04> 702 113<871.157 1171.56> 1396 114<150 267.116>
VStem: 150 233<1396.95 1510> 268 150<705 1393.77> 797 154<113 292.274> 1191 150<477.438 681.902>
DStem2: 186 0 362 0 0.420582 0.907255<74.0224 1663.52>
LayerCount: 2
Fore
SplineSet
861 784 m 1,0,1
 970 815 970 815 1051 815 c 2,2,-1
 1103 815 l 2,3,4
 1341 815 1341 815 1341 597 c 2,5,-1
 1341 596 l 2,6,7
 1341 325 1341 325 1064 325 c 0,8,9
 955 325 955 325 951 113 c 1,10,-1
 1157 113 l 2,11,12
 1283 113 1283 113 1333 163 c 1,13,-1
 1333 33 l 1,14,15
 1253 0 1253 0 1157 0 c 2,16,-1
 797 0 l 1,17,18
 797 439 797 439 1035 439 c 0,19,20
 1191 439 1191 439 1191 596 c 2,21,-1
 1191 597 l 2,22,23
 1191 702 1191 702 1053 702 c 2,24,-1
 1036 702 l 2,25,26
 965 702 965 702 861 653 c 1,27,-1
 861 784 l 1,0,1
150 1510 m 1,28,-1
 383 1510 l 1,29,30
 418 1454 418 1454 418 1335 c 2,31,-1
 418 705 l 1,32,-1
 268 705 l 1,33,-1
 268 1335 l 2,34,35
 267 1366 267 1366 261 1396 c 1,36,-1
 150 1396 l 1,37,-1
 150 1510 l 1,28,-1
186 0 m 17,38,-1
 884 1510 l 1,39,-1
 1062 1510 l 1,40,-1
 362 0 l 9,41,-1
 186 0 l 17,38,-1
EndSplineSet
Validated: 19457
EndChar

StartChar: threequarters
Encoding: 190 190 174
Width: 1745
Flags: W
HStem: 0 21G<393 578.272 1395 1545> 222 113<1185 1395> 716 112<333.533 548.489> 1108 114<286 496.369> 1417 113<264.157 534.805> 1490 20G<1081.75 1269>
VStem: 150 150<860.043 952> 540 144<1266.31 1407.5> 584 150<867.282 1087.74> 1035 150<335 805> 1395 150<0 222 335 655>
DStem2: 393 0 569 0 0.420582 0.907255<74.0224 1663.52>
LayerCount: 2
Fore
SplineSet
1395 0 m 1,0,-1
 1395 222 l 1,1,-1
 1035 222 l 1,2,-1
 1035 805 l 17,3,-1
 1185 805 l 9,4,-1
 1185 335 l 1,5,-1
 1395 335 l 1,6,-1
 1395 655 l 1,7,-1
 1545 655 l 1,8,-1
 1545 0 l 1,9,-1
 1395 0 l 1,0,-1
254 1499 m 1,10,11
 363 1530 363 1530 444 1530 c 2,12,-1
 458 1530 l 2,13,14
 684 1530 684 1530 684 1370 c 2,15,-1
 684 1367 l 2,16,17
 684 1275 684 1275 556 1200 c 1,18,19
 734 1168 734 1168 734 1034 c 2,20,-1
 734 1022 l 2,21,22
 734 716 734 716 390 716 c 0,23,24
 150 716 150 716 150 952 c 1,25,-1
 300 993 l 1,26,27
 300 828 300 828 442 828 c 128,-1,28
 584 828 584 828 584 1003 c 2,29,-1
 584 1015 l 2,30,31
 584 1108 584 1108 446 1108 c 2,32,-1
 286 1108 l 1,33,-1
 286 1222 l 1,34,35
 540 1223 540 1223 540 1346 c 2,36,-1
 540 1361 l 2,37,38
 540 1417 540 1417 444 1417 c 2,39,-1
 429 1417 l 2,40,41
 359 1417 359 1417 254 1368 c 1,42,-1
 254 1499 l 1,10,11
393 0 m 17,43,-1
 1091 1510 l 1,44,-1
 1269 1510 l 1,45,-1
 569 0 l 9,46,-1
 393 0 l 17,43,-1
EndSplineSet
Validated: 1
EndChar

StartChar: AE
Encoding: 198 198 175
Width: 1897
Flags: W
HStem: 0 127<1186 1765.45> 698 130<380 986 1186 1668> 1383 127<1124 1668> 1410 120<532.206 880.297>
VStem: 180 200<0 698 828 1201.56> 986 200<127 698 828 1307.66>
LayerCount: 2
Fore
SplineSet
180 0 m 1,0,-1
 180 921 l 2,1,2
 180 1530 180 1530 761 1530 c 0,3,4
 858 1530 858 1530 933 1510 c 1,5,-1
 1668 1510 l 1,6,-1
 1668 1383 l 1,7,-1
 1124 1383 l 1,8,9
 1186 1292 1186 1292 1186 1145 c 2,10,-1
 1186 828 l 1,11,-1
 1668 828 l 1,12,-1
 1668 698 l 1,13,-1
 1186 698 l 1,14,-1
 1186 127 l 1,15,-1
 1517 127 l 2,16,17
 1699 127 1699 127 1817 197 c 1,18,-1
 1817 50 l 1,19,20
 1696 0 1696 0 1517 0 c 2,21,-1
 986 0 l 1,22,-1
 986 698 l 1,23,-1
 380 698 l 1,24,-1
 380 0 l 1,25,-1
 180 0 l 1,0,-1
986 828 m 1,26,-1
 986 1148 l 2,27,28
 986 1410 986 1410 683 1410 c 128,-1,29
 380 1410 380 1410 380 924 c 2,30,-1
 380 828 l 1,31,-1
 986 828 l 1,26,-1
EndSplineSet
Validated: 1
EndChar

StartChar: germandbls
Encoding: 223 223 176
Width: 1256
Flags: W
HStem: 0 107<569 751.496> 775 115<569 695.652> 1426 104<517.504 776.746>
VStem: 200 180<0 1229.91> 828 179<1065.98 1373.36> 916 190<289.813 661.379>
LayerCount: 2
Fore
SplineSet
569 0 m 9,0,-1
 569 107 l 1,1,2
 916 107 916 107 916 521 c 10,3,-1
 916 523 l 2,4,5
 916 760 916 760 569 775 c 1,6,-1
 569 890 l 1,7,8
 828 933 828 933 828 1197 c 2,9,-1
 828 1228 l 2,10,11
 828 1426 828 1426 647 1426 c 0,12,13
 380 1426 380 1426 380 924 c 2,14,-1
 380 0 l 1,15,-1
 200 0 l 1,16,-1
 200 923 l 2,17,18
 200 1530 200 1530 671 1530 c 0,19,20
 1007 1530 1007 1530 1007 1243 c 2,21,-1
 1007 1240 l 2,22,23
 1007 991 1007 991 726 876 c 1,24,25
 1106 827 1106 827 1106 563 c 2,26,-1
 1106 561 l 2,27,28
 1106 0 1106 0 569 0 c 9,0,-1
EndSplineSet
Validated: 1
EndChar

StartChar: Eth
Encoding: 208 208 177
Width: 1388
Flags: W
HStem: 0 127<400 851.671> 696 107<90 200 400 649> 1383 127<386 902.609>
VStem: 200 200<127 696 803 1380> 1018 210<342.562 1275.01>
LayerCount: 2
Fore
SplineSet
200 0 m 5,0,-1
 200 696 l 1,1,-1
 90 696 l 1,2,-1
 90 803 l 1,3,-1
 200 803 l 1,4,-1
 200 1210 l 2,5,6
 200 1353 200 1353 130 1510 c 1,7,-1
 803 1510 l 2,8,9
 1228 1510 1228 1510 1228 1125 c 2,10,-1
 1228 609 l 2,11,12
 1228 0 1228 0 586 0 c 2,13,-1
 200 0 l 5,0,-1
386 1383 m 1,14,15
 400 1287 400 1287 400 1210 c 2,16,-1
 400 803 l 1,17,-1
 649 803 l 1,18,-1
 649 696 l 1,19,-1
 400 696 l 1,20,-1
 400 127 l 1,21,-1
 688 127 l 2,22,23
 1018 127 1018 127 1018 609 c 2,24,-1
 1018 1125 l 2,25,26
 1018 1383 1018 1383 700 1383 c 2,27,-1
 386 1383 l 1,14,15
EndSplineSet
Validated: 1
EndChar

StartChar: Dcroat
Encoding: 272 272 178
Width: 1388
Flags: W
HStem: 0 127<400 851.671> 696 107<90 200 400 649> 1383 127<386 902.609>
VStem: 200 200<127 696 803 1380> 1018 210<342.562 1275.01>
LayerCount: 2
Fore
SplineSet
200 0 m 5,0,-1
 200 696 l 1,1,-1
 90 696 l 1,2,-1
 90 803 l 1,3,-1
 200 803 l 1,4,-1
 200 1210 l 2,5,6
 200 1353 200 1353 130 1510 c 1,7,-1
 803 1510 l 2,8,9
 1228 1510 1228 1510 1228 1125 c 2,10,-1
 1228 609 l 2,11,12
 1228 0 1228 0 586 0 c 2,13,-1
 200 0 l 5,0,-1
386 1383 m 1,14,15
 400 1287 400 1287 400 1210 c 2,16,-1
 400 803 l 1,17,-1
 649 803 l 1,18,-1
 649 696 l 1,19,-1
 400 696 l 1,20,-1
 400 127 l 1,21,-1
 688 127 l 2,22,23
 1018 127 1018 127 1018 609 c 2,24,-1
 1018 1125 l 2,25,26
 1018 1383 1018 1383 700 1383 c 2,27,-1
 386 1383 l 1,14,15
EndSplineSet
Validated: 1
EndChar

StartChar: Hbar
Encoding: 294 294 179
Width: 1406
Flags: W
HStem: 0 21G<200 400 1031 1276> 696 127<400 1006> 1230 107<90 190 400 1006 1206 1316> 1490 20G<130 366.5 1006 1206>
VStem: 200 200<0 696 823 1230 1337 1458.75> 1006 200<52.0093 696 823 1230 1337 1510>
LayerCount: 2
Fore
SplineSet
200 0 m 1,0,-1
 200 1230 l 1,1,-1
 90 1230 l 1,2,-1
 90 1337 l 1,3,-1
 190 1337 l 1,4,5
 174 1436 174 1436 130 1510 c 1,6,-1
 350 1510 l 1,7,8
 383 1445 383 1445 394 1337 c 1,9,-1
 1006 1337 l 1,10,-1
 1006 1510 l 1,11,-1
 1206 1510 l 1,12,-1
 1206 1337 l 1,13,-1
 1316 1337 l 1,14,-1
 1316 1230 l 1,15,-1
 1206 1230 l 1,16,-1
 1206 300 l 2,17,18
 1206 118 1206 118 1276 0 c 1,19,-1
 1056 0 l 1,20,21
 1006 99 1006 99 1006 300 c 2,22,-1
 1006 696 l 1,23,-1
 400 696 l 1,24,-1
 400 0 l 1,25,-1
 200 0 l 1,0,-1
1006 1230 m 1,26,-1
 400 1230 l 1,27,-1
 400 823 l 1,28,-1
 1006 823 l 1,29,-1
 1006 1230 l 1,26,-1
EndSplineSet
Validated: 1
EndChar

StartChar: Eng
Encoding: 330 330 180
Width: 1406
Flags: W
HStem: -430 128<805 853.559> 0 21G<200 400> 1330 180<390 602.402>
VStem: 200 200<0 1327.56> 1015 191<-48.2385 784.371 900 1510>
LayerCount: 2
Fore
SplineSet
200 0 m 1,0,-1
 200 1210 l 2,1,2
 200 1392 200 1392 130 1510 c 1,3,-1
 350 1510 l 2,4,5
 888 1510 888 1510 1008 900 c 1,6,-1
 1015 900 l 1,7,-1
 1015 1510 l 1,8,-1
 1206 1510 l 1,9,-1
 1206 319 l 2,10,11
 1206 -331 1206 -331 805 -430 c 1,12,-1
 805 -302 l 1,13,14
 1015 -175 1015 -175 1015 319 c 0,15,16
 1015 1329 1015 1329 390 1330 c 1,17,18
 400 1272 400 1272 400 1210 c 2,19,-1
 400 0 l 1,20,-1
 200 0 l 1,0,-1
EndSplineSet
Validated: 1
EndChar

StartChar: OE
Encoding: 338 338 181
Width: 1939
Flags: W
HStem: -20 124<483.573 852.915> 0 127<1228 1807.45> 698 127<1228 1710> 1383 127<1166 1710> 1406 124<535.278 907.024>
VStem: 160 210<205.953 1187.44> 1018 210<303.044 698 825 1303.36>
LayerCount: 2
Fore
SplineSet
585 -20 m 0,0,1
 160 -20 160 -20 160 365 c 2,2,-1
 160 921 l 2,3,4
 160 1530 160 1530 803 1530 c 0,5,6
 900 1530 900 1530 975 1510 c 1,7,-1
 1710 1510 l 1,8,-1
 1710 1383 l 1,9,-1
 1166 1383 l 1,10,11
 1228 1292 1228 1292 1228 1145 c 2,12,-1
 1228 825 l 1,13,-1
 1710 825 l 1,14,-1
 1710 698 l 1,15,-1
 1228 698 l 1,16,-1
 1228 127 l 1,17,-1
 1559 127 l 2,18,19
 1741 127 1741 127 1859 197 c 1,20,-1
 1859 50 l 1,21,22
 1738 0 1738 0 1559 0 c 2,23,-1
 1028 0 l 1,24,-1
 1028 99 l 1,25,26
 869 -20 869 -20 585 -20 c 0,0,1
687 104 m 0,27,28
 1018 104 1018 104 1018 589 c 2,29,-1
 1018 1145 l 2,30,31
 1018 1406 1018 1406 701 1406 c 0,32,33
 370 1406 370 1406 370 921 c 2,34,-1
 370 365 l 2,35,36
 370 104 370 104 687 104 c 0,27,28
EndSplineSet
Validated: 1
EndChar

StartChar: Oslash
Encoding: 216 216 182
Width: 1388
Flags: W
HStem: -20 124<473.545 855.25> 1406 124<532.75 914.77>
VStem: 160 200<291.064 1187.44> 1028 200<322.562 1214.29>
DStem2: 180 -35 267 -85 0.500198 0.865911<0.22166 137.95 375.458 1506.02 1744.88 1881.26>
LayerCount: 2
Fore
SplineSet
585 -20 m 0,0,1
 432 -20 432 -20 334 30 c 1,2,-1
 267 -85 l 1,3,-1
 180 -35 l 1,4,-1
 252 90 l 1,5,6
 160 186 160 186 160 365 c 2,7,-1
 160 921 l 2,8,9
 160 1530 160 1530 803 1530 c 0,10,11
 957 1530 957 1530 1055 1480 c 1,12,-1
 1121 1594 l 1,13,-1
 1208 1544 l 1,14,-1
 1136 1420 l 1,15,16
 1228 1324 1228 1324 1228 1145 c 2,17,-1
 1228 589 l 2,18,19
 1228 -20 1228 -20 585 -20 c 0,0,1
687 104 m 0,20,21
 1028 104 1028 104 1028 589 c 2,22,-1
 1028 1145 l 2,23,24
 1028 1185 1028 1185 1020 1219 c 1,25,-1
 423 186 l 1,26,27
 504 104 504 104 687 104 c 0,20,21
368 290 m 1,28,-1
 965 1324 l 1,29,30
 884 1406 884 1406 701 1406 c 0,31,32
 360 1406 360 1406 360 921 c 2,33,-1
 360 365 l 2,34,35
 360 324 360 324 368 290 c 1,28,-1
EndSplineSet
Validated: 1
EndChar

StartChar: Tbar
Encoding: 358 358 183
Width: 1040
Flags: W
HStem: 0 21G<420 620> 693 107<217 420 620 823> 1383 127<62.1968 420 620 1030>
VStem: 420 200<0 693 800 1383>
LayerCount: 2
Fore
SplineSet
420 0 m 5,0,-1
 420 693 l 1,1,-1
 217 693 l 1,2,-1
 217 800 l 1,3,-1
 420 800 l 1,4,-1
 420 1383 l 1,5,-1
 310 1383 l 2,6,7
 133 1383 133 1383 10 1313 c 1,8,-1
 10 1460 l 1,9,10
 79 1510 79 1510 310 1510 c 2,11,-1
 1030 1510 l 1,12,-1
 1030 1383 l 1,13,-1
 620 1383 l 1,14,-1
 620 800 l 1,15,-1
 823 800 l 1,16,-1
 823 693 l 1,17,-1
 620 693 l 1,18,-1
 620 0 l 1,19,-1
 420 0 l 5,0,-1
EndSplineSet
Validated: 1
EndChar

StartChar: ae
Encoding: 230 230 184
Width: 1766
Flags: W
HStem: -20 130<301.036 553.719> -20 104<1009.5 1309.54> 576 101<464.119 743> 1016 104<453.617 699.337 1049.05 1350.05>
VStem: 80 190<139.469 415.438> 758 175<164.061 294 677 873.574> 1426 190<239.915 337 764 940.464>
DStem2: 933 521 933 377 0.900925 0.433974<0 549.612>
LayerCount: 2
Fore
SplineSet
743 576 m 1,0,1
 270 576 270 576 270 255 c 2,2,-1
 270 240 l 2,3,4
 270 110 270 110 429 110 c 0,5,6
 586 110 586 110 676 336 c 0,7,8
 724 455 724 455 743 576 c 1,0,1
933 612 m 2,9,-1
 933 521 l 1,10,-1
 1426 764 l 1,11,-1
 1426 790 l 2,12,13
 1426 1016 1426 1016 1189 1016 c 0,14,15
 933 1016 933 1016 933 612 c 2,9,-1
383 -20 m 0,16,17
 80 -20 80 -20 80 204 c 2,18,-1
 80 212 l 2,19,20
 80 677 80 677 758 677 c 1,21,-1
 758 758 l 2,22,23
 758 1016 758 1016 592 1016 c 0,24,25
 430 1016 430 1016 349 839 c 1,26,-1
 197 904 l 1,27,28
 329 1120 329 1120 644 1120 c 0,29,30
 830 1120 830 1120 896 998 c 1,31,32
 1030 1120 1030 1120 1291 1120 c 0,33,34
 1616 1120 1616 1120 1616 789 c 2,35,-1
 1616 706 l 1,36,-1
 933 377 l 1,37,-1
 933 310 l 2,38,39
 933 84 933 84 1175 84 c 0,40,41
 1373 84 1373 84 1415 337 c 1,42,-1
 1606 359 l 1,43,44
 1542 -20 1542 -20 1073 -20 c 0,45,46
 766 -20 766 -20 758 294 c 1,47,48
 679 -20 679 -20 383 -20 c 0,16,17
EndSplineSet
Validated: 1
EndChar

StartChar: dcroat
Encoding: 273 273 185
Width: 1203
Flags: W
HStem: -20 130<391.672 630.584> 0 21G<851.5 1067> 1004 116<464.81 758.953> 1230 107<579 818 1003 1138> 1490 20G<764 971>
VStem: 150 190<166.693 857.566> 828 175<47.6846 295 455.477 934.017 1026 1230 1337 1465.41>
LayerCount: 2
Fore
SplineSet
1067 0 m 1,0,1
 875 0 l 1,2,3
 828 120 828 120 828 295 c 1,4,5
 749 -20 749 -20 454 -20 c 0,6,7
 150 -20 150 -20 150 274 c 2,8,-1
 150 612 l 2,9,10
 150 1120 150 1120 612 1120 c 0,11,12
 744 1120 744 1120 828 1026 c 1,13,-1
 828 1230 l 25,14,-1
 579 1230 l 1,15,-1
 579 1337 l 1,16,-1
 818 1337 l 1,17,18
 803 1427 803 1427 764 1510 c 1,19,-1
 956 1510 l 1,20,21
 986 1434 986 1434 997 1337 c 1,22,-1
 1138 1337 l 1,23,-1
 1138 1230 l 1,24,-1
 1003 1230 l 25,25,-1
 1003 294 l 2,26,27
 1003 137 1003 137 1067 0 c 1,0,1
612 1004 m 0,28,29
 340 1004 340 1004 340 612 c 2,30,-1
 340 330 l 2,31,32
 340 110 340 110 505 110 c 0,33,34
 665 110 665 110 746 337 c 0,35,36
 828 564 828 564 828 761 c 2,37,-1
 828 770 l 2,38,39
 828 1004 828 1004 612 1004 c 0,28,29
EndSplineSet
Validated: 1
EndChar

StartChar: longs
Encoding: 383 383 186
Width: 809
Flags: W
HStem: 0 21G<200 380> 715 108<20 200> 1414 116<487.269 775.178>
VStem: 200 180<0 715 823 1269.12>
LayerCount: 2
Fore
SplineSet
200 0 m 1,0,-1
 200 715 l 1,1,2
 89 715 89 715 10 665 c 1,3,-1
 10 778 l 1,4,5
 86 823 86 823 200 823 c 1,6,-1
 200 1025 l 2,7,8
 200 1530 200 1530 754 1530 c 0,9,10
 778 1530 778 1530 799 1528 c 1,11,-1
 768 1383 l 1,12,13
 709 1414 709 1414 620 1414 c 0,14,15
 380 1414 380 1414 380 1025 c 2,16,-1
 380 0 l 1,17,-1
 200 0 l 1,0,-1
EndSplineSet
Validated: 1
EndChar

StartChar: hbar
Encoding: 295 295 187
Width: 1243
Flags: W
HStem: 0 21G<200 375 886.5 1107> 990 130<571.927 811.724> 1230 107<65 190 375 624> 1490 20G<136 343>
VStem: 200 175<0 574.246 806 1230 1337 1465.41> 863 180<47.9988 933.307>
LayerCount: 2
Fore
SplineSet
200 0 m 1,0,-1
 200 1230 l 17,1,-1
 65 1230 l 1,2,-1
 65 1337 l 1,3,-1
 190 1337 l 1,4,5
 175 1427 175 1427 136 1510 c 1,6,-1
 328 1510 l 1,7,8
 358 1434 358 1434 369 1337 c 1,9,-1
 624 1337 l 1,10,-1
 624 1230 l 1,11,-1
 375 1230 l 9,12,-1
 375 806 l 1,13,14
 454 1120 454 1120 749 1120 c 0,15,16
 1043 1120 1043 1120 1043 826 c 2,17,-1
 1043 295 l 2,18,19
 1043 138 1043 138 1107 0 c 1,20,-1
 910 0 l 1,21,22
 863 121 863 121 863 296 c 2,23,-1
 863 771 l 2,24,25
 863 990 863 990 698 990 c 0,26,27
 375 990 375 990 375 69 c 2,28,-1
 375 0 l 1,29,-1
 200 0 l 1,0,-1
EndSplineSet
Validated: 1
EndChar

StartChar: eng
Encoding: 331 331 188
Width: 1243
Flags: W
HStem: -430 109<663 709.016> 0 21G<200 375> 990 130<571.927 811.724> 1080 20G<136 351.5>
VStem: 200 175<0 574.246 806 1052> 863 180<-53.707 933.307>
LayerCount: 2
Fore
SplineSet
200 0 m 1,0,-1
 200 805 l 2,1,2
 200 962 200 962 136 1100 c 1,3,-1
 328 1100 l 1,4,5
 375 980 375 980 375 806 c 1,6,7
 454 1120 454 1120 749 1120 c 0,8,9
 1043 1120 1043 1120 1043 826 c 2,10,-1
 1043 319 l 2,11,12
 1043 -323 1043 -323 663 -430 c 1,13,-1
 663 -321 l 1,14,15
 863 -190 863 -190 863 320 c 2,16,-1
 863 771 l 2,17,18
 863 990 863 990 698 990 c 0,19,20
 375 990 375 990 375 69 c 2,21,-1
 375 0 l 1,22,-1
 200 0 l 1,0,-1
EndSplineSet
Validated: 1
EndChar

StartChar: eth
Encoding: 240 240 189
Width: 1188
Flags: W
HStem: -20 104<416.939 728.559> 1004 116<464.81 769.967> 1510 20G<505.889 595.5 874.345 920.398>
VStem: 150 190<159.536 857.566> 848 190<242.434 932.475>
DStem2: 425 1250 478 1158 0.865589 0.500754<0 193.127 360.007 558.463>
LayerCount: 2
Fore
SplineSet
612 1004 m 0,0,1
 340 1004 340 1004 340 612 c 2,2,-1
 340 310 l 2,3,4
 340 84 340 84 587 84 c 0,5,6
 848 84 848 84 848 488 c 2,7,-1
 848 790 l 2,8,9
 848 1004 848 1004 612 1004 c 0,0,1
485 -20 m 0,10,11
 150 -20 150 -20 150 311 c 2,12,-1
 150 612 l 2,13,14
 150 1120 150 1120 612 1120 c 0,15,16
 744 1120 744 1120 828 1026 c 1,17,18
 786 1131 786 1131 667 1267 c 1,19,-1
 478 1158 l 1,20,-1
 425 1250 l 1,21,-1
 592 1347 l 1,22,23
 528 1413 528 1413 447 1485 c 1,24,-1
 553 1530 l 1,25,26
 638 1473 638 1473 708 1414 c 1,27,-1
 909 1530 l 1,28,-1
 962 1437 l 1,29,-1
 790 1338 l 1,30,31
 1038 1087 1038 1087 1038 789 c 2,32,-1
 1038 488 l 2,33,34
 1038 -20 1038 -20 485 -20 c 0,10,11
EndSplineSet
Validated: 1
EndChar

StartChar: oslash
Encoding: 248 248 190
Width: 1188
Flags: W
HStem: -20 104<409.642 731.302> 1016 104<456.698 771.763>
VStem: 150 180<230.125 857.566> 858 180<242.434 888.755>
DStem2: 173 -65 260 -114 0.500017 0.866016<1.0667 148.144 336.013 1162.79 1339.31 1469.95>
LayerCount: 2
Fore
SplineSet
485 -20 m 0,0,1
 394 -20 394 -20 328 4 c 1,2,-1
 260 -114 l 1,3,-1
 173 -65 l 1,4,-1
 242 55 l 1,5,6
 150 138 150 138 150 311 c 2,7,-1
 150 612 l 2,8,9
 150 1120 150 1120 703 1120 c 0,10,11
 784 1120 784 1120 846 1101 c 1,12,-1
 908 1208 l 1,13,-1
 995 1159 l 1,14,-1
 935 1054 l 1,15,16
 1038 972 1038 972 1038 789 c 2,17,-1
 1038 488 l 2,18,19
 1038 -20 1038 -20 485 -20 c 0,0,1
601 1016 m 0,20,21
 330 1016 330 1016 330 612 c 2,22,-1
 330 310 l 2,23,24
 330 263 330 263 341 226 c 1,25,-1
 773 975 l 1,26,27
 710 1016 710 1016 601 1016 c 0,20,21
841 892 m 1,28,-1
 403 133 l 1,29,30
 467 84 467 84 587 84 c 0,31,32
 858 84 858 84 858 488 c 2,33,-1
 858 790 l 2,34,35
 858 849 858 849 841 892 c 1,28,-1
EndSplineSet
Validated: 1
EndChar

StartChar: oe
Encoding: 339 339 191
Width: 1871
Flags: W
HStem: -20 104<416.939 730.792 1116.09 1414.54> 1016 104<459.441 769.812 1152.86 1455.05>
VStem: 150 190<159.536 857.566> 848 190<227.512 377 521 873.574> 1531 190<239.915 337 764 940.464>
DStem2: 1038 521 1038 377 0.900925 0.433974<0 549.612>
LayerCount: 2
Fore
SplineSet
485 -20 m 0,0,1
 150 -20 150 -20 150 311 c 2,2,-1
 150 612 l 2,3,4
 150 1120 150 1120 703 1120 c 0,5,6
 908 1120 908 1120 988 996 c 1,7,8
 1125 1120 1125 1120 1396 1120 c 0,9,10
 1721 1120 1721 1120 1721 789 c 2,11,-1
 1721 706 l 1,12,-1
 1038 377 l 1,13,-1
 1038 310 l 2,14,15
 1038 84 1038 84 1280 84 c 0,16,17
 1478 84 1478 84 1520 337 c 1,18,-1
 1711 359 l 1,19,20
 1647 -20 1647 -20 1178 -20 c 0,21,22
 975 -20 975 -20 897 105 c 1,23,24
 759 -20 759 -20 485 -20 c 0,0,1
587 84 m 0,25,26
 848 84 848 84 848 488 c 2,27,-1
 848 790 l 2,28,29
 848 1016 848 1016 601 1016 c 0,30,31
 340 1016 340 1016 340 612 c 2,32,-1
 340 310 l 2,33,34
 340 84 340 84 587 84 c 0,25,26
1038 612 m 2,35,-1
 1038 521 l 1,36,-1
 1531 764 l 1,37,-1
 1531 790 l 2,38,39
 1531 1016 1531 1016 1294 1016 c 0,40,41
 1038 1016 1038 1016 1038 612 c 2,35,-1
EndSplineSet
Validated: 1
EndChar

StartChar: tbar
Encoding: 359 359 192
Width: 800
Flags: W
HStem: 0 21G<333.5 554> 693 107<97 310 490 703> 1002 107<60.2544 310 490 790> 1499 20G<246 466.5>
VStem: 310 180<48.2942 693 800 1002 1109 1471.72>
LayerCount: 2
Fore
SplineSet
357 0 m 1,0,1
 310 121 310 121 310 305 c 2,2,-1
 310 693 l 1,3,-1
 97 693 l 1,4,-1
 97 800 l 1,5,-1
 310 800 l 1,6,-1
 310 1002 l 1,7,8
 146 1002 146 1002 10 937 c 1,9,-1
 10 1062 l 1,10,11
 127 1109 127 1109 310 1109 c 1,12,-1
 310 1229 l 2,13,14
 310 1383 310 1383 246 1519 c 1,15,-1
 443 1519 l 1,16,17
 490 1401 490 1401 490 1229 c 2,18,-1
 490 1109 l 1,19,-1
 790 1109 l 1,20,-1
 790 1002 l 1,21,-1
 490 1002 l 1,22,-1
 490 800 l 1,23,-1
 703 800 l 1,24,-1
 703 693 l 1,25,-1
 490 693 l 1,26,-1
 490 305 l 2,27,28
 490 138 490 138 554 0 c 1,29,-1
 357 0 l 1,0,1
EndSplineSet
Validated: 1
EndChar

StartChar: Thorn
Encoding: 222 222 193
Width: 1294
Flags: W
HStem: 0 21G<200 400> 263 127<400 777.671> 1138 127<400 828.609> 1490 20G<130 371.5>
VStem: 200 200<0 263 390 1138 1265 1458.5> 944 210<605.562 1030.01>
LayerCount: 2
Fore
SplineSet
200 0 m 5,0,-1
 200 1210 l 2,1,2
 200 1392 200 1392 130 1510 c 1,3,-1
 350 1510 l 1,4,5
 393 1404 393 1404 399 1265 c 1,6,-1
 729 1265 l 2,7,8
 1154 1265 1154 1265 1154 880 c 2,9,-1
 1154 872 l 2,10,11
 1154 263 1154 263 512 263 c 2,12,-1
 400 263 l 1,13,-1
 400 0 l 1,14,-1
 200 0 l 5,0,-1
400 1138 m 1,15,-1
 400 390 l 1,16,-1
 614 390 l 2,17,18
 944 390 944 390 944 872 c 2,19,-1
 944 880 l 2,20,21
 944 1138 944 1138 626 1138 c 2,22,-1
 400 1138 l 1,15,-1
EndSplineSet
Validated: 1
EndChar

StartChar: thorn
Encoding: 254 254 194
Width: 1193
Flags: W
HStem: -410 21G<200 375> -20 116<443.812 736.619> 990 130<572.416 810.294> 1490 20G<136 351.5>
VStem: 200 175<-410 74 165.983 644.523 806 1462.32> 863 180<242.434 933.307>
LayerCount: 2
Fore
SplineSet
591 96 m 0,0,1
 863 96 863 96 863 488 c 2,2,-1
 863 770 l 2,3,4
 863 990 863 990 698 990 c 0,5,6
 538 990 538 990 457 763 c 0,7,8
 375 536 375 536 375 339 c 2,9,-1
 375 330 l 2,10,11
 375 96 375 96 591 96 c 0,0,1
591 -20 m 0,12,13
 458 -20 458 -20 375 74 c 1,14,-1
 375 -410 l 1,15,-1
 200 -410 l 9,16,-1
 200 1216 l 2,17,18
 200 1373 200 1373 136 1510 c 1,19,-1
 328 1510 l 1,20,21
 375 1391 375 1391 375 1218 c 2,22,-1
 375 806 l 1,23,24
 454 1120 454 1120 749 1120 c 0,25,26
 1043 1120 1043 1120 1043 826 c 2,27,-1
 1043 488 l 2,28,29
 1043 -20 1043 -20 591 -20 c 0,12,13
EndSplineSet
Validated: 1
EndChar

StartChar: florin
Encoding: 402 402 195
Width: 809
Flags: W
HStem: -430 109<0 46.0156> 715 108<94.8411 200 380 680> 1414 116<487.269 775.178>
VStem: 200 180<-54.0234 715 823 1269.12>
LayerCount: 2
Fore
SplineSet
0 -430 m 1,0,-1
 0 -321 l 1,1,2
 200 -190 200 -190 200 319 c 2,3,-1
 200 715 l 1,4,5
 152 715 152 715 93 676 c 1,6,-1
 93 789 l 1,7,8
 149 823 149 823 200 823 c 1,9,-1
 200 1025 l 2,10,11
 200 1530 200 1530 754 1530 c 0,12,13
 778 1530 778 1530 799 1528 c 1,14,-1
 768 1383 l 1,15,16
 709 1414 709 1414 620 1414 c 0,17,18
 380 1414 380 1414 380 1025 c 2,19,-1
 380 823 l 1,20,-1
 680 823 l 1,21,-1
 680 715 l 1,22,-1
 380 715 l 1,23,-1
 380 319 l 2,24,25
 380 -323 380 -323 0 -430 c 1,0,-1
EndSplineSet
Validated: 1
EndChar

StartChar: circumflex
Encoding: 710 710 196
Width: 672
Flags: W
HStem: 1356 174<249 423>
VStem: 50 572
LayerCount: 2
Fore
SplineSet
174 1170 m 1,0,-1
 50 1292 l 1,1,-1
 336 1530 l 1,2,-1
 622 1292 l 1,3,-1
 498 1170 l 1,4,-1
 336 1356 l 1,5,-1
 174 1170 l 1,0,-1
EndSplineSet
Validated: 1
EndChar

StartChar: caron
Encoding: 711 711 197
Width: 672
Flags: W
HStem: 1170 174<249 423> 1510 20G<153.672 191.419 480.581 518.328>
VStem: 50 572
LayerCount: 2
Fore
SplineSet
174 1530 m 1,0,-1
 336 1344 l 1,1,-1
 498 1530 l 1,2,-1
 622 1408 l 1,3,-1
 336 1170 l 1,4,-1
 50 1408 l 1,5,-1
 174 1530 l 1,0,-1
EndSplineSet
Validated: 1
EndChar

StartChar: uni02C9
Encoding: 713 713 198
Width: 672
Flags: W
HStem: 1292 127<50 622>
VStem: 50 572<1292 1419>
LayerCount: 2
Fore
SplineSet
50 1419 m 17,0,-1
 622 1419 l 1,1,-1
 622 1292 l 1,2,-1
 50 1292 l 9,3,-1
 50 1419 l 17,0,-1
EndSplineSet
Validated: 1
EndChar

StartChar: breve
Encoding: 728 728 199
Width: 672
Flags: W
HStem: 1272 93<185.789 486.211>
VStem: 50 126<1369.12 1460> 496 126<1369.12 1460>
LayerCount: 2
Fore
SplineSet
176 1495 m 1,0,1
 176 1365 176 1365 231 1365 c 2,2,-1
 441 1365 l 2,3,4
 496 1365 496 1365 496 1495 c 1,5,-1
 622 1460 l 1,6,7
 622 1272 622 1272 492 1272 c 2,8,-1
 180 1272 l 2,9,10
 50 1272 50 1272 50 1460 c 1,11,-1
 176 1495 l 1,0,1
EndSplineSet
Validated: 1
EndChar

StartChar: dotaccent
Encoding: 729 729 200
Width: 352
Flags: W
HStem: 1275 255<70.7949 281.205>
VStem: 50 252<1296.04 1508.96>
LayerCount: 2
Fore
SplineSet
176 1275 m 152,-1,1
 50 1275 50 1275 50 1402.5 c 128,-1,2
 50 1530 50 1530 176 1530 c 128,-1,3
 302 1530 302 1530 302 1402.5 c 128,-1,0
 302 1275 302 1275 176 1275 c 152,-1,1
EndSplineSet
Validated: 1
EndChar

StartChar: ring
Encoding: 730 730 201
Width: 429
Flags: W
HStem: 1204 91<148.871 277.714> 1438 92<148.871 277.714>
VStem: 50 95<1299.41 1433.92> 281 98<1297.73 1434.23>
LayerCount: 2
Fore
SplineSet
213 1295 m 152,-1,1
 281 1295 281 1295 281 1367 c 0,2,3
 281 1438 281 1438 213 1438 c 128,-1,4
 145 1438 145 1438 145 1366.5 c 128,-1,0
 145 1295 145 1295 213 1295 c 152,-1,1
213 1204 m 0,5,6
 50 1204 50 1204 50 1370 c 0,7,8
 50 1530 50 1530 213 1530 c 0,9,10
 379 1530 379 1530 379 1371 c 0,11,12
 379 1204 379 1204 213 1204 c 0,5,6
EndSplineSet
Validated: 1
EndChar

StartChar: ogonek
Encoding: 731 731 202
Width: 380
Flags: W
HStem: -430 556
VStem: 50 155<-250.717 -25.2094>
LayerCount: 2
Fore
SplineSet
267 126 m 9,0,-1
 330 25 l 17,1,2
 205 -20 205 -20 205 -136 c 128,-1,3
 205 -252 205 -252 322 -296 c 1,4,-1
 196 -430 l 17,5,6
 50 -326 50 -326 50 -164.5 c 128,-1,7
 50 -3 50 -3 267 126 c 9,0,-1
EndSplineSet
Validated: 1
EndChar

StartChar: tilde
Encoding: 732 732 203
Width: 672
Flags: W
HStem: 1272 108<355.004 555.555> 1388 107<114 300.084>
VStem: 50 126<1307 1384.8> 496 126<1382.2 1460>
LayerCount: 2
Fore
SplineSet
50 1307 m 1,0,1
 50 1495 50 1495 178 1495 c 0,2,3
 297 1495 297 1495 368 1409 c 0,4,5
 392 1380 392 1380 447 1380 c 0,6,7
 496 1380 496 1380 496 1495 c 1,8,-1
 622 1460 l 1,9,10
 622 1272 622 1272 488 1272 c 0,11,12
 344 1272 344 1272 294 1355 c 0,13,14
 274 1388 274 1388 233 1388 c 0,15,16
 176 1388 176 1388 176 1272 c 1,17,-1
 50 1307 l 1,0,1
EndSplineSet
Validated: 1
EndChar

StartChar: hungarumlaut
Encoding: 733 733 204
Width: 792
Flags: W
HStem: 1170 360
LayerCount: 2
Fore
SplineSet
618 1530 m 1,0,-1
 742 1409 l 1,1,-1
 456 1170 l 1,2,-1
 373 1250 l 1,3,-1
 618 1530 l 1,0,-1
295 1530 m 1,4,-1
 419 1409 l 1,5,-1
 133 1170 l 1,6,-1
 50 1250 l 1,7,-1
 295 1530 l 1,4,-1
EndSplineSet
Validated: 1
EndChar

StartChar: uni203D
Encoding: 8253 8253 205
Width: 1388
Flags: W
HStem: -20 255<534.795 745.205> 574 128<773.742 907.697> 1401 129<786 914.127>
VStem: 160 200<976 1187.44> 514 252<1.04248 213.958> 544 200<345 551.637> 594 192<1066.49 1393> 627 129<701 962.031> 1028 200<854.811 1295.01>
LayerCount: 2
Fore
SplineSet
640 -20 m 152,-1,1
 514 -20 514 -20 514 107.5 c 128,-1,2
 514 235 514 235 640 235 c 128,-1,3
 766 235 766 235 766 107.5 c 128,-1,0
 766 -20 766 -20 640 -20 c 152,-1,1
160 921 m 1,4,5
 160 1530 160 1530 803 1530 c 0,6,7
 1228 1530 1228 1530 1228 1145 c 2,8,-1
 1228 1142 l 2,9,10
 1228 574 1228 574 838 574 c 0,11,12
 744 574 744 574 744 345 c 1,13,-1
 544 276 l 1,14,15
 544 528 544 528 627 631 c 1,16,-1
 594 1393 l 1,17,18
 360 1332 360 1332 360 976 c 1,19,-1
 160 921 l 1,4,5
756 701 m 1,20,21
 768 702 768 702 780 702 c 0,22,23
 1028 702 1028 702 1028 1142 c 2,24,-1
 1028 1145 l 2,25,26
 1028 1369 1028 1369 786 1401 c 1,27,-1
 756 701 l 1,20,21
EndSplineSet
Validated: 1
EndChar

StartChar: afii61352
Encoding: 8470 8470 206
Width: 1963
Flags: W
HStem: 0 150<1280 1863> 218 112<1490.54 1651.93> 725 112<1510.18 1669.73> 1330 180<390 583.239>
VStem: 200 200<0 1327.56> 1015 191<0 517.891 900 1510> 1333 150<340.557 705.385> 1677 150<349.871 715.078>
LayerCount: 2
Fore
SplineSet
1576 330 m 24,0,1
 1677 330 1677 330 1677 497 c 2,2,-1
 1677 645 l 2,3,4
 1677 725 1677 725 1587 725 c 24,5,6
 1483 725 1483 725 1483 559 c 2,7,-1
 1483 411 l 2,8,9
 1483 330 1483 330 1576 330 c 24,0,1
1526 218 m 0,10,11
 1333 218 1333 218 1333 411 c 2,12,-1
 1333 559 l 2,13,14
 1333 837 1333 837 1640 837 c 0,15,16
 1827 837 1827 837 1827 645 c 2,17,-1
 1827 497 l 2,18,19
 1827 218 1827 218 1526 218 c 0,10,11
1863 0 m 1,20,-1
 1280 0 l 1,21,-1
 1280 150 l 1,22,-1
 1863 150 l 1,23,-1
 1863 0 l 1,20,-1
130 1510 m 1,24,-1
 350 1510 l 2,25,26
 888 1510 888 1510 1008 900 c 1,27,-1
 1015 900 l 1,28,-1
 1015 1510 l 1,29,-1
 1206 1510 l 1,30,-1
 1205 0 l 1,31,-1
 1005 0 l 1,32,33
 1005 1329 1005 1329 390 1330 c 1,34,35
 400 1272 400 1272 400 1210 c 2,36,-1
 400 0 l 1,37,-1
 200 0 l 1,38,-1
 200 1210 l 2,39,40
 200 1392 200 1392 130 1510 c 1,24,-1
EndSplineSet
Validated: 1
EndChar

StartChar: uni2117
Encoding: 8471 8471 207
Width: 1401
Flags: W
HStem: 187 73<514.363 878.202> 599 113<617 793.526> 1036 114<614 825.276> 1254 77<516.855 884.866>
VStem: 150 74<569.815 952.314> 467 150<345 599 712 1035> 844 150<756.35 1011.57> 1176 75<558.376 959.426>
LayerCount: 2
Fore
SplineSet
701 1331 m 0,0,1
 943 1331 943 1331 1099 1158 c 0,2,3
 1251 989 1251 989 1251 754 c 0,4,5
 1251 502 1251 502 1090 350 c 0,6,7
 919 187 919 187 699 187 c 0,8,9
 476 187 476 187 311 350 c 0,10,11
 150 509 150 509 150 754 c 0,12,13
 150 998 150 998 308 1163 c 0,14,15
 469 1331 469 1331 701 1331 c 0,0,1
699 1254 m 0,16,17
 509 1254 509 1254 367 1113 c 0,18,19
 224 971 224 971 224 754 c 0,20,21
 224 561 224 561 364 406 c 0,22,23
 495 260 495 260 701 260 c 0,24,25
 892 260 892 260 1037 406 c 0,26,27
 1176 546 1176 546 1176 754 c 0,28,29
 1176 975 1176 975 1039 1110 c 0,30,31
 893 1254 893 1254 699 1254 c 0,16,17
614 1036 m 1,32,33
 617 1004 617 1004 617 976 c 2,34,-1
 617 712 l 1,35,-1
 699 712 l 2,36,37
 844 712 844 712 844 928 c 2,38,-1
 844 932 l 2,39,40
 844 1036 844 1036 705 1036 c 2,41,-1
 614 1036 l 1,32,33
467 345 m 1,42,-1
 467 975 l 2,43,44
 467 1063 467 1063 415 1150 c 1,45,-1
 757 1150 l 2,46,47
 994 1150 994 1150 994 932 c 2,48,-1
 994 928 l 2,49,50
 994 599 994 599 652 599 c 2,51,-1
 617 599 l 1,52,-1
 617 345 l 1,53,-1
 467 345 l 1,42,-1
EndSplineSet
Validated: 1
EndChar

StartChar: integral
Encoding: 8747 8747 208
Width: 1062
Flags: W
HStem: -432 136<38.3541 329.389> 1394 136<732.611 1023.65>
VStem: 431 200<-164.503 1262.5>
LayerCount: 2
Fore
SplineSet
10 -429 m 9,0,-1
 46 -260 l 17,1,2
 103 -296 103 -296 201 -296 c 8,3,4
 431 -296 431 -296 431 77 c 2,5,-1
 431 1021 l 2,6,7
 431 1530 431 1530 995 1530 c 0,8,9
 1025 1530 1025 1530 1052 1527 c 9,10,-1
 1016 1358 l 17,11,12
 959 1394 959 1394 861 1394 c 8,13,14
 631 1394 631 1394 631 1021 c 2,15,-1
 631 77 l 18,16,17
 631 -432 631 -432 67 -432 c 0,18,19
 37 -432 37 -432 10 -429 c 9,0,-1
EndSplineSet
Validated: 1
EndChar

StartChar: uni1E9E
Encoding: 7838 7838 209
Width: 1375
Flags: W
HStem: 0 127<688 873.895> 772 138<817.89 976.219> 1406 124<556.542 883.689>
VStem: 200 200<0 1197.13> 618 190<921.921 1095.06> 1035 200<291.363 708.354>
LayerCount: 2
Fore
SplineSet
200 0 m 1,0,-1
 200 921 l 2,1,2
 200 1530 200 1530 813 1530 c 0,3,4
 1150 1530 1150 1530 1150 1199 c 1,5,6
 808 1147 808 1147 808 1006 c 2,7,-1
 808 1004 l 2,8,9
 808 910 808 910 897 910 c 0,10,11
 1235 910 1235 910 1235 566 c 2,12,-1
 1235 564 l 2,13,14
 1235 0 1235 0 688 0 c 1,15,-1
 688 127 l 1,16,17
 1035 127 1035 127 1035 525 c 2,18,-1
 1035 527 l 2,19,20
 1035 772 1035 772 870 772 c 0,21,22
 618 772 618 772 618 975 c 2,23,-1
 618 976 l 2,24,25
 618 1184 618 1184 930 1280 c 1,26,27
 911 1406 911 1406 711 1406 c 0,28,29
 400 1406 400 1406 400 921 c 2,30,-1
 400 0 l 1,31,-1
 200 0 l 1,0,-1
EndSplineSet
Validated: 1
EndChar

StartChar: ntilde
Encoding: 241 241 210
Width: 1243
Flags: W
HStem: 0 21G<200 375 886.5 1107> 990 130<571.927 811.724> 1080 20G<136 351.5> 1253 108<662.004 862.555> 1369 107<421 607.084>
VStem: 200 175<0 574.246 806 1052> 357 126<1288 1365.8> 803 126<1363.2 1441> 863 180<47.9988 933.307>
LayerCount: 2
Fore
SplineSet
357 1288 m 1,0,1
 357 1476 357 1476 485 1476 c 0,2,3
 604 1476 604 1476 675 1390 c 0,4,5
 699 1361 699 1361 754 1361 c 0,6,7
 803 1361 803 1361 803 1476 c 1,8,-1
 929 1441 l 1,9,10
 929 1253 929 1253 795 1253 c 0,11,12
 651 1253 651 1253 601 1336 c 0,13,14
 581 1369 581 1369 540 1369 c 0,15,16
 483 1369 483 1369 483 1253 c 1,17,-1
 357 1288 l 1,0,1
200 0 m 1,18,-1
 200 805 l 2,19,20
 200 962 200 962 136 1100 c 1,21,-1
 328 1100 l 1,22,23
 375 980 375 980 375 806 c 1,24,25
 454 1120 454 1120 749 1120 c 0,26,27
 1043 1120 1043 1120 1043 826 c 2,28,-1
 1043 295 l 2,29,30
 1043 138 1043 138 1107 0 c 1,31,-1
 910 0 l 1,32,33
 863 121 863 121 863 296 c 2,34,-1
 863 771 l 2,35,36
 863 990 863 990 698 990 c 0,37,38
 375 990 375 990 375 69 c 2,39,-1
 375 0 l 1,40,-1
 200 0 l 1,18,-1
EndSplineSet
Validated: 1
EndChar

StartChar: ograve
Encoding: 242 242 211
Width: 1188
Flags: W
HStem: -20 104<416.939 728.559> 1016 104<459.441 771.061> 1510 20G<461.504 499.5>
VStem: 150 190<159.536 857.566> 848 190<242.434 940.464>
LayerCount: 2
Fore
SplineSet
482 1530 m 1,0,-1
 727 1250 l 1,1,-1
 644 1170 l 1,2,-1
 358 1409 l 1,3,-1
 482 1530 l 1,0,-1
601 1016 m 0,4,5
 340 1016 340 1016 340 612 c 2,6,-1
 340 310 l 2,7,8
 340 84 340 84 587 84 c 0,9,10
 848 84 848 84 848 488 c 2,11,-1
 848 790 l 2,12,13
 848 1016 848 1016 601 1016 c 0,4,5
485 -20 m 0,14,15
 150 -20 150 -20 150 311 c 2,16,-1
 150 612 l 2,17,18
 150 1120 150 1120 703 1120 c 0,19,20
 1038 1120 1038 1120 1038 789 c 2,21,-1
 1038 488 l 2,22,23
 1038 -20 1038 -20 485 -20 c 0,14,15
EndSplineSet
Validated: 1
EndChar

StartChar: Agrave
Encoding: 192 192 212
Width: 1386
Flags: W
HStem: 0 21G<180 380 1011 1256> 719 127<380 986> 1407 123<532.206 875.654>
VStem: 180 200<0 719 846 1201.56> 986 200<52.3682 719 846 1304.32>
LayerCount: 2
Fore
SplineSet
541 1920 m 1,0,-1
 786 1640 l 1,1,-1
 703 1560 l 1,2,-1
 417 1799 l 1,3,-1
 541 1920 l 1,0,-1
986 846 m 1,4,-1
 986 1145 l 2,5,6
 986 1407 986 1407 683 1407 c 128,-1,7
 380 1407 380 1407 380 921 c 2,8,-1
 380 846 l 1,9,-1
 986 846 l 1,4,-1
180 0 m 1,10,-1
 180 921 l 2,11,12
 180 1530 180 1530 761 1530 c 0,13,14
 1186 1530 1186 1530 1186 1145 c 2,15,-1
 1186 300 l 2,16,17
 1186 118 1186 118 1256 0 c 1,18,-1
 1036 0 l 1,19,20
 986 100 986 100 986 300 c 2,21,-1
 986 719 l 1,22,-1
 380 719 l 1,23,-1
 380 0 l 1,24,-1
 180 0 l 1,10,-1
EndSplineSet
Validated: 1
EndChar

StartChar: Sacute
Encoding: 346 346 213
Width: 1368
Flags: W
HStem: -20 124<489.553 852.516> 745 151<511.79 894.305> 1406 124<517.077 851.504>
VStem: 160 210<227.438 365> 200 210<986.234 1277.07> 958 210<1145 1294.6> 998 210<285.018 646.83>
LayerCount: 2
Fore
SplineSet
864 1920 m 1,0,-1
 988 1799 l 1,1,-1
 702 1560 l 1,2,-1
 619 1640 l 1,3,-1
 864 1920 l 1,0,-1
575 -20 m 0,4,5
 160 -20 160 -20 160 365 c 9,6,-1
 370 420 l 17,7,8
 370 104 370 104 677 104 c 0,9,10
 998 104 998 104 998 505 c 2,11,-1
 998 507 l 2,12,13
 998 745 998 745 691 745 c 0,14,15
 200 745 200 745 200 1058 c 10,16,-1
 200 1061 l 2,17,18
 200 1530 200 1530 793 1530 c 0,19,20
 1168 1530 1168 1530 1168 1145 c 9,21,-1
 958 1090 l 17,22,23
 958 1406 958 1406 691 1406 c 0,24,25
 410 1406 410 1406 410 1130 c 2,26,-1
 410 1127 l 2,27,28
 410 896 410 896 714 896 c 0,29,30
 1208 896 1208 896 1208 546 c 10,31,-1
 1208 544 l 2,32,33
 1208 -20 1208 -20 575 -20 c 0,4,5
EndSplineSet
Validated: 1
EndChar

StartChar: Aacute
Encoding: 193 193 214
Width: 1386
Flags: W
HStem: 0 21G<180 380 1011 1256> 719 127<380 986> 1407 123<532.206 875.654>
VStem: 180 200<0 719 846 1201.56> 986 200<52.3682 719 846 1304.32>
LayerCount: 2
Fore
SplineSet
874 1920 m 1,0,-1
 998 1799 l 1,1,-1
 712 1560 l 1,2,-1
 629 1640 l 1,3,-1
 874 1920 l 1,0,-1
986 846 m 1,4,-1
 986 1145 l 2,5,6
 986 1407 986 1407 683 1407 c 128,-1,7
 380 1407 380 1407 380 921 c 2,8,-1
 380 846 l 1,9,-1
 986 846 l 1,4,-1
180 0 m 1,10,-1
 180 921 l 2,11,12
 180 1530 180 1530 761 1530 c 0,13,14
 1186 1530 1186 1530 1186 1145 c 2,15,-1
 1186 300 l 2,16,17
 1186 118 1186 118 1256 0 c 1,18,-1
 1036 0 l 1,19,20
 986 100 986 100 986 300 c 2,21,-1
 986 719 l 1,22,-1
 380 719 l 1,23,-1
 380 0 l 1,24,-1
 180 0 l 1,10,-1
EndSplineSet
Validated: 1
EndChar

StartChar: Acircumflex
Encoding: 194 194 215
Width: 1386
Flags: W
HStem: 0 21G<180 380 1011 1256> 719 127<380 986> 1407 123<532.206 875.654> 1746 174<637 811>
VStem: 180 200<0 719 846 1201.56> 986 200<52.3682 719 846 1304.32>
LayerCount: 2
Fore
SplineSet
562 1560 m 1,0,-1
 438 1682 l 1,1,-1
 724 1920 l 1,2,-1
 1010 1682 l 1,3,-1
 886 1560 l 1,4,-1
 724 1746 l 1,5,-1
 562 1560 l 1,0,-1
986 846 m 1,6,-1
 986 1145 l 2,7,8
 986 1407 986 1407 683 1407 c 128,-1,9
 380 1407 380 1407 380 921 c 2,10,-1
 380 846 l 1,11,-1
 986 846 l 1,6,-1
180 0 m 1,12,-1
 180 921 l 2,13,14
 180 1530 180 1530 761 1530 c 0,15,16
 1186 1530 1186 1530 1186 1145 c 2,17,-1
 1186 300 l 2,18,19
 1186 118 1186 118 1256 0 c 1,20,-1
 1036 0 l 1,21,22
 986 100 986 100 986 300 c 2,23,-1
 986 719 l 1,24,-1
 380 719 l 1,25,-1
 380 0 l 1,26,-1
 180 0 l 1,12,-1
EndSplineSet
Validated: 1
EndChar

StartChar: Atilde
Encoding: 195 195 216
Width: 1386
Flags: W
HStem: 0 21G<180 380 1011 1256> 719 127<380 986> 1407 123<532.206 875.654> 1634 108<753.004 953.555> 1750 107<512 698.084>
VStem: 180 200<0 719 846 1201.56> 448 126<1669 1746.8> 894 126<1744.2 1822> 986 200<52.3682 719 846 1304.32>
LayerCount: 2
Fore
SplineSet
448 1669 m 1,0,1
 448 1857 448 1857 576 1857 c 0,2,3
 695 1857 695 1857 766 1771 c 0,4,5
 790 1742 790 1742 845 1742 c 0,6,7
 894 1742 894 1742 894 1857 c 1,8,-1
 1020 1822 l 1,9,10
 1020 1634 1020 1634 886 1634 c 0,11,12
 742 1634 742 1634 692 1717 c 0,13,14
 672 1750 672 1750 631 1750 c 0,15,16
 574 1750 574 1750 574 1634 c 1,17,-1
 448 1669 l 1,0,1
986 846 m 1,18,-1
 986 1145 l 2,19,20
 986 1407 986 1407 683 1407 c 128,-1,21
 380 1407 380 1407 380 921 c 2,22,-1
 380 846 l 1,23,-1
 986 846 l 1,18,-1
180 0 m 1,24,-1
 180 921 l 2,25,26
 180 1530 180 1530 761 1530 c 0,27,28
 1186 1530 1186 1530 1186 1145 c 2,29,-1
 1186 300 l 2,30,31
 1186 118 1186 118 1256 0 c 1,32,-1
 1036 0 l 1,33,34
 986 100 986 100 986 300 c 2,35,-1
 986 719 l 1,36,-1
 380 719 l 1,37,-1
 380 0 l 1,38,-1
 180 0 l 1,24,-1
EndSplineSet
Validated: 1
EndChar

StartChar: Adieresis
Encoding: 196 196 217
Width: 1386
Flags: W
HStem: 0 21G<180 380 1011 1256> 719 127<380 986> 1407 123<532.206 875.654> 1630 229<460.031 655.969 813.395 1006.6>
VStem: 180 200<0 719 846 1201.56> 444 228<1646.1 1842.9> 796 228<1646.03 1841.97> 986 200<52.3682 719 846 1304.32>
LayerCount: 2
Fore
SplineSet
910 1630 m 152,-1,1
 796 1630 796 1630 796 1744 c 128,-1,2
 796 1858 796 1858 910 1858 c 128,-1,3
 1024 1858 1024 1858 1024 1744 c 128,-1,0
 1024 1630 1024 1630 910 1630 c 152,-1,1
558 1630 m 152,-1,5
 444 1630 444 1630 444 1744.5 c 128,-1,6
 444 1859 444 1859 558 1859 c 128,-1,7
 672 1859 672 1859 672 1744.5 c 128,-1,4
 672 1630 672 1630 558 1630 c 152,-1,5
986 846 m 1,8,-1
 986 1145 l 2,9,10
 986 1407 986 1407 683 1407 c 128,-1,11
 380 1407 380 1407 380 921 c 2,12,-1
 380 846 l 1,13,-1
 986 846 l 1,8,-1
180 0 m 1,14,-1
 180 921 l 2,15,16
 180 1530 180 1530 761 1530 c 0,17,18
 1186 1530 1186 1530 1186 1145 c 2,19,-1
 1186 300 l 2,20,21
 1186 118 1186 118 1256 0 c 1,22,-1
 1036 0 l 1,23,24
 986 100 986 100 986 300 c 2,25,-1
 986 719 l 1,26,-1
 380 719 l 1,27,-1
 380 0 l 1,28,-1
 180 0 l 1,14,-1
EndSplineSet
Validated: 1
EndChar

StartChar: Aring
Encoding: 197 197 218
Width: 1386
Flags: W
HStem: 0 21G<180 380 1011 1256> 719 127<380 986> 1407 123<532.206 875.654> 1594 91<651.871 780.714> 1828 92<651.871 780.714>
VStem: 180 200<0 719 846 1201.56> 553 95<1689.41 1823.92> 784 98<1687.73 1824.23> 986 200<52.3682 719 846 1304.32>
LayerCount: 2
Fore
SplineSet
716 1685 m 152,-1,1
 784 1685 784 1685 784 1757 c 0,2,3
 784 1828 784 1828 716 1828 c 128,-1,4
 648 1828 648 1828 648 1756.5 c 128,-1,0
 648 1685 648 1685 716 1685 c 152,-1,1
716 1594 m 0,5,6
 553 1594 553 1594 553 1760 c 0,7,8
 553 1920 553 1920 716 1920 c 0,9,10
 882 1920 882 1920 882 1761 c 0,11,12
 882 1594 882 1594 716 1594 c 0,5,6
986 846 m 1,13,-1
 986 1145 l 2,14,15
 986 1407 986 1407 683 1407 c 128,-1,16
 380 1407 380 1407 380 921 c 2,17,-1
 380 846 l 1,18,-1
 986 846 l 1,13,-1
180 0 m 1,19,-1
 180 921 l 2,20,21
 180 1530 180 1530 761 1530 c 0,22,23
 1186 1530 1186 1530 1186 1145 c 2,24,-1
 1186 300 l 2,25,26
 1186 118 1186 118 1256 0 c 1,27,-1
 1036 0 l 1,28,29
 986 100 986 100 986 300 c 2,30,-1
 986 719 l 1,31,-1
 380 719 l 1,32,-1
 380 0 l 1,33,-1
 180 0 l 1,19,-1
EndSplineSet
Validated: 1
EndChar

StartChar: Amacron
Encoding: 256 256 219
Width: 1386
Flags: W
HStem: 0 21G<180 380 1011 1256> 719 127<380 986> 1407 123<532.206 875.654> 1684 127<448 1020>
VStem: 180 200<0 719 846 1201.56> 986 200<52.3682 719 846 1304.32>
LayerCount: 2
Fore
SplineSet
448 1811 m 17,0,-1
 1020 1811 l 1,1,-1
 1020 1684 l 1,2,-1
 448 1684 l 9,3,-1
 448 1811 l 17,0,-1
986 846 m 1,4,-1
 986 1145 l 2,5,6
 986 1407 986 1407 683 1407 c 128,-1,7
 380 1407 380 1407 380 921 c 2,8,-1
 380 846 l 1,9,-1
 986 846 l 1,4,-1
180 0 m 1,10,-1
 180 921 l 2,11,12
 180 1530 180 1530 761 1530 c 0,13,14
 1186 1530 1186 1530 1186 1145 c 2,15,-1
 1186 300 l 2,16,17
 1186 118 1186 118 1256 0 c 1,18,-1
 1036 0 l 1,19,20
 986 100 986 100 986 300 c 2,21,-1
 986 719 l 1,22,-1
 380 719 l 1,23,-1
 380 0 l 1,24,-1
 180 0 l 1,10,-1
EndSplineSet
Validated: 1
EndChar

StartChar: Abreve
Encoding: 258 258 220
Width: 1386
Flags: W
HStem: 0 21G<180 380 1011 1256> 719 127<380 986> 1407 123<532.206 875.654> 1640 93<582.789 883.211>
VStem: 180 200<0 719 846 1201.56> 447 126<1737.12 1828> 893 126<1737.12 1828> 986 200<52.3682 719 846 1304.32>
LayerCount: 2
Fore
SplineSet
573 1863 m 1,0,1
 573 1733 573 1733 628 1733 c 2,2,-1
 838 1733 l 2,3,4
 893 1733 893 1733 893 1863 c 1,5,-1
 1019 1828 l 1,6,7
 1019 1640 1019 1640 889 1640 c 2,8,-1
 577 1640 l 2,9,10
 447 1640 447 1640 447 1828 c 1,11,-1
 573 1863 l 1,0,1
986 846 m 1,12,-1
 986 1145 l 2,13,14
 986 1407 986 1407 683 1407 c 128,-1,15
 380 1407 380 1407 380 921 c 2,16,-1
 380 846 l 1,17,-1
 986 846 l 1,12,-1
180 0 m 1,18,-1
 180 921 l 2,19,20
 180 1530 180 1530 761 1530 c 0,21,22
 1186 1530 1186 1530 1186 1145 c 2,23,-1
 1186 300 l 2,24,25
 1186 118 1186 118 1256 0 c 1,26,-1
 1036 0 l 1,27,28
 986 100 986 100 986 300 c 2,29,-1
 986 719 l 1,30,-1
 380 719 l 1,31,-1
 380 0 l 1,32,-1
 180 0 l 1,18,-1
EndSplineSet
Validated: 1
EndChar

StartChar: Aogonek
Encoding: 260 260 221
Width: 1386
Flags: W
HStem: -430 21G<941 1032.81> 0 21G<180 380> 719 127<380 986> 1407 123<532.206 875.654>
VStem: 180 200<0 719 846 1201.56> 868 155<-250.588 -24.3665> 986 200<77.8235 719 846 1304.32>
LayerCount: 2
Fore
SplineSet
180 0 m 1,0,-1
 180 921 l 2,1,2
 180 1530 180 1530 761 1530 c 0,3,4
 1186 1530 1186 1530 1186 1145 c 2,5,-1
 1186 300 l 2,6,7
 1186 118 1186 118 1256 0 c 1,8,-1
 1096 0 l 1,9,10
 1023 -47 1023 -47 1023 -136 c 0,11,12
 1023 -252 1023 -252 1140 -296 c 1,13,-1
 1014 -430 l 1,14,15
 868 -326 868 -326 868 -164 c 0,16,17
 868 -34 868 -34 1009 75 c 1,18,19
 986 165 986 165 986 300 c 2,20,-1
 986 719 l 1,21,-1
 380 719 l 1,22,-1
 380 0 l 1,23,-1
 180 0 l 1,0,-1
986 846 m 1,24,-1
 986 1145 l 2,25,26
 986 1407 986 1407 683 1407 c 128,-1,27
 380 1407 380 1407 380 921 c 2,28,-1
 380 846 l 1,29,-1
 986 846 l 1,24,-1
EndSplineSet
Validated: 1
EndChar

StartChar: Aringacute
Encoding: 506 506 222
Width: 1386
Flags: W
HStem: 0 21G<180 380 1011 1256> 719 127<380 986> 1407 123<532.206 875.654> 1594 91<551.871 680.714> 1828 92<551.871 680.714>
VStem: 180 200<0 719 846 1201.56> 453 95<1689.41 1823.92> 684 98<1687.73 1824.23> 986 200<52.3682 719 846 1304.32>
LayerCount: 2
Fore
SplineSet
1026 1920 m 1,0,-1
 1150 1799 l 1,1,-1
 864 1560 l 1,2,-1
 781 1640 l 1,3,-1
 1026 1920 l 1,0,-1
616 1685 m 152,-1,5
 684 1685 684 1685 684 1757 c 0,6,7
 684 1828 684 1828 616 1828 c 128,-1,8
 548 1828 548 1828 548 1756.5 c 128,-1,4
 548 1685 548 1685 616 1685 c 152,-1,5
616 1594 m 0,9,10
 453 1594 453 1594 453 1760 c 0,11,12
 453 1920 453 1920 616 1920 c 0,13,14
 782 1920 782 1920 782 1761 c 0,15,16
 782 1594 782 1594 616 1594 c 0,9,10
986 846 m 1,17,-1
 986 1145 l 2,18,19
 986 1407 986 1407 683 1407 c 128,-1,20
 380 1407 380 1407 380 921 c 2,21,-1
 380 846 l 1,22,-1
 986 846 l 1,17,-1
180 0 m 1,23,-1
 180 921 l 2,24,25
 180 1530 180 1530 761 1530 c 0,26,27
 1186 1530 1186 1530 1186 1145 c 2,28,-1
 1186 300 l 2,29,30
 1186 118 1186 118 1256 0 c 1,31,-1
 1036 0 l 1,32,33
 986 100 986 100 986 300 c 2,34,-1
 986 719 l 1,35,-1
 380 719 l 1,36,-1
 380 0 l 1,37,-1
 180 0 l 1,23,-1
EndSplineSet
Validated: 1
EndChar

StartChar: AEacute
Encoding: 508 508 223
Width: 1897
Flags: W
HStem: 0 127<1186 1765.45> 698 130<380 986 1186 1668> 1383 127<1124 1668> 1410 120<532.206 880.297>
VStem: 180 200<0 698 828 1201.56> 986 200<127 698 828 1307.66>
LayerCount: 2
Fore
SplineSet
180 0 m 1,0,-1
 180 921 l 2,1,2
 180 1530 180 1530 761 1530 c 0,3,4
 858 1530 858 1530 933 1510 c 1,5,-1
 1668 1510 l 1,6,-1
 1668 1383 l 1,7,-1
 1124 1383 l 1,8,9
 1186 1292 1186 1292 1186 1145 c 2,10,-1
 1186 828 l 1,11,-1
 1668 828 l 1,12,-1
 1668 698 l 1,13,-1
 1186 698 l 1,14,-1
 1186 127 l 1,15,-1
 1517 127 l 2,16,17
 1699 127 1699 127 1817 197 c 1,18,-1
 1817 50 l 1,19,20
 1696 0 1696 0 1517 0 c 2,21,-1
 986 0 l 1,22,-1
 986 698 l 1,23,-1
 380 698 l 1,24,-1
 380 0 l 1,25,-1
 180 0 l 1,0,-1
986 828 m 1,26,-1
 986 1148 l 2,27,28
 986 1410 986 1410 683 1410 c 128,-1,29
 380 1410 380 1410 380 924 c 2,30,-1
 380 828 l 1,31,-1
 986 828 l 1,26,-1
1175 1920 m 1,32,-1
 1299 1799 l 1,33,-1
 1013 1560 l 1,34,-1
 930 1640 l 1,35,-1
 1175 1920 l 1,32,-1
EndSplineSet
Validated: 1
EndChar

StartChar: Ccedilla
Encoding: 199 199 224
Width: 1388
Flags: W
HStem: -430 126<582 701.399> -20 124<485.391 592.209> 1406 124<535.278 892.528>
VStem: 160 210<205.953 1187.44> 709 120<-286.785 -161.421> 1013 212<302.465 472 1145 1285.52>
LayerCount: 2
Fore
SplineSet
585 -20 m 1,0,1
 160 -20 160 -20 160 365 c 2,2,-1
 160 921 l 2,3,4
 160 1530 160 1530 803 1530 c 0,5,6
 1228 1530 1228 1530 1228 1145 c 1,7,-1
 1018 1090 l 1,8,9
 1018 1406 1018 1406 701 1406 c 0,10,11
 370 1406 370 1406 370 921 c 2,12,-1
 370 365 l 2,13,14
 370 104 370 104 687 104 c 0,15,16
 975 104 975 104 1013 472 c 1,17,-1
 1225 497 l 1,18,19
 1182 26 1182 26 687 -16 c 1,20,21
 695 -66 695 -66 739 -93 c 0,22,23
 829 -146 829 -146 829 -260 c 0,24,25
 829 -430 829 -430 582 -430 c 1,26,-1
 546 -304 l 1,27,28
 709 -304 709 -304 709 -236 c 0,29,30
 709 -192 709 -192 654 -153 c 0,31,32
 591 -110 591 -110 585 -20 c 1,0,1
EndSplineSet
Validated: 1
EndChar

StartChar: Cacute
Encoding: 262 262 225
Width: 1388
Flags: W
HStem: -20 124<483.573 851.417> 1406 124<535.278 892.528>
VStem: 160 210<205.953 1187.44> 1013 212<308.3 472 1145 1285.52>
LayerCount: 2
Fore
SplineSet
585 -20 m 0,0,1
 160 -20 160 -20 160 365 c 2,2,-1
 160 921 l 2,3,4
 160 1530 160 1530 803 1530 c 0,5,6
 1228 1530 1228 1530 1228 1145 c 1,7,-1
 1018 1090 l 1,8,9
 1018 1406 1018 1406 701 1406 c 0,10,11
 370 1406 370 1406 370 921 c 2,12,-1
 370 365 l 2,13,14
 370 104 370 104 687 104 c 0,15,16
 975 104 975 104 1013 472 c 1,17,-1
 1225 497 l 1,18,19
 1178 -20 1178 -20 585 -20 c 0,0,1
897 1920 m 1,20,-1
 1021 1799 l 1,21,-1
 735 1560 l 1,22,-1
 652 1640 l 1,23,-1
 897 1920 l 1,20,-1
EndSplineSet
Validated: 1
EndChar

StartChar: Ccircumflex
Encoding: 264 264 226
Width: 1388
Flags: W
HStem: -20 124<483.573 851.417> 1406 124<535.278 892.528> 1746 174<637 811>
VStem: 160 210<205.953 1187.44> 1013 212<308.3 472 1145 1285.52>
LayerCount: 2
Fore
SplineSet
585 -20 m 0,0,1
 160 -20 160 -20 160 365 c 2,2,-1
 160 921 l 2,3,4
 160 1530 160 1530 803 1530 c 0,5,6
 1228 1530 1228 1530 1228 1145 c 1,7,-1
 1018 1090 l 1,8,9
 1018 1406 1018 1406 701 1406 c 0,10,11
 370 1406 370 1406 370 921 c 2,12,-1
 370 365 l 2,13,14
 370 104 370 104 687 104 c 0,15,16
 975 104 975 104 1013 472 c 1,17,-1
 1225 497 l 1,18,19
 1178 -20 1178 -20 585 -20 c 0,0,1
562 1560 m 1,20,-1
 438 1682 l 1,21,-1
 724 1920 l 1,22,-1
 1010 1682 l 1,23,-1
 886 1560 l 1,24,-1
 724 1746 l 1,25,-1
 562 1560 l 1,20,-1
EndSplineSet
Validated: 1
EndChar

StartChar: Cdotaccent
Encoding: 266 266 227
Width: 1388
Flags: W
HStem: -20 124<483.573 851.417> 1406 124<535.278 892.528> 1671 229<636.031 831.969>
VStem: 160 210<205.953 1187.44> 620 228<1687.17 1883.9> 1013 212<308.3 472 1145 1285.52>
LayerCount: 2
Fore
SplineSet
585 -20 m 0,0,1
 160 -20 160 -20 160 365 c 2,2,-1
 160 921 l 2,3,4
 160 1530 160 1530 803 1530 c 0,5,6
 1228 1530 1228 1530 1228 1145 c 1,7,-1
 1018 1090 l 1,8,9
 1018 1406 1018 1406 701 1406 c 0,10,11
 370 1406 370 1406 370 921 c 2,12,-1
 370 365 l 2,13,14
 370 104 370 104 687 104 c 0,15,16
 975 104 975 104 1013 472 c 1,17,-1
 1225 497 l 1,18,19
 1178 -20 1178 -20 585 -20 c 0,0,1
734 1671 m 152,-1,21
 620 1671 620 1671 620 1786 c 0,22,23
 620 1900 620 1900 734 1900 c 128,-1,24
 848 1900 848 1900 848 1785.5 c 128,-1,20
 848 1671 848 1671 734 1671 c 152,-1,21
EndSplineSet
Validated: 1
EndChar

StartChar: Ccaron
Encoding: 268 268 228
Width: 1387
Flags: W
HStem: -20 124<483.573 851.417> 1406 124<535.278 892.528> 1560 174<637 811>
VStem: 160 210<205.953 1187.44> 1013 212<308.3 472 1145 1285.52>
LayerCount: 2
Fore
SplineSet
585 -20 m 0,0,1
 160 -20 160 -20 160 365 c 2,2,-1
 160 921 l 2,3,4
 160 1530 160 1530 803 1530 c 0,5,6
 1228 1530 1228 1530 1228 1145 c 1,7,-1
 1018 1090 l 1,8,9
 1018 1406 1018 1406 701 1406 c 0,10,11
 370 1406 370 1406 370 921 c 2,12,-1
 370 365 l 2,13,14
 370 104 370 104 687 104 c 0,15,16
 975 104 975 104 1013 472 c 1,17,-1
 1225 497 l 1,18,19
 1178 -20 1178 -20 585 -20 c 0,0,1
562 1920 m 1,20,-1
 724 1734 l 1,21,-1
 886 1920 l 1,22,-1
 1010 1798 l 1,23,-1
 724 1560 l 1,24,-1
 438 1798 l 1,25,-1
 562 1920 l 1,20,-1
EndSplineSet
Validated: 1
EndChar

StartChar: Dcaron
Encoding: 270 270 229
Width: 1388
Flags: W
HStem: 0 127<400 851.671> 1383 127<386 902.609> 1560 174<568 742>
VStem: 200 200<127 1379.02> 1018 210<342.562 1275.01>
LayerCount: 2
Fore
SplineSet
493 1920 m 1,0,-1
 655 1734 l 1,1,-1
 817 1920 l 1,2,-1
 941 1798 l 1,3,-1
 655 1560 l 1,4,-1
 369 1798 l 1,5,-1
 493 1920 l 1,0,-1
386 1383 m 1,6,7
 400 1314 400 1314 400 1210 c 2,8,-1
 400 127 l 1,9,-1
 688 127 l 2,10,11
 1018 127 1018 127 1018 609 c 2,12,-1
 1018 1125 l 2,13,14
 1018 1383 1018 1383 700 1383 c 2,15,-1
 386 1383 l 1,6,7
200 0 m 1,16,-1
 200 1210 l 2,17,18
 200 1370 200 1370 130 1510 c 1,19,-1
 803 1510 l 2,20,21
 1228 1510 1228 1510 1228 1125 c 10,22,-1
 1228 609 l 2,23,24
 1228 0 1228 0 586 0 c 2,25,-1
 200 0 l 1,16,-1
EndSplineSet
Validated: 1
EndChar

StartChar: Egrave
Encoding: 200 200 230
Width: 1111
Flags: W
HStem: 0 127<400 979.451> 698 127<400 882> 1383 127<386 882>
VStem: 200 200<127 698 825 1379.02>
LayerCount: 2
Fore
SplineSet
387 1920 m 1,0,-1
 632 1640 l 1,1,-1
 549 1560 l 1,2,-1
 263 1799 l 1,3,-1
 387 1920 l 1,0,-1
200 0 m 1,4,-1
 200 1210 l 2,5,6
 200 1370 200 1370 130 1510 c 1,7,-1
 882 1510 l 17,8,-1
 882 1383 l 9,9,-1
 386 1383 l 1,10,11
 400 1305 400 1305 400 1210 c 2,12,-1
 400 825 l 1,13,-1
 882 825 l 25,14,-1
 882 698 l 25,15,-1
 400 698 l 1,16,-1
 400 127 l 1,17,-1
 731 127 l 2,18,19
 913 127 913 127 1031 197 c 1,20,-1
 1031 50 l 1,21,22
 910 0 910 0 731 0 c 2,23,-1
 200 0 l 1,4,-1
EndSplineSet
Validated: 1
EndChar

StartChar: Eacute
Encoding: 201 201 231
Width: 1111
Flags: W
HStem: 0 127<400 979.451> 698 127<400 882> 1383 127<386 882>
VStem: 200 200<127 698 825 1379.02>
LayerCount: 2
Fore
SplineSet
718 1920 m 1,0,-1
 842 1799 l 1,1,-1
 556 1560 l 1,2,-1
 473 1640 l 1,3,-1
 718 1920 l 1,0,-1
200 0 m 1,4,-1
 200 1210 l 2,5,6
 200 1370 200 1370 130 1510 c 1,7,-1
 882 1510 l 17,8,-1
 882 1383 l 9,9,-1
 386 1383 l 1,10,11
 400 1305 400 1305 400 1210 c 2,12,-1
 400 825 l 1,13,-1
 882 825 l 25,14,-1
 882 698 l 25,15,-1
 400 698 l 1,16,-1
 400 127 l 1,17,-1
 731 127 l 2,18,19
 913 127 913 127 1031 197 c 1,20,-1
 1031 50 l 1,21,22
 910 0 910 0 731 0 c 2,23,-1
 200 0 l 1,4,-1
EndSplineSet
Validated: 1
EndChar

StartChar: Ecircumflex
Encoding: 202 202 232
Width: 1111
Flags: W
HStem: 0 127<400 979.451> 698 127<400 882> 1383 127<386 882> 1746 174<443 617>
VStem: 200 200<127 698 825 1379.02>
LayerCount: 2
Fore
SplineSet
368 1560 m 1,0,-1
 244 1682 l 1,1,-1
 530 1920 l 1,2,-1
 816 1682 l 1,3,-1
 692 1560 l 1,4,-1
 530 1746 l 1,5,-1
 368 1560 l 1,0,-1
200 0 m 1,6,-1
 200 1210 l 2,7,8
 200 1370 200 1370 130 1510 c 1,9,-1
 882 1510 l 17,10,-1
 882 1383 l 9,11,-1
 386 1383 l 1,12,13
 400 1305 400 1305 400 1210 c 2,14,-1
 400 825 l 1,15,-1
 882 825 l 25,16,-1
 882 698 l 25,17,-1
 400 698 l 1,18,-1
 400 127 l 1,19,-1
 731 127 l 2,20,21
 913 127 913 127 1031 197 c 1,22,-1
 1031 50 l 1,23,24
 910 0 910 0 731 0 c 2,25,-1
 200 0 l 1,6,-1
EndSplineSet
Validated: 1
EndChar

StartChar: Edieresis
Encoding: 203 203 233
Width: 1111
Flags: W
HStem: 0 127<400 979.451> 698 127<400 882> 1383 127<386 882> 1630 229<264.031 459.969 617.395 810.605>
VStem: 200 200<127 698 825 1379.02> 248 228<1646.1 1842.9> 600 228<1646.03 1841.97>
LayerCount: 2
Fore
SplineSet
714 1630 m 152,-1,1
 600 1630 600 1630 600 1744 c 128,-1,2
 600 1858 600 1858 714 1858 c 128,-1,3
 828 1858 828 1858 828 1744 c 128,-1,0
 828 1630 828 1630 714 1630 c 152,-1,1
362 1630 m 152,-1,5
 248 1630 248 1630 248 1744.5 c 128,-1,6
 248 1859 248 1859 362 1859 c 128,-1,7
 476 1859 476 1859 476 1744.5 c 128,-1,4
 476 1630 476 1630 362 1630 c 152,-1,5
200 0 m 1,8,-1
 200 1210 l 2,9,10
 200 1370 200 1370 130 1510 c 1,11,-1
 882 1510 l 17,12,-1
 882 1383 l 9,13,-1
 386 1383 l 1,14,15
 400 1305 400 1305 400 1210 c 2,16,-1
 400 825 l 1,17,-1
 882 825 l 25,18,-1
 882 698 l 25,19,-1
 400 698 l 1,20,-1
 400 127 l 1,21,-1
 731 127 l 2,22,23
 913 127 913 127 1031 197 c 1,24,-1
 1031 50 l 1,25,26
 910 0 910 0 731 0 c 2,27,-1
 200 0 l 1,8,-1
EndSplineSet
Validated: 1
EndChar

StartChar: Emacron
Encoding: 274 274 234
Width: 1111
Flags: W
HStem: 0 127<400 979.451> 698 127<400 882> 1383 127<386 882> 1684 127<249 821>
VStem: 200 200<127 698 825 1379.02>
LayerCount: 2
Fore
SplineSet
249 1811 m 17,0,-1
 821 1811 l 1,1,-1
 821 1684 l 1,2,-1
 249 1684 l 9,3,-1
 249 1811 l 17,0,-1
200 0 m 1,4,-1
 200 1210 l 2,5,6
 200 1370 200 1370 130 1510 c 1,7,-1
 882 1510 l 17,8,-1
 882 1383 l 9,9,-1
 386 1383 l 1,10,11
 400 1305 400 1305 400 1210 c 2,12,-1
 400 825 l 1,13,-1
 882 825 l 25,14,-1
 882 698 l 25,15,-1
 400 698 l 1,16,-1
 400 127 l 1,17,-1
 731 127 l 2,18,19
 913 127 913 127 1031 197 c 1,20,-1
 1031 50 l 1,21,22
 910 0 910 0 731 0 c 2,23,-1
 200 0 l 1,4,-1
EndSplineSet
Validated: 1
EndChar

StartChar: Ebreve
Encoding: 276 276 235
Width: 1111
Flags: W
HStem: 0 127<400 979.451> 698 127<400 882> 1383 127<386 882> 1640 93<390.789 691.211>
VStem: 200 200<127 698 825 1379.02> 255 126<1737.12 1828> 701 126<1737.12 1828>
LayerCount: 2
Fore
SplineSet
381 1863 m 1,0,1
 381 1733 381 1733 436 1733 c 2,2,-1
 646 1733 l 2,3,4
 701 1733 701 1733 701 1863 c 1,5,-1
 827 1828 l 1,6,7
 827 1640 827 1640 697 1640 c 2,8,-1
 385 1640 l 2,9,10
 255 1640 255 1640 255 1828 c 1,11,-1
 381 1863 l 1,0,1
200 0 m 1,12,-1
 200 1210 l 2,13,14
 200 1370 200 1370 130 1510 c 1,15,-1
 882 1510 l 17,16,-1
 882 1383 l 9,17,-1
 386 1383 l 1,18,19
 400 1305 400 1305 400 1210 c 2,20,-1
 400 825 l 1,21,-1
 882 825 l 25,22,-1
 882 698 l 25,23,-1
 400 698 l 1,24,-1
 400 127 l 1,25,-1
 731 127 l 2,26,27
 913 127 913 127 1031 197 c 1,28,-1
 1031 50 l 1,29,30
 910 0 910 0 731 0 c 2,31,-1
 200 0 l 1,12,-1
EndSplineSet
Validated: 1
EndChar

StartChar: Edotaccent
Encoding: 278 278 236
Width: 1111
Flags: W
HStem: 0 127<400 979.451> 698 127<400 882> 1383 127<386 882> 1671 229<442.031 637.969>
VStem: 200 200<127 698 825 1379.02> 426 228<1687.17 1883.9>
LayerCount: 2
Fore
SplineSet
540 1671 m 152,-1,1
 426 1671 426 1671 426 1786 c 0,2,3
 426 1900 426 1900 540 1900 c 128,-1,4
 654 1900 654 1900 654 1785.5 c 128,-1,0
 654 1671 654 1671 540 1671 c 152,-1,1
200 0 m 1,5,-1
 200 1210 l 2,6,7
 200 1370 200 1370 130 1510 c 1,8,-1
 882 1510 l 17,9,-1
 882 1383 l 9,10,-1
 386 1383 l 1,11,12
 400 1305 400 1305 400 1210 c 2,13,-1
 400 825 l 1,14,-1
 882 825 l 25,15,-1
 882 698 l 25,16,-1
 400 698 l 1,17,-1
 400 127 l 1,18,-1
 731 127 l 2,19,20
 913 127 913 127 1031 197 c 1,21,-1
 1031 50 l 1,22,23
 910 0 910 0 731 0 c 2,24,-1
 200 0 l 1,5,-1
EndSplineSet
Validated: 1
EndChar

StartChar: Eogonek
Encoding: 280 280 237
Width: 1111
Flags: W
HStem: -430 21G<747 838.806> 0 127<400 737> 698 127<400 882> 1383 127<386 882>
VStem: 200 200<127 698 825 1379.02> 674 155<-250.588 -25.4988>
LayerCount: 2
Fore
SplineSet
200 0 m 1,0,-1
 200 1210 l 2,1,2
 200 1370 200 1370 130 1510 c 1,3,-1
 882 1510 l 1,4,-1
 882 1383 l 1,5,-1
 386 1383 l 1,6,7
 400 1305 400 1305 400 1210 c 2,8,-1
 400 825 l 1,9,-1
 882 825 l 1,10,-1
 882 698 l 1,11,-1
 400 698 l 1,12,-1
 400 127 l 1,13,-1
 731 127 l 2,14,15
 913 127 913 127 1031 197 c 1,16,-1
 1031 50 l 1,17,18
 994 35 994 35 951 24 c 1,19,20
 829 -21 829 -21 829 -136 c 0,21,22
 829 -252 829 -252 946 -296 c 1,23,-1
 820 -430 l 1,24,25
 674 -326 674 -326 674 -164 c 0,26,27
 674 -78 674 -78 737 0 c 9,28,-1
 200 0 l 1,0,-1
EndSplineSet
Validated: 1
EndChar

StartChar: Ecaron
Encoding: 282 282 238
Width: 1111
Flags: W
HStem: 0 127<400 979.451> 698 127<400 882> 1383 127<386 882> 1560 174<442 616>
VStem: 200 200<127 698 825 1379.02>
LayerCount: 2
Fore
SplineSet
367 1920 m 1,0,-1
 529 1734 l 1,1,-1
 691 1920 l 1,2,-1
 815 1798 l 1,3,-1
 529 1560 l 1,4,-1
 243 1798 l 1,5,-1
 367 1920 l 1,0,-1
200 0 m 1,6,-1
 200 1210 l 2,7,8
 200 1370 200 1370 130 1510 c 1,9,-1
 882 1510 l 17,10,-1
 882 1383 l 9,11,-1
 386 1383 l 1,12,13
 400 1305 400 1305 400 1210 c 2,14,-1
 400 825 l 1,15,-1
 882 825 l 25,16,-1
 882 698 l 25,17,-1
 400 698 l 1,18,-1
 400 127 l 1,19,-1
 731 127 l 2,20,21
 913 127 913 127 1031 197 c 1,22,-1
 1031 50 l 1,23,24
 910 0 910 0 731 0 c 2,25,-1
 200 0 l 1,6,-1
EndSplineSet
Validated: 1
EndChar

StartChar: Gcircumflex
Encoding: 284 284 239
Width: 1388
Flags: W
HStem: -20 124<483.573 852.722> 635 127<727.549 1018> 1406 124<535.278 892.528> 1746 174<637 811>
VStem: 160 210<205.953 1187.44> 1018 210<322.562 635 1145 1275.84>
LayerCount: 2
Fore
SplineSet
562 1560 m 1,0,-1
 438 1682 l 1,1,-1
 724 1920 l 1,2,-1
 1010 1682 l 1,3,-1
 886 1560 l 1,4,-1
 724 1746 l 1,5,-1
 562 1560 l 1,0,-1
585 -20 m 0,6,7
 160 -20 160 -20 160 365 c 2,8,-1
 160 921 l 2,9,10
 160 1530 160 1530 803 1530 c 0,11,12
 1228 1530 1228 1530 1228 1145 c 1,13,-1
 1018 1090 l 1,14,15
 1018 1406 1018 1406 701 1406 c 0,16,17
 370 1406 370 1406 370 921 c 2,18,-1
 370 365 l 2,19,20
 370 104 370 104 687 104 c 0,21,22
 1018 104 1018 104 1018 589 c 2,23,-1
 1018 635 l 1,24,-1
 976 635 l 2,25,26
 794 635 794 635 676 565 c 1,27,-1
 676 712 l 1,28,29
 797 762 797 762 976 762 c 2,30,-1
 1228 762 l 1,31,-1
 1228 589 l 2,32,33
 1228 -20 1228 -20 585 -20 c 0,6,7
EndSplineSet
Validated: 1
EndChar

StartChar: Gbreve
Encoding: 286 286 240
Width: 1388
Flags: W
HStem: -20 124<483.573 852.722> 635 127<727.549 1018> 1406 124<535.278 892.528> 1640 93<582.789 883.211>
VStem: 160 210<205.953 1187.44> 447 126<1737.12 1828> 893 126<1737.12 1828> 1018 210<322.562 635 1145 1275.84>
LayerCount: 2
Fore
SplineSet
573 1863 m 1,0,1
 573 1733 573 1733 628 1733 c 2,2,-1
 838 1733 l 2,3,4
 893 1733 893 1733 893 1863 c 1,5,-1
 1019 1828 l 1,6,7
 1019 1640 1019 1640 889 1640 c 2,8,-1
 577 1640 l 2,9,10
 447 1640 447 1640 447 1828 c 1,11,-1
 573 1863 l 1,0,1
585 -20 m 0,12,13
 160 -20 160 -20 160 365 c 2,14,-1
 160 921 l 2,15,16
 160 1530 160 1530 803 1530 c 0,17,18
 1228 1530 1228 1530 1228 1145 c 1,19,-1
 1018 1090 l 1,20,21
 1018 1406 1018 1406 701 1406 c 0,22,23
 370 1406 370 1406 370 921 c 2,24,-1
 370 365 l 2,25,26
 370 104 370 104 687 104 c 0,27,28
 1018 104 1018 104 1018 589 c 2,29,-1
 1018 635 l 1,30,-1
 976 635 l 2,31,32
 794 635 794 635 676 565 c 1,33,-1
 676 712 l 1,34,35
 797 762 797 762 976 762 c 2,36,-1
 1228 762 l 1,37,-1
 1228 589 l 2,38,39
 1228 -20 1228 -20 585 -20 c 0,12,13
EndSplineSet
Validated: 1
EndChar

StartChar: Gdotaccent
Encoding: 288 288 241
Width: 1388
Flags: W
HStem: -20 124<483.573 852.722> 635 127<727.549 1018> 1406 124<535.278 892.528> 1671 229<636.031 831.969>
VStem: 160 210<205.953 1187.44> 620 228<1687.17 1883.9> 1018 210<322.562 635 1145 1275.84>
LayerCount: 2
Fore
SplineSet
734 1671 m 152,-1,1
 620 1671 620 1671 620 1786 c 0,2,3
 620 1900 620 1900 734 1900 c 128,-1,4
 848 1900 848 1900 848 1785.5 c 128,-1,0
 848 1671 848 1671 734 1671 c 152,-1,1
585 -20 m 0,5,6
 160 -20 160 -20 160 365 c 2,7,-1
 160 921 l 2,8,9
 160 1530 160 1530 803 1530 c 0,10,11
 1228 1530 1228 1530 1228 1145 c 1,12,-1
 1018 1090 l 1,13,14
 1018 1406 1018 1406 701 1406 c 0,15,16
 370 1406 370 1406 370 921 c 2,17,-1
 370 365 l 2,18,19
 370 104 370 104 687 104 c 0,20,21
 1018 104 1018 104 1018 589 c 2,22,-1
 1018 635 l 1,23,-1
 976 635 l 2,24,25
 794 635 794 635 676 565 c 1,26,-1
 676 712 l 1,27,28
 797 762 797 762 976 762 c 2,29,-1
 1228 762 l 1,30,-1
 1228 589 l 2,31,32
 1228 -20 1228 -20 585 -20 c 0,5,6
EndSplineSet
Validated: 1
EndChar

StartChar: Gcommaaccent
Encoding: 290 290 242
Width: 1388
Flags: W
HStem: -410 21G<446.25 490.933> -20 124<483.573 852.722> 635 127<727.549 1018> 1406 124<535.278 892.528>
VStem: 160 210<205.953 1187.44> 1018 210<322.562 635 1145 1275.84>
LayerCount: 2
Fore
SplineSet
629 -50 m 1,0,-1
 753 -171 l 1,1,-1
 467 -410 l 1,2,-1
 384 -330 l 1,3,-1
 629 -50 l 1,0,-1
585 -20 m 0,4,5
 160 -20 160 -20 160 365 c 2,6,-1
 160 921 l 2,7,8
 160 1530 160 1530 803 1530 c 0,9,10
 1228 1530 1228 1530 1228 1145 c 1,11,-1
 1018 1090 l 1,12,13
 1018 1406 1018 1406 701 1406 c 0,14,15
 370 1406 370 1406 370 921 c 2,16,-1
 370 365 l 2,17,18
 370 104 370 104 687 104 c 0,19,20
 1018 104 1018 104 1018 589 c 2,21,-1
 1018 635 l 1,22,-1
 976 635 l 2,23,24
 794 635 794 635 676 565 c 1,25,-1
 676 712 l 1,26,27
 797 762 797 762 976 762 c 2,28,-1
 1228 762 l 1,29,-1
 1228 589 l 2,30,31
 1228 -20 1228 -20 585 -20 c 0,4,5
EndSplineSet
Validated: 1
EndChar

StartChar: Hcircumflex
Encoding: 292 292 243
Width: 1406
Flags: W
HStem: 0 21G<200 400 1031 1276> 696 127<400 1006> 1490 20G<130 375 1006 1206> 1746 174<607 781>
VStem: 200 200<0 696 823 1457.99> 1006 200<52.0093 696 823 1510>
LayerCount: 2
Fore
SplineSet
532 1560 m 1,0,-1
 408 1682 l 1,1,-1
 694 1920 l 1,2,-1
 980 1682 l 1,3,-1
 856 1560 l 1,4,-1
 694 1746 l 1,5,-1
 532 1560 l 1,0,-1
200 0 m 1,6,-1
 200 1210 l 2,7,8
 200 1392 200 1392 130 1510 c 1,9,-1
 350 1510 l 1,10,11
 400 1411 400 1411 400 1210 c 2,12,-1
 400 823 l 1,13,-1
 1006 823 l 1,14,-1
 1006 1510 l 1,15,-1
 1206 1510 l 1,16,-1
 1206 300 l 2,17,18
 1206 118 1206 118 1276 0 c 1,19,-1
 1056 0 l 1,20,21
 1006 99 1006 99 1006 300 c 2,22,-1
 1006 696 l 1,23,-1
 400 696 l 1,24,-1
 400 0 l 1,25,-1
 200 0 l 1,6,-1
EndSplineSet
Validated: 1
EndChar

StartChar: Igrave
Encoding: 204 204 244
Width: 600
Flags: W
HStem: 0 21G<200 400> 1490 20G<130 375>
VStem: 200 200<0 1457.99>
LayerCount: 2
Fore
SplineSet
99 1920 m 1,0,-1
 344 1640 l 1,1,-1
 261 1560 l 1,2,-1
 -25 1799 l 1,3,-1
 99 1920 l 1,0,-1
200 0 m 25,4,-1
 200 1210 l 2,5,6
 200 1392 200 1392 130 1510 c 9,7,-1
 350 1510 l 17,8,9
 400 1411 400 1411 400 1210 c 2,10,-1
 400 0 l 25,11,-1
 200 0 l 25,4,-1
EndSplineSet
Validated: 1
EndChar

StartChar: Iacute
Encoding: 205 205 245
Width: 600
Flags: W
HStem: 0 21G<200 400> 1490 20G<130 375>
VStem: 200 200<0 1457.99>
LayerCount: 2
Fore
SplineSet
425 1920 m 1,0,-1
 549 1799 l 1,1,-1
 263 1560 l 1,2,-1
 180 1640 l 1,3,-1
 425 1920 l 1,0,-1
200 0 m 25,4,-1
 200 1210 l 2,5,6
 200 1392 200 1392 130 1510 c 9,7,-1
 350 1510 l 17,8,9
 400 1411 400 1411 400 1210 c 2,10,-1
 400 0 l 25,11,-1
 200 0 l 25,4,-1
EndSplineSet
Validated: 1
EndChar

StartChar: Icircumflex
Encoding: 206 206 246
Width: 600
Flags: W
HStem: 0 21G<200 400> 1490 20G<130 375> 1746 174<213 387>
VStem: 200 200<0 1457.99>
LayerCount: 2
Fore
SplineSet
200 0 m 25,0,-1
 200 1210 l 2,1,2
 200 1392 200 1392 130 1510 c 9,3,-1
 350 1510 l 17,4,5
 400 1411 400 1411 400 1210 c 2,6,-1
 400 0 l 25,7,-1
 200 0 l 25,0,-1
138 1560 m 1,8,-1
 14 1682 l 1,9,-1
 300 1920 l 1,10,-1
 586 1682 l 1,11,-1
 462 1560 l 1,12,-1
 300 1746 l 1,13,-1
 138 1560 l 1,8,-1
EndSplineSet
Validated: 1
EndChar

StartChar: Idieresis
Encoding: 207 207 247
Width: 600
Flags: W
HStem: 0 21G<200 400> 1490 20G<130 375> 1630 229<25.9609 221.039 379.395 571.681>
VStem: 10 227<1646.1 1842.9> 200 200<0 1457.99> 362 227<1646.03 1841.97>
LayerCount: 2
Fore
SplineSet
200 0 m 25,0,-1
 200 1210 l 2,1,2
 200 1392 200 1392 130 1510 c 9,3,-1
 350 1510 l 17,4,5
 400 1411 400 1411 400 1210 c 2,6,-1
 400 0 l 25,7,-1
 200 0 l 25,0,-1
475.5 1630 m 136,-1,9
 362 1630 362 1630 362 1744 c 128,-1,10
 362 1858 362 1858 476 1858 c 0,11,12
 589 1858 589 1858 589 1744 c 128,-1,8
 589 1630 589 1630 475.5 1630 c 136,-1,9
123.5 1630 m 152,-1,14
 10 1630 10 1630 10 1744.5 c 128,-1,15
 10 1859 10 1859 123.5 1859 c 128,-1,16
 237 1859 237 1859 237 1744.5 c 128,-1,13
 237 1630 237 1630 123.5 1630 c 152,-1,14
EndSplineSet
Validated: 1
EndChar

StartChar: Itilde
Encoding: 296 296 248
Width: 600
Flags: W
HStem: 0 21G<200 400> 1490 20G<130 375> 1634 108<319.004 519.555> 1750 107<78 264.084>
VStem: 14 126<1669 1746.8> 200 200<0 1457.99> 460 126<1744.2 1822>
CounterMasks: 1 0e
LayerCount: 2
Fore
SplineSet
200 0 m 25,0,-1
 200 1210 l 2,1,2
 200 1392 200 1392 130 1510 c 9,3,-1
 350 1510 l 17,4,5
 400 1411 400 1411 400 1210 c 2,6,-1
 400 0 l 25,7,-1
 200 0 l 25,0,-1
14 1669 m 1,8,9
 14 1857 14 1857 142 1857 c 0,10,11
 261 1857 261 1857 332 1771 c 0,12,13
 356 1742 356 1742 411 1742 c 0,14,15
 460 1742 460 1742 460 1857 c 1,16,-1
 586 1822 l 1,17,18
 586 1634 586 1634 452 1634 c 0,19,20
 308 1634 308 1634 258 1717 c 0,21,22
 238 1750 238 1750 197 1750 c 0,23,24
 140 1750 140 1750 140 1634 c 1,25,-1
 14 1669 l 1,8,9
EndSplineSet
Validated: 1
EndChar

StartChar: Imacron
Encoding: 298 298 249
Width: 600
Flags: W
HStem: 0 21G<200 400> 1490 20G<130 375> 1684 127<14 586>
VStem: 200 200<0 1457.99>
LayerCount: 2
Fore
SplineSet
200 0 m 25,0,-1
 200 1210 l 2,1,2
 200 1392 200 1392 130 1510 c 9,3,-1
 350 1510 l 17,4,5
 400 1411 400 1411 400 1210 c 2,6,-1
 400 0 l 25,7,-1
 200 0 l 25,0,-1
14 1811 m 17,8,-1
 586 1811 l 1,9,-1
 586 1684 l 1,10,-1
 14 1684 l 9,11,-1
 14 1811 l 17,8,-1
EndSplineSet
Validated: 1
EndChar

StartChar: Ibreve
Encoding: 300 300 250
Width: 600
Flags: W
HStem: 0 21G<200 400> 1490 20G<130 375> 1640 93<149.789 450.211>
VStem: 14 126<1737.12 1828> 200 200<0 1457.99> 460 126<1737.12 1828>
CounterMasks: 1 1c
LayerCount: 2
Fore
SplineSet
200 0 m 25,0,-1
 200 1210 l 2,1,2
 200 1392 200 1392 130 1510 c 9,3,-1
 350 1510 l 17,4,5
 400 1411 400 1411 400 1210 c 2,6,-1
 400 0 l 25,7,-1
 200 0 l 25,0,-1
140 1863 m 1,8,9
 140 1733 140 1733 195 1733 c 2,10,-1
 405 1733 l 2,11,12
 460 1733 460 1733 460 1863 c 1,13,-1
 586 1828 l 1,14,15
 586 1640 586 1640 456 1640 c 2,16,-1
 144 1640 l 2,17,18
 14 1640 14 1640 14 1828 c 1,19,-1
 140 1863 l 1,8,9
EndSplineSet
Validated: 1
EndChar

StartChar: Iogonek
Encoding: 302 302 251
Width: 600
Flags: W
HStem: -430 21G<103 194.806> 1490 20G<130 375>
VStem: 30 155<-250.588 -25.9192> 200 200<62.5796 1457.99>
LayerCount: 2
Fore
SplineSet
400 0 m 1,0,-1
 258 0 l 1,1,2
 185 -47 185 -47 185 -136 c 0,3,4
 185 -252 185 -252 302 -296 c 1,5,-1
 176 -430 l 1,6,7
 30 -326 30 -326 30 -164 c 0,8,9
 30 -21 30 -21 200 96 c 1,10,-1
 200 1210 l 2,11,12
 200 1392 200 1392 130 1510 c 1,13,-1
 350 1510 l 1,14,15
 400 1411 400 1411 400 1210 c 2,16,-1
 400 0 l 1,0,-1
EndSplineSet
Validated: 1
EndChar

StartChar: Idotaccent
Encoding: 304 304 252
Width: 600
Flags: W
HStem: 0 21G<200 400> 1490 20G<130 375> 1671 229<136.031 331.969>
VStem: 120 228<1687.17 1883.9> 200 200<0 1457.99>
LayerCount: 2
Fore
SplineSet
234 1671 m 152,-1,1
 120 1671 120 1671 120 1786 c 0,2,3
 120 1900 120 1900 234 1900 c 128,-1,4
 348 1900 348 1900 348 1785.5 c 128,-1,0
 348 1671 348 1671 234 1671 c 152,-1,1
200 0 m 25,5,-1
 200 1210 l 2,6,7
 200 1392 200 1392 130 1510 c 9,8,-1
 350 1510 l 17,9,10
 400 1411 400 1411 400 1210 c 2,11,-1
 400 0 l 25,12,-1
 200 0 l 25,5,-1
EndSplineSet
Validated: 1
EndChar

StartChar: IJ
Encoding: 306 306 253
Width: 1521
Flags: W
HStem: -20 124<727.092 1005.96> 0 21G<200 400> 1383 127<732.585 1121>
VStem: 200 200<0 1457.99> 453 210<169.868 279> 1121 200<252.438 1383>
LayerCount: 2
Fore
SplineSet
757 -20 m 0,0,1
 453 -20 453 -20 453 279 c 1,2,-1
 663 334 l 1,3,4
 663 104 663 104 859 104 c 0,5,6
 1121 104 1121 104 1121 484 c 2,7,-1
 1121 1383 l 1,8,-1
 971 1383 l 2,9,10
 823 1383 823 1383 671 1313 c 1,11,-1
 671 1460 l 1,12,13
 784 1510 784 1510 971 1510 c 2,14,-1
 1321 1510 l 1,15,-1
 1321 501 l 2,16,17
 1321 -20 1321 -20 757 -20 c 0,0,1
200 0 m 25,18,-1
 200 1210 l 2,19,20
 200 1392 200 1392 130 1510 c 9,21,-1
 350 1510 l 17,22,23
 400 1411 400 1411 400 1210 c 2,24,-1
 400 0 l 25,25,-1
 200 0 l 25,18,-1
EndSplineSet
Validated: 1
EndChar

StartChar: Jcircumflex
Encoding: 308 308 254
Width: 1088
Flags: W
HStem: -20 124<294.092 572.958> 1383 127<299.585 688> 1746 174<483 657>
VStem: 20 210<169.868 279> 688 200<252.438 1383>
LayerCount: 2
Fore
SplineSet
408 1560 m 1,0,-1
 284 1682 l 1,1,-1
 570 1920 l 1,2,-1
 856 1682 l 1,3,-1
 732 1560 l 1,4,-1
 570 1746 l 1,5,-1
 408 1560 l 1,0,-1
324 -20 m 0,6,7
 20 -20 20 -20 20 279 c 1,8,-1
 230 334 l 1,9,10
 230 104 230 104 426 104 c 0,11,12
 688 104 688 104 688 484 c 2,13,-1
 688 1383 l 1,14,-1
 538 1383 l 2,15,16
 390 1383 390 1383 238 1313 c 1,17,-1
 238 1460 l 1,18,19
 351 1510 351 1510 538 1510 c 2,20,-1
 888 1510 l 1,21,-1
 888 501 l 2,22,23
 888 -20 888 -20 324 -20 c 0,6,7
EndSplineSet
Validated: 1
EndChar

StartChar: Kcommaaccent
Encoding: 310 310 255
Width: 1317
Flags: W
HStem: -410 21G<463.25 507.933> 0 21G<200 400 932 1187> 696 127<400 781.746> 1490 20G<130 375 890 1100>
VStem: 200 200<0 696 823 1456.83> 890 210<1027.63 1510> 907 210<53.168 546.781>
LayerCount: 2
Fore
SplineSet
646 -50 m 1,0,-1
 770 -171 l 1,1,-1
 484 -410 l 1,2,-1
 401 -330 l 1,3,-1
 646 -50 l 1,0,-1
200 0 m 1,4,-1
 200 1210 l 2,5,6
 200 1392 200 1392 130 1510 c 9,7,-1
 350 1510 l 17,8,9
 400 1384 400 1384 400 1210 c 2,10,-1
 400 823 l 1,11,-1
 642 823 l 2,12,13
 890 823 890 823 890 1194 c 2,14,-1
 890 1510 l 25,15,-1
 1100 1510 l 25,16,-1
 1100 1305 l 2,17,18
 1100 910 1100 910 844 779 c 1,19,20
 1117 649 1117 649 1117 314 c 2,21,-1
 1117 300 l 2,22,23
 1117 126 1117 126 1187 0 c 1,24,-1
 957 0 l 1,25,26
 907 110 907 110 907 300 c 2,27,-1
 907 314 l 2,28,29
 907 696 907 696 642 696 c 2,30,-1
 400 696 l 1,31,-1
 400 0 l 1,32,-1
 200 0 l 1,4,-1
EndSplineSet
Validated: 1
EndChar

StartChar: Lacute
Encoding: 313 313 256
Width: 1041
Flags: W
HStem: 0 127<400 979.451> 1490 20G<130 375>
VStem: 200 200<127 1457.99>
LayerCount: 2
Fore
SplineSet
424 1920 m 1,0,-1
 548 1799 l 1,1,-1
 262 1560 l 1,2,-1
 179 1640 l 1,3,-1
 424 1920 l 1,0,-1
200 0 m 1,4,-1
 200 1210 l 2,5,6
 200 1392 200 1392 130 1510 c 1,7,-1
 350 1510 l 1,8,9
 400 1411 400 1411 400 1210 c 2,10,-1
 400 127 l 1,11,-1
 731 127 l 2,12,13
 913 127 913 127 1031 197 c 1,14,-1
 1031 50 l 1,15,16
 910 0 910 0 731 0 c 2,17,-1
 200 0 l 1,4,-1
EndSplineSet
Validated: 1
EndChar

StartChar: Lcommaaccent
Encoding: 315 315 257
Width: 1041
Flags: W
HStem: -410 21G<399.25 443.933> 0 127<400 979.451> 1490 20G<130 375>
VStem: 200 200<127 1457.99>
LayerCount: 2
Fore
SplineSet
582 -50 m 1,0,-1
 706 -171 l 1,1,-1
 420 -410 l 1,2,-1
 337 -330 l 1,3,-1
 582 -50 l 1,0,-1
200 0 m 1,4,-1
 200 1210 l 2,5,6
 200 1392 200 1392 130 1510 c 1,7,-1
 350 1510 l 1,8,9
 400 1411 400 1411 400 1210 c 2,10,-1
 400 127 l 1,11,-1
 731 127 l 2,12,13
 913 127 913 127 1031 197 c 1,14,-1
 1031 50 l 1,15,16
 910 0 910 0 731 0 c 2,17,-1
 200 0 l 1,4,-1
EndSplineSet
Validated: 1
EndChar

StartChar: Lcaron
Encoding: 317 317 258
Width: 1041
Flags: W
HStem: 0 127<400 979.451> 1510 0G<130 375 570.277 621.889>
VStem: 200 200<127 1457.99>
LayerCount: 2
Fore
SplineSet
578 1530 m 1,0,-1
 736 1458 l 1,1,-1
 549 1136 l 1,2,-1
 444 1183 l 1,3,-1
 578 1530 l 1,0,-1
200 0 m 1,4,-1
 200 1210 l 2,5,6
 200 1392 200 1392 130 1510 c 1,7,-1
 350 1510 l 1,8,9
 400 1411 400 1411 400 1210 c 2,10,-1
 400 127 l 1,11,-1
 731 127 l 2,12,13
 913 127 913 127 1031 197 c 1,14,-1
 1031 50 l 1,15,16
 910 0 910 0 731 0 c 2,17,-1
 200 0 l 1,4,-1
EndSplineSet
Validated: 1
EndChar

StartChar: Ldot
Encoding: 319 319 259
Width: 1041
Flags: W
HStem: 0 127<400 979.451> 730 255<515.795 726.205> 1490 20G<130 375>
VStem: 200 200<127 1457.99> 495 252<751.042 963.958>
LayerCount: 2
Fore
SplineSet
621 730 m 152,-1,1
 495 730 495 730 495 857.5 c 128,-1,2
 495 985 495 985 621 985 c 128,-1,3
 747 985 747 985 747 857.5 c 128,-1,0
 747 730 747 730 621 730 c 152,-1,1
200 0 m 1,4,-1
 200 1210 l 2,5,6
 200 1392 200 1392 130 1510 c 1,7,-1
 350 1510 l 1,8,9
 400 1411 400 1411 400 1210 c 2,10,-1
 400 127 l 1,11,-1
 731 127 l 2,12,13
 913 127 913 127 1031 197 c 1,14,-1
 1031 50 l 1,15,16
 910 0 910 0 731 0 c 2,17,-1
 200 0 l 1,4,-1
EndSplineSet
Validated: 1
EndChar

StartChar: Ntilde
Encoding: 209 209 260
Width: 1406
Flags: W
HStem: 0 21G<200 400 1015 1205.01> 1330 180<390 586.381> 1634 108<731.004 931.555> 1750 107<490 676.084>
VStem: 200 200<0 1327.56> 426 126<1669 1746.8> 872 126<1744.2 1822> 1015 191<0 517.891 900 1510>
LayerCount: 2
Fore
SplineSet
426 1669 m 1,0,1
 426 1857 426 1857 554 1857 c 0,2,3
 673 1857 673 1857 744 1771 c 0,4,5
 768 1742 768 1742 823 1742 c 0,6,7
 872 1742 872 1742 872 1857 c 1,8,-1
 998 1822 l 1,9,10
 998 1634 998 1634 864 1634 c 0,11,12
 720 1634 720 1634 670 1717 c 0,13,14
 650 1750 650 1750 609 1750 c 0,15,16
 552 1750 552 1750 552 1634 c 1,17,-1
 426 1669 l 1,0,1
200 0 m 1,18,-1
 200 1210 l 2,19,20
 200 1392 200 1392 130 1510 c 1,21,-1
 350 1510 l 2,22,23
 888 1510 888 1510 1008 900 c 1,24,-1
 1015 900 l 1,25,-1
 1015 1510 l 1,26,-1
 1206 1510 l 1,27,-1
 1205 0 l 1,28,-1
 1015 0 l 1,29,30
 1015 1329 1015 1329 390 1330 c 1,31,32
 400 1272 400 1272 400 1210 c 2,33,-1
 400 0 l 1,34,-1
 200 0 l 1,18,-1
EndSplineSet
Validated: 1
EndChar

StartChar: Nacute
Encoding: 323 323 261
Width: 1406
Flags: W
HStem: 0 21G<200 400 1015 1205.01> 1330 180<390 586.381>
VStem: 200 200<0 1327.56> 1015 191<0 517.891 900 1510>
LayerCount: 2
Fore
SplineSet
875 1920 m 1,0,-1
 999 1799 l 1,1,-1
 713 1560 l 1,2,-1
 630 1640 l 1,3,-1
 875 1920 l 1,0,-1
200 0 m 1,4,-1
 200 1210 l 2,5,6
 200 1392 200 1392 130 1510 c 1,7,-1
 350 1510 l 2,8,9
 888 1510 888 1510 1008 900 c 1,10,-1
 1015 900 l 1,11,-1
 1015 1510 l 1,12,-1
 1206 1510 l 1,13,-1
 1205 0 l 1,14,-1
 1015 0 l 1,15,16
 1015 1329 1015 1329 390 1330 c 1,17,18
 400 1272 400 1272 400 1210 c 2,19,-1
 400 0 l 1,20,-1
 200 0 l 1,4,-1
EndSplineSet
Validated: 1
EndChar

StartChar: Ncommaaccent
Encoding: 325 325 262
Width: 1406
Flags: W
HStem: -410 21G<501.25 545.933> 0 21G<200 400 1015 1205.01> 1330 180<390 586.381>
VStem: 200 200<0 1327.56> 1015 191<0 517.891 900 1510>
LayerCount: 2
Fore
SplineSet
684 -50 m 1,0,-1
 808 -171 l 1,1,-1
 522 -410 l 1,2,-1
 439 -330 l 1,3,-1
 684 -50 l 1,0,-1
200 0 m 1,4,-1
 200 1210 l 2,5,6
 200 1392 200 1392 130 1510 c 1,7,-1
 350 1510 l 2,8,9
 888 1510 888 1510 1008 900 c 1,10,-1
 1015 900 l 1,11,-1
 1015 1510 l 1,12,-1
 1206 1510 l 1,13,-1
 1205 0 l 1,14,-1
 1015 0 l 1,15,16
 1015 1329 1015 1329 390 1330 c 1,17,18
 400 1272 400 1272 400 1210 c 2,19,-1
 400 0 l 1,20,-1
 200 0 l 1,4,-1
EndSplineSet
Validated: 1
EndChar

StartChar: Ncaron
Encoding: 327 327 263
Width: 1406
Flags: W
HStem: 0 21G<200 400 1015 1205.01> 1330 180<390 586.381> 1560 174<637 811>
VStem: 200 200<0 1327.56> 1015 191<0 517.891 900 1510>
LayerCount: 2
Fore
SplineSet
562 1920 m 1,0,-1
 724 1734 l 1,1,-1
 886 1920 l 1,2,-1
 1010 1798 l 1,3,-1
 724 1560 l 1,4,-1
 438 1798 l 1,5,-1
 562 1920 l 1,0,-1
200 0 m 1,6,-1
 200 1210 l 2,7,8
 200 1392 200 1392 130 1510 c 1,9,-1
 350 1510 l 2,10,11
 888 1510 888 1510 1008 900 c 1,12,-1
 1015 900 l 1,13,-1
 1015 1510 l 1,14,-1
 1206 1510 l 1,15,-1
 1205 0 l 1,16,-1
 1015 0 l 1,17,18
 1015 1329 1015 1329 390 1330 c 1,19,20
 400 1272 400 1272 400 1210 c 2,21,-1
 400 0 l 1,22,-1
 200 0 l 1,6,-1
EndSplineSet
Validated: 1
EndChar

StartChar: Ograve
Encoding: 210 210 264
Width: 1388
Flags: W
HStem: -20 124<483.573 852.722> 1406 124<535.278 904.427>
VStem: 160 210<205.953 1187.44> 1018 210<322.562 1304.05>
LayerCount: 2
Fore
SplineSet
542 1920 m 1,0,-1
 787 1640 l 1,1,-1
 704 1560 l 1,2,-1
 418 1799 l 1,3,-1
 542 1920 l 1,0,-1
687 104 m 0,4,5
 1018 104 1018 104 1018 589 c 2,6,-1
 1018 1145 l 2,7,8
 1018 1406 1018 1406 701 1406 c 0,9,10
 370 1406 370 1406 370 921 c 2,11,-1
 370 365 l 2,12,13
 370 104 370 104 687 104 c 0,4,5
585 -20 m 0,14,15
 160 -20 160 -20 160 365 c 2,16,-1
 160 921 l 18,17,18
 160 1530 160 1530 803 1530 c 0,19,20
 1228 1530 1228 1530 1228 1145 c 10,21,-1
 1228 589 l 2,22,23
 1228 -20 1228 -20 585 -20 c 0,14,15
EndSplineSet
Validated: 1
EndChar

StartChar: Oacute
Encoding: 211 211 265
Width: 1388
Flags: W
HStem: -20 124<483.573 852.722> 1406 124<535.278 904.427>
VStem: 160 210<205.953 1187.44> 1018 210<322.562 1304.05>
LayerCount: 2
Fore
SplineSet
887 1920 m 1,0,-1
 1011 1799 l 1,1,-1
 725 1560 l 1,2,-1
 642 1640 l 1,3,-1
 887 1920 l 1,0,-1
687 104 m 0,4,5
 1018 104 1018 104 1018 589 c 2,6,-1
 1018 1145 l 2,7,8
 1018 1406 1018 1406 701 1406 c 0,9,10
 370 1406 370 1406 370 921 c 2,11,-1
 370 365 l 2,12,13
 370 104 370 104 687 104 c 0,4,5
585 -20 m 0,14,15
 160 -20 160 -20 160 365 c 2,16,-1
 160 921 l 18,17,18
 160 1530 160 1530 803 1530 c 0,19,20
 1228 1530 1228 1530 1228 1145 c 10,21,-1
 1228 589 l 2,22,23
 1228 -20 1228 -20 585 -20 c 0,14,15
EndSplineSet
Validated: 1
EndChar

StartChar: Ocircumflex
Encoding: 212 212 266
Width: 1388
Flags: W
HStem: -20 124<483.573 852.722> 1406 124<535.278 904.427> 1746 174<637 811>
VStem: 160 210<205.953 1187.44> 1018 210<322.562 1304.05>
LayerCount: 2
Fore
SplineSet
562 1560 m 1,0,-1
 438 1682 l 1,1,-1
 724 1920 l 1,2,-1
 1010 1682 l 1,3,-1
 886 1560 l 1,4,-1
 724 1746 l 1,5,-1
 562 1560 l 1,0,-1
687 104 m 0,6,7
 1018 104 1018 104 1018 589 c 2,8,-1
 1018 1145 l 2,9,10
 1018 1406 1018 1406 701 1406 c 0,11,12
 370 1406 370 1406 370 921 c 2,13,-1
 370 365 l 2,14,15
 370 104 370 104 687 104 c 0,6,7
585 -20 m 0,16,17
 160 -20 160 -20 160 365 c 2,18,-1
 160 921 l 18,19,20
 160 1530 160 1530 803 1530 c 0,21,22
 1228 1530 1228 1530 1228 1145 c 10,23,-1
 1228 589 l 2,24,25
 1228 -20 1228 -20 585 -20 c 0,16,17
EndSplineSet
Validated: 1
EndChar

StartChar: Otilde
Encoding: 213 213 267
Width: 1388
Flags: W
HStem: -20 124<483.573 852.722> 1406 124<535.278 904.427> 1634 108<753.004 953.555> 1750 107<512 698.084>
VStem: 160 210<205.953 1187.44> 448 126<1669 1746.8> 894 126<1744.2 1822> 1018 210<322.562 1304.05>
LayerCount: 2
Fore
SplineSet
448 1669 m 1,0,1
 448 1857 448 1857 576 1857 c 0,2,3
 695 1857 695 1857 766 1771 c 0,4,5
 790 1742 790 1742 845 1742 c 0,6,7
 894 1742 894 1742 894 1857 c 1,8,-1
 1020 1822 l 1,9,10
 1020 1634 1020 1634 886 1634 c 0,11,12
 742 1634 742 1634 692 1717 c 0,13,14
 672 1750 672 1750 631 1750 c 0,15,16
 574 1750 574 1750 574 1634 c 1,17,-1
 448 1669 l 1,0,1
687 104 m 0,18,19
 1018 104 1018 104 1018 589 c 2,20,-1
 1018 1145 l 2,21,22
 1018 1406 1018 1406 701 1406 c 0,23,24
 370 1406 370 1406 370 921 c 2,25,-1
 370 365 l 2,26,27
 370 104 370 104 687 104 c 0,18,19
585 -20 m 0,28,29
 160 -20 160 -20 160 365 c 2,30,-1
 160 921 l 18,31,32
 160 1530 160 1530 803 1530 c 0,33,34
 1228 1530 1228 1530 1228 1145 c 10,35,-1
 1228 589 l 2,36,37
 1228 -20 1228 -20 585 -20 c 0,28,29
EndSplineSet
Validated: 1
EndChar

StartChar: Odieresis
Encoding: 214 214 268
Width: 1388
Flags: W
HStem: -20 124<483.573 852.722> 1406 124<535.278 904.427> 1630 229<460.031 655.969 813.395 1006.6>
VStem: 160 210<205.953 1187.44> 444 228<1646.1 1842.9> 796 228<1646.03 1841.97> 1018 210<322.562 1304.05>
LayerCount: 2
Fore
SplineSet
910 1630 m 152,-1,1
 796 1630 796 1630 796 1744 c 128,-1,2
 796 1858 796 1858 910 1858 c 128,-1,3
 1024 1858 1024 1858 1024 1744 c 128,-1,0
 1024 1630 1024 1630 910 1630 c 152,-1,1
558 1630 m 152,-1,5
 444 1630 444 1630 444 1744.5 c 128,-1,6
 444 1859 444 1859 558 1859 c 128,-1,7
 672 1859 672 1859 672 1744.5 c 128,-1,4
 672 1630 672 1630 558 1630 c 152,-1,5
687 104 m 0,8,9
 1018 104 1018 104 1018 589 c 2,10,-1
 1018 1145 l 2,11,12
 1018 1406 1018 1406 701 1406 c 0,13,14
 370 1406 370 1406 370 921 c 2,15,-1
 370 365 l 2,16,17
 370 104 370 104 687 104 c 0,8,9
585 -20 m 0,18,19
 160 -20 160 -20 160 365 c 2,20,-1
 160 921 l 18,21,22
 160 1530 160 1530 803 1530 c 0,23,24
 1228 1530 1228 1530 1228 1145 c 10,25,-1
 1228 589 l 2,26,27
 1228 -20 1228 -20 585 -20 c 0,18,19
EndSplineSet
Validated: 1
EndChar

StartChar: Omacron
Encoding: 332 332 269
Width: 1388
Flags: W
HStem: -20 124<483.573 852.722> 1406 124<535.278 904.427> 1684 127<448 1020>
VStem: 160 210<205.953 1187.44> 1018 210<322.562 1304.05>
LayerCount: 2
Fore
SplineSet
448 1811 m 17,0,-1
 1020 1811 l 1,1,-1
 1020 1684 l 1,2,-1
 448 1684 l 9,3,-1
 448 1811 l 17,0,-1
687 104 m 0,4,5
 1018 104 1018 104 1018 589 c 2,6,-1
 1018 1145 l 2,7,8
 1018 1406 1018 1406 701 1406 c 0,9,10
 370 1406 370 1406 370 921 c 2,11,-1
 370 365 l 2,12,13
 370 104 370 104 687 104 c 0,4,5
585 -20 m 0,14,15
 160 -20 160 -20 160 365 c 2,16,-1
 160 921 l 18,17,18
 160 1530 160 1530 803 1530 c 0,19,20
 1228 1530 1228 1530 1228 1145 c 10,21,-1
 1228 589 l 2,22,23
 1228 -20 1228 -20 585 -20 c 0,14,15
EndSplineSet
Validated: 1
EndChar

StartChar: Obreve
Encoding: 334 334 270
Width: 1388
Flags: W
HStem: -20 124<483.573 852.722> 1406 124<535.278 904.427> 1640 93<582.789 883.211>
VStem: 160 210<205.953 1187.44> 447 126<1737.12 1828> 893 126<1737.12 1828> 1018 210<322.562 1304.05>
LayerCount: 2
Fore
SplineSet
573 1863 m 1,0,1
 573 1733 573 1733 628 1733 c 2,2,-1
 838 1733 l 2,3,4
 893 1733 893 1733 893 1863 c 1,5,-1
 1019 1828 l 1,6,7
 1019 1640 1019 1640 889 1640 c 2,8,-1
 577 1640 l 2,9,10
 447 1640 447 1640 447 1828 c 1,11,-1
 573 1863 l 1,0,1
687 104 m 0,12,13
 1018 104 1018 104 1018 589 c 2,14,-1
 1018 1145 l 2,15,16
 1018 1406 1018 1406 701 1406 c 0,17,18
 370 1406 370 1406 370 921 c 2,19,-1
 370 365 l 2,20,21
 370 104 370 104 687 104 c 0,12,13
585 -20 m 0,22,23
 160 -20 160 -20 160 365 c 2,24,-1
 160 921 l 18,25,26
 160 1530 160 1530 803 1530 c 0,27,28
 1228 1530 1228 1530 1228 1145 c 10,29,-1
 1228 589 l 2,30,31
 1228 -20 1228 -20 585 -20 c 0,22,23
EndSplineSet
Validated: 1
EndChar

StartChar: Ohungarumlaut
Encoding: 336 336 271
Width: 1388
Flags: W
HStem: -20 124<483.573 852.722> 1406 124<535.278 904.427>
VStem: 160 210<205.953 1187.44> 1018 210<322.562 1304.05>
LayerCount: 2
Fore
SplineSet
1054 1920 m 1,0,-1
 1178 1799 l 1,1,-1
 892 1560 l 1,2,-1
 809 1640 l 1,3,-1
 1054 1920 l 1,0,-1
731 1920 m 1,4,-1
 855 1799 l 1,5,-1
 569 1560 l 1,6,-1
 486 1640 l 1,7,-1
 731 1920 l 1,4,-1
687 104 m 0,8,9
 1018 104 1018 104 1018 589 c 2,10,-1
 1018 1145 l 2,11,12
 1018 1406 1018 1406 701 1406 c 0,13,14
 370 1406 370 1406 370 921 c 2,15,-1
 370 365 l 2,16,17
 370 104 370 104 687 104 c 0,8,9
585 -20 m 0,18,19
 160 -20 160 -20 160 365 c 2,20,-1
 160 921 l 18,21,22
 160 1530 160 1530 803 1530 c 0,23,24
 1228 1530 1228 1530 1228 1145 c 10,25,-1
 1228 589 l 2,26,27
 1228 -20 1228 -20 585 -20 c 0,18,19
EndSplineSet
Validated: 1
EndChar

StartChar: Racute
Encoding: 340 340 272
Width: 1340
Flags: W
HStem: 0 21G<200 400 925 1180> 508 127<400 780.853> 1383 127<388 828.609>
VStem: 200 200<0 508 635 1379.85> 900 210<59.9048 442.954> 944 210<862.82 1275.01>
LayerCount: 2
Fore
SplineSet
785 1920 m 1,0,-1
 909 1799 l 1,1,-1
 623 1560 l 1,2,-1
 540 1640 l 1,3,-1
 785 1920 l 1,0,-1
400 635 m 1,4,-1
 614 635 l 2,5,6
 944 635 944 635 944 1117 c 2,7,-1
 944 1125 l 2,8,9
 944 1383 944 1383 626 1383 c 2,10,-1
 388 1383 l 1,11,12
 400 1282 400 1282 400 1212 c 2,13,-1
 400 635 l 1,4,-1
200 0 m 1,14,-1
 200 1210 l 2,15,16
 200 1357 200 1357 130 1510 c 1,17,-1
 729 1510 l 2,18,19
 1154 1510 1154 1510 1154 1125 c 2,20,-1
 1154 1117 l 2,21,22
 1154 725 1154 725 848 591 c 1,23,24
 1110 533 1110 533 1110 308 c 2,25,-1
 1110 300 l 2,26,27
 1110 140 1110 140 1180 0 c 1,28,-1
 950 0 l 1,29,30
 900 121 900 121 900 300 c 2,31,-1
 900 308 l 2,32,33
 900 508 900 508 670 508 c 2,34,-1
 400 508 l 1,35,-1
 400 0 l 1,36,-1
 200 0 l 1,14,-1
EndSplineSet
Validated: 1
EndChar

StartChar: Rcommaaccent
Encoding: 342 342 273
Width: 1340
Flags: W
HStem: -410 21G<470.25 514.933> 0 21G<200 400 925 1180> 508 127<400 780.853> 1383 127<388 828.609>
VStem: 200 200<0 508 635 1379.85> 900 210<59.9048 442.954> 944 210<862.82 1275.01>
LayerCount: 2
Fore
SplineSet
653 -50 m 1,0,-1
 777 -171 l 1,1,-1
 491 -410 l 1,2,-1
 408 -330 l 1,3,-1
 653 -50 l 1,0,-1
400 635 m 1,4,-1
 614 635 l 2,5,6
 944 635 944 635 944 1117 c 2,7,-1
 944 1125 l 2,8,9
 944 1383 944 1383 626 1383 c 2,10,-1
 388 1383 l 1,11,12
 400 1282 400 1282 400 1212 c 2,13,-1
 400 635 l 1,4,-1
200 0 m 1,14,-1
 200 1210 l 2,15,16
 200 1357 200 1357 130 1510 c 1,17,-1
 729 1510 l 2,18,19
 1154 1510 1154 1510 1154 1125 c 2,20,-1
 1154 1117 l 2,21,22
 1154 725 1154 725 848 591 c 1,23,24
 1110 533 1110 533 1110 308 c 2,25,-1
 1110 300 l 2,26,27
 1110 140 1110 140 1180 0 c 1,28,-1
 950 0 l 1,29,30
 900 121 900 121 900 300 c 2,31,-1
 900 308 l 2,32,33
 900 508 900 508 670 508 c 2,34,-1
 400 508 l 1,35,-1
 400 0 l 1,36,-1
 200 0 l 1,14,-1
EndSplineSet
Validated: 1
EndChar

StartChar: Rcaron
Encoding: 344 344 274
Width: 1340
Flags: W
HStem: 0 21G<200 400 925 1180> 508 127<400 780.853> 1383 127<388 828.609> 1560 174<544 718>
VStem: 200 200<0 508 635 1379.85> 900 210<59.9048 442.954> 944 210<862.82 1275.01>
LayerCount: 2
Fore
SplineSet
469 1920 m 1,0,-1
 631 1734 l 1,1,-1
 793 1920 l 1,2,-1
 917 1798 l 1,3,-1
 631 1560 l 1,4,-1
 345 1798 l 1,5,-1
 469 1920 l 1,0,-1
400 635 m 1,6,-1
 614 635 l 2,7,8
 944 635 944 635 944 1117 c 2,9,-1
 944 1125 l 2,10,11
 944 1383 944 1383 626 1383 c 2,12,-1
 388 1383 l 1,13,14
 400 1282 400 1282 400 1212 c 2,15,-1
 400 635 l 1,6,-1
200 0 m 1,16,-1
 200 1210 l 2,17,18
 200 1357 200 1357 130 1510 c 1,19,-1
 729 1510 l 2,20,21
 1154 1510 1154 1510 1154 1125 c 2,22,-1
 1154 1117 l 2,23,24
 1154 725 1154 725 848 591 c 1,25,26
 1110 533 1110 533 1110 308 c 2,27,-1
 1110 300 l 2,28,29
 1110 140 1110 140 1180 0 c 1,30,-1
 950 0 l 1,31,32
 900 121 900 121 900 300 c 2,33,-1
 900 308 l 2,34,35
 900 508 900 508 670 508 c 2,36,-1
 400 508 l 1,37,-1
 400 0 l 1,38,-1
 200 0 l 1,16,-1
EndSplineSet
Validated: 1
EndChar

StartChar: Scircumflex
Encoding: 348 348 275
Width: 1368
Flags: W
HStem: -20 124<489.553 852.516> 745 151<511.79 894.305> 1406 124<517.077 851.504> 1746 174<613 787>
VStem: 160 210<227.438 365> 200 210<986.234 1277.07> 958 210<1145 1294.6> 998 210<285.018 646.83>
LayerCount: 2
Fore
SplineSet
538 1560 m 1,0,-1
 414 1682 l 1,1,-1
 700 1920 l 1,2,-1
 986 1682 l 1,3,-1
 862 1560 l 1,4,-1
 700 1746 l 1,5,-1
 538 1560 l 1,0,-1
575 -20 m 0,6,7
 160 -20 160 -20 160 365 c 9,8,-1
 370 420 l 17,9,10
 370 104 370 104 677 104 c 0,11,12
 998 104 998 104 998 505 c 2,13,-1
 998 507 l 2,14,15
 998 745 998 745 691 745 c 0,16,17
 200 745 200 745 200 1058 c 10,18,-1
 200 1061 l 2,19,20
 200 1530 200 1530 793 1530 c 0,21,22
 1168 1530 1168 1530 1168 1145 c 9,23,-1
 958 1090 l 17,24,25
 958 1406 958 1406 691 1406 c 0,26,27
 410 1406 410 1406 410 1130 c 2,28,-1
 410 1127 l 2,29,30
 410 896 410 896 714 896 c 0,31,32
 1208 896 1208 896 1208 546 c 10,33,-1
 1208 544 l 2,34,35
 1208 -20 1208 -20 575 -20 c 0,6,7
EndSplineSet
Validated: 1
EndChar

